<?xml version="1.0" standalone="no"?>
<!DOCTYPE svg PUBLIC "-//W3C//DTD SVG 20010904//EN"
 "http://www.w3.org/TR/2001/REC-SVG-20010904/DTD/svg10.dtd">
<svg version="1.0" xmlns="http://www.w3.org/2000/svg"
 width="828.000000pt" height="1080.000000pt" viewBox="0 0 828.000000 1080.000000"
 preserveAspectRatio="xMidYMid meet">
<metadata>
Created by potrace 1.16, written by Peter Selinger 2001-2019
</metadata>
<g transform="translate(0.000000,1080.000000) scale(0.100000,-0.100000)"
fill="#000000" stroke="none">
<path d="M2637 9969 c7 -122 -9 -197 -57 -279 -119 -202 -129 -255 -69 -380
20 -41 61 -105 93 -142 74 -88 96 -136 96 -217 0 -91 -17 -139 -68 -188 -30
-30 -39 -43 -27 -43 23 0 74 56 96 105 13 28 19 64 19 118 0 93 -24 149 -105
242 -60 68 -86 116 -110 198 -15 52 -15 61 -1 110 9 28 32 79 51 112 91 155
111 228 101 365 -10 125 -26 124 -19 -1z"/>
<path d="M4389 9953 c0 -4 0 -48 1 -98 0 -98 -15 -143 -80 -230 -47 -64 -64
-126 -57 -214 8 -106 65 -268 118 -341 12 -15 30 -52 39 -81 17 -48 17 -57 4
-89 -8 -19 -25 -45 -37 -58 -21 -23 -21 -24 -2 -21 10 2 30 20 43 39 41 60 26
132 -58 275 -46 78 -90 227 -90 302 0 75 14 112 80 213 41 62 51 87 59 145 10
71 5 151 -10 161 -5 3 -9 2 -10 -3z"/>
<path d="M1890 9382 c0 -5 18 -35 41 -67 22 -32 37 -61 32 -65 -42 -35 -151
-104 -162 -102 -7 2 -11 -1 -7 -6 3 -5 -24 -37 -59 -72 -51 -50 -67 -62 -77
-52 -7 7 -19 12 -28 12 -13 -1 -12 -3 3 -14 9 -7 17 -17 17 -22 -1 -5 -30 -40
-65 -79 l-64 -69 -24 22 c-13 12 -32 22 -43 21 -15 0 -16 -2 -4 -7 8 -4 27
-15 41 -25 l27 -18 -48 -85 c-26 -47 -50 -87 -53 -90 -3 -3 -30 9 -61 27 -32
17 -59 29 -62 26 -3 -3 9 -13 28 -23 18 -9 45 -25 59 -35 l26 -18 -32 -113
c-33 -115 -35 -139 -9 -117 9 7 11 15 5 18 -9 6 34 178 49 194 8 9 87 -32 187
-98 33 -22 76 -48 93 -58 l32 -17 -27 -45 c-14 -25 -22 -45 -18 -45 5 0 17 16
27 35 19 34 39 44 50 26 10 -15 137 -103 142 -98 3 2 -23 25 -58 50 -109 77
-108 72 -38 155 l61 72 65 -50 c56 -43 84 -59 84 -47 0 2 -29 25 -65 51 -36
26 -65 52 -65 57 0 14 81 99 94 99 7 0 27 -16 46 -35 19 -19 40 -35 48 -35 7
0 -7 17 -32 38 -24 20 -45 40 -45 43 -1 4 20 23 45 44 l45 37 17 -23 c9 -13
31 -40 49 -59 25 -28 34 -33 44 -22 11 10 9 12 -6 12 -27 1 -90 87 -76 103 5
7 31 23 56 37 53 28 44 33 96 -58 44 -77 45 -58 2 23 -35 65 -35 69 -17 82 10
7 36 19 56 25 21 6 38 15 38 20 0 7 -33 -4 -110 -36 -11 -4 -30 19 -70 87 -30
50 -80 128 -112 171 -32 43 -58 82 -58 86 0 4 21 21 46 39 25 18 43 35 40 38
-3 3 -25 -10 -50 -27 -53 -38 -58 -36 -108 41 -32 49 -38 56 -38 41z m148
-212 c55 -75 172 -264 172 -277 -1 -8 -102 -73 -113 -73 -3 0 -22 24 -43 53
-21 28 -83 98 -138 154 -55 57 -98 105 -95 107 13 13 154 106 160 106 3 0 29
-31 57 -70z m-133 -150 c121 -123 185 -209 164 -220 -8 -5 -30 -22 -48 -38
l-34 -29 -84 69 c-45 39 -83 74 -83 78 0 4 -27 27 -60 51 -33 24 -62 50 -65
58 -4 9 17 37 52 73 31 32 58 58 59 58 1 0 45 -45 99 -100z m-85 -161 c36 -33
84 -76 107 -97 l42 -37 -48 -54 -49 -54 -28 20 c-16 12 -56 35 -89 53 -33 18
-91 57 -129 86 -38 30 -73 54 -78 54 -18 0 -5 21 58 89 l66 71 42 -36 c22 -20
70 -63 106 -95z m-200 -94 c40 -31 93 -67 119 -82 25 -14 63 -36 84 -50 l37
-23 -61 -74 -60 -74 -57 32 c-31 18 -80 48 -109 67 -28 19 -72 46 -98 61 l-46
28 22 42 c42 83 71 128 83 128 7 0 45 -25 86 -55z"/>
<path d="M5680 9162 c-26 -13 -39 -29 -53 -66 -18 -49 -18 -52 7 -200 31 -193
31 -196 -11 -189 -17 3 -43 3 -57 -1 -33 -8 -82 -50 -100 -87 -14 -29 -14 -33
9 -68 51 -76 168 -153 237 -155 31 0 45 6 73 34 l35 35 -20 53 c-24 62 -25 72
-5 72 8 0 22 11 31 25 15 23 16 45 10 173 -4 82 -11 188 -16 237 -9 85 -11 92
-44 123 -41 37 -49 38 -96 14z m94 -31 c24 -25 28 -38 36 -137 9 -105 8 -110
-13 -128 -27 -22 -98 -18 -127 9 -21 19 -40 94 -40 161 0 107 81 161 144 95z
m-4 -288 l48 6 3 -42 c10 -153 0 -207 -40 -207 -21 0 -59 41 -53 58 2 7 -5 12
-17 12 -23 0 -35 16 -37 45 0 11 -4 48 -8 82 l-8 63 32 -11 c17 -7 53 -9 80
-6z m-147 -154 c12 -6 32 -20 44 -31 l22 -20 -32 -64 c-17 -35 -34 -64 -38
-64 -3 0 -25 20 -47 44 -63 69 -67 121 -11 137 35 10 38 10 62 -2z m-104 -84
c21 -59 140 -153 214 -169 37 -9 25 -26 -17 -26 -46 0 -93 21 -153 69 -68 53
-97 100 -83 135 13 35 24 33 39 -9z m234 -17 c35 -56 46 -118 24 -136 -12 -10
-26 -9 -71 8 -30 12 -59 26 -62 32 -9 14 57 149 71 145 5 -2 23 -24 38 -49z"/>
<path d="M3470 8789 c-459 -62 -666 -101 -825 -154 -71 -24 -198 -92 -264
-140 -127 -95 -356 -326 -423 -428 -133 -201 -212 -365 -238 -494 -7 -32 -25
-79 -42 -105 -16 -26 -52 -109 -79 -185 -56 -155 -79 -294 -99 -588 -6 -88
-15 -189 -20 -225 -14 -93 -39 -349 -44 -460 -3 -52 -10 -176 -16 -275 -6 -99
-12 -342 -15 -540 -2 -198 -9 -418 -14 -490 -6 -71 -10 -263 -11 -425 0 -286
9 -407 39 -510 16 -56 32 -233 36 -386 l3 -142 -25 -11 c-13 -6 -28 -9 -33 -6
-4 3 -14 -3 -21 -13 -13 -16 -13 -16 5 -2 18 14 19 14 12 -5 -17 -41 -18 -55
-6 -69 6 -8 18 -12 25 -10 8 4 23 -9 37 -30 13 -20 27 -36 32 -36 5 0 2 8 -7
18 -20 22 -22 54 -4 50 34 -6 97 48 97 86 0 14 -58 33 -86 28 -7 -1 -11 39
-12 120 -1 68 -5 166 -8 219 l-6 96 78 -74 c49 -45 96 -80 124 -90 25 -9 56
-25 71 -35 77 -57 339 -85 874 -94 193 -3 353 -9 356 -12 7 -10 -7 -532 -20
-727 -15 -217 -14 -329 4 -421 16 -85 51 -146 95 -169 15 -8 33 -21 40 -30 25
-30 159 -83 265 -105 33 -7 74 -16 90 -21 72 -20 232 -40 278 -34 68 10 155
69 197 136 47 72 79 191 87 318 3 63 11 112 18 121 7 8 18 34 24 57 8 29 23
51 51 73 40 32 164 93 213 105 15 4 27 11 27 16 0 13 -42 2 -128 -33 -95 -39
-182 -118 -182 -166 0 -18 -5 -32 -10 -32 -17 0 -1 233 16 243 8 4 14 18 14
30 0 38 30 68 96 98 85 39 96 37 124 -13 47 -84 151 -175 119 -104 -10 20 -7
34 17 81 35 70 121 140 157 129 18 -5 20 -4 10 7 -38 39 14 148 94 199 28 18
48 39 49 50 1 10 20 42 44 69 l42 51 226 0 c125 0 247 5 271 11 115 26 235
119 285 221 40 81 59 202 54 334 -3 60 -10 119 -16 130 -14 27 2 596 28 969
10 154 22 348 25 430 3 83 8 177 10 210 2 33 7 116 10 185 9 220 35 506 70
797 26 215 33 484 15 613 -17 130 -49 297 -75 400 -27 106 -110 336 -128 355
-7 7 -8 4 -4 -7 3 -10 2 -20 -3 -23 -4 -3 -20 32 -35 77 -34 108 -48 128 -85
128 -37 0 -111 44 -136 82 -31 46 -79 52 -165 21 -46 -16 -47 -16 -92 10 -32
19 -46 34 -50 55 -8 40 -32 62 -68 62 -16 0 -36 8 -45 19 -65 76 -57 72 -135
65 -84 -8 -99 2 -99 71 0 34 -8 51 -52 106 -65 81 -104 114 -143 122 -106 21
-143 30 -163 43 -19 12 -83 14 -395 13 -204 -1 -397 -6 -427 -10z m877 -70
c131 -28 134 -31 130 -166 l-2 -104 32 -29 c18 -16 52 -34 75 -40 59 -15 70
-22 81 -56 16 -48 53 -89 92 -101 20 -7 42 -10 49 -7 23 9 44 -30 48 -93 6
-90 43 -124 134 -125 40 0 67 11 168 65 27 15 65 27 85 27 31 0 40 -5 55 -32
30 -53 58 -78 112 -104 28 -13 55 -24 60 -24 5 -1 22 -11 37 -24 61 -50 139
-294 192 -602 33 -190 34 -441 5 -696 -11 -95 -23 -180 -25 -188 -17 -59 -57
-669 -70 -1070 -6 -200 -12 -253 -27 -244 -6 4 -14 0 -19 -7 -14 -22 -11 -29
11 -29 19 0 19 -5 14 -92 -7 -121 -10 -129 -34 -99 -10 14 -16 31 -13 38 3 7
1 13 -5 13 -6 0 -12 -5 -14 -11 -2 -6 -19 -15 -38 -19 l-35 -9 42 2 c39 2 43
0 49 -26 4 -20 10 -27 21 -23 13 5 14 -9 9 -106 -4 -62 -11 -232 -16 -377 -8
-224 -12 -267 -26 -283 -16 -17 -16 -18 -1 -18 22 0 23 -66 2 -90 -13 -14 -13
-19 1 -38 8 -12 22 -22 30 -22 11 0 14 -17 14 -77 0 -213 -62 -347 -194 -422
-101 -58 -126 -61 -559 -55 -215 2 -430 9 -477 15 -47 6 -152 13 -235 14 -190
3 -439 13 -625 25 -284 18 -590 30 -910 35 -366 5 -543 17 -592 38 -62 27 -93
36 -157 46 -35 6 -73 18 -83 28 -54 49 -87 172 -82 303 17 410 24 745 29 1275
4 574 16 901 45 1280 6 72 12 173 14 226 3 53 12 139 20 190 8 52 27 164 41
249 24 149 63 349 70 360 2 3 17 65 34 138 36 157 105 345 168 461 47 87 149
228 212 294 61 64 188 156 281 202 112 57 391 127 590 150 30 4 116 15 190 26
176 24 189 25 572 27 299 2 336 0 425 -19z m190 -65 c56 -43 93 -101 93 -148
0 -24 8 -51 19 -65 17 -23 23 -24 92 -18 79 6 101 -1 113 -38 7 -25 62 -59 81
-51 18 7 45 -20 45 -44 0 -21 44 -61 89 -80 25 -10 38 -10 57 -1 14 6 49 14
78 17 53 6 54 6 97 -37 24 -24 64 -56 89 -70 37 -21 53 -40 88 -106 23 -44 42
-83 42 -87 0 -4 -10 0 -22 8 -13 8 -34 17 -48 21 -47 15 -100 56 -136 105 -32
45 -40 50 -74 50 -24 0 -62 -12 -102 -34 -136 -72 -189 -77 -245 -24 -19 18
-23 32 -23 83 0 68 -14 90 -63 99 -77 14 -113 41 -123 93 -7 39 -32 58 -86 67
-23 4 -52 21 -74 41 l-37 35 7 68 c4 37 8 72 8 77 1 6 -2 23 -6 38 -8 34 -2
34 41 1z m-2606 -790 c-44 -121 -86 -280 -130 -489 -79 -376 -117 -634 -126
-855 -3 -74 -9 -187 -14 -250 -5 -63 -12 -167 -15 -230 -4 -63 -9 -153 -12
-200 -3 -47 -10 -443 -16 -880 -6 -437 -12 -895 -15 -1018 -4 -222 -1 -251 34
-342 8 -21 -108 89 -127 120 -19 30 -44 119 -61 210 -17 101 -13 682 7 835 2
17 6 194 8 395 3 201 8 412 11 470 20 360 37 611 50 720 8 69 20 175 25 235
10 116 21 228 40 410 8 75 23 143 47 215 35 104 42 119 95 218 15 28 39 94 53
147 31 120 70 214 126 303 24 38 45 69 47 67 1 -1 -11 -38 -27 -81z m1197
-4754 c1 -140 -1 -361 -6 -490 -13 -358 6 -475 89 -562 21 -23 39 -42 39 -44
0 -1 -13 1 -28 5 -53 16 -111 51 -159 98 -44 43 -50 55 -61 114 -14 79 -15
252 -2 444 5 77 12 250 15 385 3 135 8 260 11 278 6 32 7 33 53 30 l46 -3 3
-255z m552 230 c146 -6 268 -14 272 -18 3 -4 2 -81 -4 -172 -5 -91 -8 -243 -5
-337 7 -273 -7 -585 -31 -661 -31 -98 -79 -169 -130 -193 -39 -20 -54 -21
-147 -15 -172 12 -290 61 -380 157 -72 78 -80 119 -74 394 2 116 4 358 4 539
l0 329 115 -6 c63 -4 234 -11 380 -17z m1070 -50 c0 -5 -13 -25 -30 -43 -16
-19 -30 -40 -30 -46 0 -14 -8 -14 -86 1 -71 13 -79 26 -43 72 19 24 26 26 105
26 47 0 84 -4 84 -10z m-312 -74 c41 -8 76 -17 79 -20 3 -2 -9 -11 -25 -20
-37 -19 -82 -72 -82 -95 0 -33 -12 -30 -75 17 -62 46 -81 75 -69 106 6 17 58
35 84 29 8 -1 48 -9 88 -17z m229 -50 c2 -1 -17 -17 -42 -35 -46 -33 -95 -111
-95 -151 0 -28 -9 -25 -57 19 -42 37 -56 78 -35 106 17 25 67 55 89 55 19 0
23 4 18 19 -6 19 -4 19 57 5 34 -8 63 -16 65 -18z m-364 -67 c34 -28 67 -54
74 -56 18 -7 16 -23 -2 -23 -28 0 -92 -38 -119 -71 -15 -17 -28 -30 -30 -28
-8 8 -74 145 -79 164 -4 11 -3 26 2 33 7 12 48 27 85 31 4 1 36 -22 69 -50z
m-131 -114 c25 -49 47 -93 47 -97 1 -4 -23 -14 -51 -22 -73 -22 -130 -64 -142
-104 -18 -63 -26 -30 -26 108 0 87 4 140 10 140 6 0 10 5 10 12 0 26 44 59 75
56 27 -3 35 -12 77 -93z m284 4 c19 -11 39 -29 44 -39 9 -16 3 -23 -35 -45
-44 -26 -105 -112 -105 -148 0 -9 -4 -19 -10 -22 -13 -8 -100 129 -100 158 0
30 57 85 106 102 52 19 61 18 100 -6z"/>
<path d="M4096 7700 c-67 -20 -96 -78 -96 -189 0 -100 11 -116 85 -126 104
-13 195 -66 322 -188 107 -103 146 -157 168 -232 10 -33 32 -105 50 -160 19
-55 36 -131 40 -170 8 -73 25 -105 56 -105 27 0 36 25 44 120 9 112 -3 179
-69 387 -77 247 -134 339 -330 541 -82 84 -96 94 -154 112 -70 22 -74 22 -116
10z"/>
<path d="M3399 7381 c-77 -20 -104 -36 -178 -105 -77 -73 -186 -231 -222 -323
-37 -93 -43 -209 -12 -234 22 -19 38 6 62 95 45 166 112 253 245 320 111 55
153 57 257 13 19 -9 41 -12 48 -8 14 9 40 111 41 162 0 50 -32 77 -106 89 -32
6 -61 10 -64 9 -3 0 -35 -8 -71 -18z"/>
<path d="M3327 7080 c-48 -15 -126 -70 -146 -103 -32 -53 -61 -167 -66 -262
-2 -49 -9 -193 -15 -320 -6 -126 -15 -245 -20 -265 -8 -27 -21 -42 -61 -65
-128 -75 -253 -201 -232 -234 20 -31 41 -23 82 33 38 50 166 155 177 144 8 -9
-16 -61 -59 -127 -89 -137 -50 -262 97 -306 24 -8 92 -17 150 -21 l106 -7 0
-29 c0 -70 73 -157 153 -184 43 -14 74 -16 206 -10 100 5 212 3 311 -5 198
-16 229 -8 277 66 36 55 41 96 19 149 l-14 33 87 6 c72 5 100 12 171 45 92 43
107 56 139 119 39 78 25 155 -44 246 -20 27 -35 50 -33 52 7 7 234 -73 290
-101 54 -28 78 -26 78 6 0 34 -203 121 -377 160 -48 11 -53 15 -68 53 -23 64
-44 187 -56 336 -21 271 -104 440 -245 503 -73 32 -136 39 -199 23 -68 -18
-94 -36 -134 -96 -29 -42 -38 -64 -55 -143 -7 -27 -9 -24 -59 59 -107 181
-197 245 -352 251 -44 2 -93 -1 -108 -6z m209 -71 c33 -13 73 -38 98 -63 42
-41 139 -194 176 -279 21 -47 39 -176 43 -302 2 -74 4 -80 24 -83 38 -6 47 29
37 147 -13 155 -11 338 5 392 20 70 62 116 124 134 47 13 59 13 111 0 32 -9
77 -28 100 -43 86 -58 150 -219 167 -417 9 -108 28 -249 45 -331 l6 -31 -64
10 c-34 5 -145 10 -245 11 -158 1 -184 -1 -199 -16 -31 -31 -11 -48 56 -48 50
0 60 -3 60 -17 0 -55 113 -143 192 -151 45 -4 50 -2 88 35 28 29 41 52 46 81
7 45 11 47 65 32 26 -7 50 -28 90 -77 71 -88 88 -120 89 -166 0 -70 -37 -116
-129 -158 -75 -34 -181 -48 -232 -30 -29 10 -36 9 -46 -6 -12 -16 -15 -16 -48
0 -58 28 -147 36 -425 39 -237 2 -270 1 -315 -16 -27 -10 -58 -25 -67 -33 -15
-13 -36 -15 -130 -9 -162 10 -234 38 -258 101 -14 37 -1 79 48 151 24 35 48
87 58 127 19 71 38 86 47 38 14 -70 93 -116 174 -102 51 10 80 26 126 69 29
28 40 49 49 93 13 64 3 59 98 44 39 -6 60 3 60 25 0 27 -9 30 -114 42 -104 12
-232 -3 -342 -41 l-57 -19 7 97 c13 184 16 237 21 396 5 147 15 216 43 286 12
30 64 76 107 95 47 20 146 17 211 -7z m484 -1399 c209 -22 296 -115 199 -212
l-30 -30 -132 8 c-122 8 -196 9 -433 3 -79 -2 -95 0 -134 22 -51 28 -90 80
-90 119 0 34 36 68 91 85 54 17 387 20 529 5z"/>
<path d="M4721 5706 c-22 -29 -52 -63 -68 -75 -15 -12 -39 -30 -53 -41 -24
-18 -24 -20 -8 -36 17 -17 20 -17 62 3 43 21 95 77 131 140 15 26 16 34 6 47
-20 24 -27 20 -70 -38z"/>
<path d="M4559 5174 c-164 -172 -465 -262 -637 -190 -139 57 -237 74 -297 51
-11 -4 -58 -31 -104 -59 -81 -49 -88 -51 -157 -51 -67 0 -75 2 -111 33 -21 18
-65 51 -97 72 -56 38 -63 40 -136 40 -42 0 -96 -7 -121 -15 -53 -18 -160 -104
-204 -163 -16 -23 -49 -53 -73 -68 -24 -15 -48 -36 -53 -47 -13 -23 -5 -47 16
-47 24 0 105 66 178 146 96 104 97 104 141 40 20 -29 54 -72 75 -95 l39 -42
-96 -147 c-52 -81 -102 -153 -109 -161 -28 -27 -45 -61 -39 -76 3 -9 23 -23
43 -31 21 -9 53 -23 70 -31 41 -19 56 -13 77 28 9 18 37 60 62 93 24 34 63 87
85 119 l41 58 33 -26 c19 -14 44 -25 57 -25 14 0 37 -13 53 -30 48 -50 168
-79 234 -56 36 12 48 12 88 0 87 -26 158 -16 243 34 8 5 29 14 45 20 17 6 57
22 90 36 50 21 61 23 68 10 11 -19 31 -18 23 2 -5 13 -1 14 23 9 22 -5 35 0
57 19 16 13 25 28 20 33 -4 4 -15 -2 -23 -14 -15 -22 -63 -33 -63 -15 0 5 25
30 55 56 63 54 141 160 170 229 11 28 26 48 39 51 33 8 166 100 224 154 48 44
53 52 43 71 -16 30 -32 26 -72 -15z m-754 -213 c51 -18 81 -35 85 -47 20 -57
-20 -266 -61 -318 -40 -51 -119 -71 -183 -46 -22 8 -24 13 -17 33 14 35 29
159 35 277 5 83 9 108 23 118 23 17 28 16 118 -17z m-199 -128 c-9 -162 -21
-217 -55 -255 -24 -27 -34 -30 -75 -30 -50 1 -112 17 -134 35 -7 5 -20 25 -29
44 -14 30 -14 45 -5 114 15 106 23 119 71 119 51 0 95 16 166 61 33 21 62 39
64 39 2 0 1 -57 -3 -127z m-368 59 c15 -10 5 -28 -78 -142 -22 -30 -48 -68
-57 -83 -16 -26 -100 -143 -171 -238 -26 -36 -38 -38 -80 -13 -2 1 21 36 50
77 29 42 74 109 100 149 25 40 79 119 119 175 75 105 73 104 117 75z"/>
<path d="M4096 4554 c-60 -31 -98 -44 -118 -42 -35 3 -55 -19 -44 -47 11 -30
94 -15 192 35 91 46 109 62 100 85 -9 24 -34 17 -130 -31z"/>
<path d="M2763 4343 c-3 -10 -12 -25 -18 -33 -16 -19 -27 -82 -19 -104 4 -9
22 -28 42 -41 28 -19 39 -22 55 -14 12 7 17 18 14 29 -3 11 1 21 9 24 8 3 14
16 14 30 0 13 7 26 15 30 32 12 16 43 -35 70 -59 31 -69 32 -77 9z"/>
<path d="M5965 8725 c-28 -27 -34 -87 -13 -145 11 -34 91 -155 109 -165 14 -9
0 -27 -14 -19 -9 5 -9 4 0 -6 9 -10 24 -11 67 -2 79 16 106 36 106 79 0 56
-22 127 -47 150 -12 12 -23 27 -23 34 0 21 -112 99 -142 99 -11 0 -30 -11 -43
-25z m88 -6 c12 -6 34 -23 49 -37 l27 -25 -19 -36 c-11 -20 -28 -47 -40 -61
l-20 -25 -20 25 c-26 33 -60 105 -60 128 0 38 40 53 83 31z m129 -160 c14 -49
1 -112 -24 -117 -10 -2 -36 15 -60 37 l-43 40 23 28 c12 15 30 43 39 61 l17
34 18 -22 c10 -12 23 -40 30 -61z"/>
<path d="M6022 8023 c-5 -10 -15 -63 -21 -118 -7 -55 -19 -138 -26 -185 -15
-87 -10 -159 16 -240 31 -98 28 -225 -10 -310 -10 -25 -22 -56 -26 -70 -13
-44 15 -7 42 57 37 85 42 213 15 330 -31 129 -31 139 -16 227 17 100 43 320
39 324 -2 2 -8 -5 -13 -15z"/>
<path d="M5854 7904 c-12 -47 4 -177 33 -269 23 -74 27 -108 28 -195 0 -100
-2 -110 -40 -200 -38 -93 -39 -98 -39 -215 0 -106 3 -129 28 -200 16 -44 29
-99 29 -123 0 -48 -19 -92 -42 -92 -12 0 -12 -3 -3 -12 18 -18 51 19 62 68 10
43 2 90 -31 174 -15 38 -23 87 -26 160 -5 111 -8 100 58 278 13 33 24 90 27
137 4 69 -1 101 -32 225 -36 140 -45 225 -31 269 4 12 2 21 -4 21 -6 0 -14
-12 -17 -26z"/>
<path d="M1480 7480 c0 -67 -16 -99 -96 -190 -70 -80 -92 -116 -125 -206 -30
-79 -22 -152 27 -274 35 -85 39 -104 39 -180 0 -47 -4 -95 -8 -107 -5 -14 -4
-23 1 -23 18 0 33 58 34 131 1 66 -3 85 -42 174 -37 87 -43 110 -44 175 -1
106 25 166 128 288 46 55 88 114 95 132 14 41 15 117 1 125 -6 4 -10 -14 -10
-45z"/>
<path d="M903 5900 c-13 -5 -23 -18 -23 -29 0 -16 10 -20 64 -25 34 -4 101
-20 146 -36 46 -16 87 -27 92 -24 34 21 -31 63 -153 99 -91 27 -94 28 -126 15z"/>
<path d="M6735 5820 c-3 -5 -15 -10 -26 -10 -10 0 -19 -3 -19 -7 0 -5 21 -46
45 -93 l45 -85 -26 -92 c-15 -51 -31 -93 -35 -93 -5 0 -9 -4 -9 -9 0 -7 99 3
104 11 1 2 15 50 31 107 23 83 38 116 72 159 39 50 51 72 39 72 -2 0 -21 -24
-42 -52 -21 -29 -39 -55 -42 -58 -5 -7 -38 38 -74 103 -31 55 -50 69 -63 47z
m50 -50 c14 -22 25 -42 25 -44 0 -3 11 -21 24 -41 l24 -36 -19 -67 c-11 -37
-23 -81 -26 -99 -4 -23 -12 -33 -30 -38 -14 -3 -28 -4 -30 -1 -3 3 5 46 17 96
l22 90 -41 79 c-38 73 -40 81 -24 90 27 16 31 14 58 -29z"/>
<path d="M845 5810 c-12 -19 17 -40 54 -40 75 0 241 -67 241 -97 0 -18 28 -16
47 2 19 20 7 35 -54 69 -101 57 -270 95 -288 66z"/>
<path d="M6600 5805 c0 -17 -71 -134 -81 -135 -4 0 -9 27 -13 60 -6 49 -10 60
-25 60 -37 0 -43 -23 -36 -137 4 -59 11 -117 15 -127 7 -19 8 -18 35 8 23 23
27 33 22 67 -3 21 -1 41 3 44 5 3 34 -21 64 -52 31 -32 56 -53 56 -48 0 6 -22
33 -50 60 -27 28 -49 55 -50 60 0 6 18 37 40 70 40 60 49 85 30 85 -5 0 -10
-7 -10 -15z"/>
<path d="M6280 5723 c-45 -24 -55 -33 -54 -53 2 -38 36 -194 44 -203 10 -12
106 38 114 58 10 26 7 63 -6 71 -8 5 -9 -2 -5 -25 5 -24 2 -36 -13 -51 -26
-26 -40 -25 -40 0 0 11 -9 53 -20 92 -11 40 -20 79 -20 86 0 7 17 20 37 28 34
15 38 15 51 -3 13 -17 14 -17 10 2 -5 30 -36 29 -98 -2z"/>
<path d="M845 5732 c-19 -13 -75 -215 -106 -377 -52 -274 -50 -420 16 -860 9
-55 20 -134 26 -175 18 -121 25 -138 67 -149 37 -11 109 -5 128 10 5 4 39 11
74 14 35 3 70 11 77 17 17 14 16 70 -2 160 -70 332 -64 750 15 1083 17 68 30
131 30 139 0 27 -53 74 -124 111 -57 29 -79 35 -130 35 -34 0 -66 -4 -71 -8z
m203 -43 c31 -17 70 -44 86 -59 l28 -28 -31 -131 c-29 -118 -51 -263 -65 -426
-3 -33 -5 -131 -6 -217 l0 -156 -37 -24 c-32 -19 -52 -23 -118 -23 -44 0 -96
4 -115 9 -34 8 -34 7 -17 -10 29 -31 186 -31 269 1 13 5 17 -1 21 -32 22 -153
42 -269 50 -274 4 -3 7 -28 5 -55 l-3 -49 -69 -7 c-38 -4 -73 -11 -79 -17 -12
-12 -105 -15 -131 -5 -9 3 -20 22 -25 43 -10 35 -47 286 -58 384 -2 26 -13
109 -23 185 -19 145 -19 309 0 430 34 220 99 466 129 490 26 22 122 7 189 -29z"/>
<path d="M5995 5331 c-16 -4 -39 -12 -50 -19 -21 -10 -145 -185 -145 -203 0
-5 8 -9 18 -9 9 0 32 23 52 53 l35 52 3 -45 c5 -63 -28 -311 -42 -314 -49 -13
-71 -23 -71 -34 0 -9 36 -13 145 -13 80 0 151 0 158 0 23 2 12 26 -24 51 l-35
25 6 90 c3 50 13 144 22 210 22 170 23 160 -12 162 -16 1 -43 -2 -60 -6z m38
-83 c-3 -18 -7 -40 -10 -48 -3 -8 -7 -28 -8 -45 -2 -16 -10 -84 -19 -149 -11
-86 -13 -123 -5 -132 17 -21 3 -30 -36 -26 -37 4 -37 5 -32 46 2 22 12 118 22
213 17 155 20 172 39 181 33 15 53 -2 49 -40z"/>
<path d="M6157 5323 c-9 -8 -8 -96 1 -148 5 -25 13 -40 22 -40 12 0 14 14 11
73 l-3 73 38 -16 c22 -10 67 -24 101 -32 39 -9 63 -20 65 -30 2 -8 2 -48 0
-89 l-4 -73 -33 -7 c-47 -8 -52 -30 -12 -54 17 -11 36 -21 41 -23 9 -3 -9
-241 -20 -258 -9 -15 -55 -10 -99 12 -62 31 -75 57 -93 194 -5 37 -12 51 -25
53 -17 3 -18 -3 -12 -75 12 -149 81 -230 201 -235 38 -2 59 4 88 21 56 35 76
86 76 194 l0 88 -33 14 c-19 8 -39 20 -46 28 -10 12 -2 17 46 29 l58 14 3 129
c3 145 -4 165 -44 122 -19 -21 -34 -27 -67 -27 -50 0 -124 19 -191 48 -53 24
-59 25 -69 15z"/>
<path d="M5783 3958 c-23 -25 -83 -186 -83 -224 0 -24 52 -80 84 -90 12 -4 44
-21 71 -38 28 -18 91 -54 140 -80 50 -27 110 -63 135 -80 60 -42 73 -47 107
-34 25 9 38 5 114 -36 48 -26 91 -56 97 -69 9 -19 11 -20 11 -3 1 15 4 16 16
6 22 -19 19 -28 -35 -110 -86 -128 -107 -155 -178 -221 -101 -94 -254 -178
-327 -179 -19 0 -25 -3 -17 -8 9 -6 0 -14 -28 -25 -38 -14 -40 -14 -40 2 0 26
21 41 173 116 188 93 256 155 374 343 34 55 43 76 34 85 -8 8 -11 6 -11 -7 0
-42 -136 -225 -225 -304 -26 -23 -103 -69 -173 -103 -177 -86 -178 -87 -185
-155 -9 -89 26 -136 110 -150 57 -9 106 8 218 75 152 91 325 269 423 436 62
106 53 98 102 85 27 -7 45 -8 49 -2 3 6 17 12 31 13 21 3 26 10 28 41 3 33 -3
44 -42 85 -42 46 -44 52 -44 104 0 31 -5 72 -11 92 -21 64 -81 87 -121 47 -11
-11 -29 -20 -40 -20 -21 0 -60 -33 -60 -50 0 -5 -6 -10 -14 -10 -16 0 -113 53
-183 101 -55 37 -270 254 -314 316 -29 41 -55 55 -129 68 -29 5 -39 2 -57 -17z
m102 -60 c61 -81 209 -222 289 -275 39 -26 122 -72 184 -102 92 -45 111 -58
106 -73 -3 -10 -1 -18 4 -18 6 0 12 6 14 12 6 17 58 -6 58 -24 0 -23 -33 -98
-43 -98 -6 0 -54 27 -108 60 -100 62 -125 69 -159 48 -23 -15 -2 -26 -227 118
-87 56 -186 116 -220 134 -53 28 -63 37 -63 59 0 47 66 194 92 204 26 11 34 6
73 -45z m772 -333 c26 -18 43 -72 43 -136 0 -146 -144 -392 -350 -596 -82 -82
-126 -117 -203 -160 -106 -60 -158 -75 -214 -62 -48 10 -71 36 -75 84 l-3 40
65 32 c36 18 71 33 78 33 27 0 168 80 232 131 36 29 81 72 100 96 19 25 50 63
68 85 44 55 112 171 134 233 10 28 21 57 25 65 3 8 7 29 9 47 11 109 41 143
91 108z"/>
<path d="M5057 2933 l-26 -88 -66 -19 c-69 -20 -84 -31 -66 -49 8 -8 11 -8 11
0 0 12 98 49 106 40 14 -14 -87 -229 -121 -257 -23 -19 -20 20 6 74 24 48 20
92 -6 65 -7 -8 -20 -36 -28 -64 -11 -38 -19 -51 -35 -53 -12 -2 -22 -10 -22
-19 0 -11 6 -14 22 -10 14 4 26 0 34 -11 10 -13 17 -15 31 -6 23 14 78 103
100 163 20 57 38 78 29 36 -3 -16 -9 -60 -12 -97 -6 -59 -5 -68 11 -74 13 -5
25 1 41 19 19 22 24 24 34 12 7 -8 18 -15 26 -15 19 0 70 47 61 56 -4 4 -17
-2 -30 -14 -13 -12 -29 -22 -35 -22 -14 0 -22 33 -19 80 3 52 -17 52 -24 0 -6
-49 -27 -100 -41 -100 -12 0 -9 53 11 159 l17 94 39 14 c22 8 49 15 60 16 27
3 62 24 53 32 -3 4 -37 -3 -74 -14 -37 -11 -69 -19 -70 -18 -2 1 4 36 12 77
17 89 16 80 6 80 -5 0 -20 -39 -35 -87z"/>
<path d="M2250 2993 c-89 -9 -188 -23 -222 -33 -37 -11 -58 -44 -58 -95 0 -19
-7 -23 -44 -27 -137 -16 -197 -200 -99 -308 l22 -25 -26 -53 c-29 -60 -44
-169 -32 -242 4 -25 8 -111 8 -192 1 -81 6 -181 12 -223 10 -66 15 -79 46
-105 32 -29 37 -30 131 -30 53 0 160 7 237 15 77 8 167 15 200 15 161 0 215
68 215 269 0 52 5 89 16 110 13 27 16 55 12 144 -4 96 -8 120 -32 170 -32 67
-107 145 -181 187 -29 17 -58 37 -65 44 -19 24 -40 116 -40 179 0 36 -4 56
-10 52 -20 -13 -4 -168 24 -235 4 -8 38 -33 77 -55 39 -21 88 -58 109 -81 45
-49 95 -143 83 -155 -18 -17 -287 -40 -310 -26 -6 4 -14 3 -18 -3 -8 -12 -357
-13 -430 0 -27 4 -51 7 -53 5 -2 -2 20 -49 48 -105 l52 -101 -23 -57 c-33 -85
-58 -132 -69 -132 -6 0 -10 53 -11 133 -1 72 -4 159 -8 192 -9 87 2 163 34
227 l28 57 -31 35 c-58 66 -62 155 -11 220 36 45 72 57 162 54 172 -5 325 17
375 55 15 12 15 67 -1 88 -15 20 -51 40 -69 37 -7 0 -29 -3 -48 -5z m90 -33
c27 -27 26 -66 -2 -82 -13 -6 -51 -17 -86 -24 -50 -9 -64 -9 -68 0 -4 10 -18
8 -57 -5 -103 -36 -146 -20 -130 48 8 35 11 37 68 50 58 13 171 29 228 32 15
0 36 -8 47 -19z m226 -742 c-56 -97 -69 -118 -78 -118 -19 0 -151 153 -141
164 3 3 36 6 72 7 36 0 86 4 111 8 83 15 82 17 36 -61z m84 -27 c0 -65 -5
-111 -15 -134 -8 -20 -15 -50 -15 -67 0 -16 -4 -30 -8 -30 -8 0 -56 49 -96 98
-17 20 -18 24 -4 40 9 9 39 56 67 105 29 48 56 87 61 87 6 0 10 -42 10 -99z
m-370 66 c0 -4 -90 -180 -94 -184 -1 -1 -37 40 -79 92 l-78 95 126 0 c69 0
125 -1 125 -3z m-185 -107 c41 -52 75 -102 75 -110 0 -8 -18 -48 -40 -87 -38
-69 -43 -73 -76 -73 -27 0 -36 5 -43 23 -5 12 -22 58 -39 101 l-31 79 29 70
c17 38 30 76 30 84 0 26 18 10 95 -87z m291 23 c39 -43 73 -83 77 -90 9 -14
-32 -100 -70 -150 -18 -26 -31 -33 -57 -33 -27 0 -38 7 -67 47 -73 101 -71 95
-43 160 31 70 73 143 83 143 4 0 39 -35 77 -77z m230 -305 c-16 -118 -64 -157
-191 -158 -38 0 -133 -7 -210 -15 -77 -8 -181 -15 -231 -15 -87 0 -94 2 -122
28 -25 23 -30 38 -36 95 -4 38 -6 70 -4 72 2 2 41 -1 86 -7 60 -8 136 -8 270
1 147 9 188 8 194 -2 6 -9 10 -9 18 3 8 14 144 45 209 49 23 1 23 -1 17 -51z"/>
<path d="M4810 2900 c-49 -29 -146 -136 -176 -192 -36 -71 -14 -58 40 22 25
39 51 70 57 70 8 0 10 -36 6 -127 -3 -71 -7 -132 -9 -138 -1 -5 2 -12 7 -15 6
-3 11 15 13 44 3 40 14 64 68 144 35 53 69 114 75 136 19 69 -17 94 -81 56z
m70 -20 c0 -32 -24 -82 -74 -155 l-46 -67 -1 76 c-1 42 -2 81 -3 88 -1 17 81
78 105 78 12 0 19 -7 19 -20z"/>
<path d="M1942 2734 c-42 -33 -62 -73 -62 -122 0 -35 22 -72 43 -72 3 0 25 24
47 54 31 41 42 66 47 105 4 33 2 51 -5 51 -6 0 -16 2 -24 5 -7 3 -28 -7 -46
-21z"/>
<path d="M5076 2453 c-9 -21 -21 -46 -27 -56 -5 -10 -15 -54 -21 -98 l-11 -81
-19 37 c-16 30 -17 42 -9 67 14 39 14 125 1 133 -12 7 -49 -19 -74 -53 -31
-40 -8 -37 28 4 29 32 35 36 41 22 4 -9 1 -42 -5 -72 -9 -46 -16 -57 -36 -62
-31 -8 -54 -40 -54 -76 0 -41 33 -37 61 8 l22 37 16 -31 c9 -17 19 -30 22 -29
3 1 14 -5 24 -13 15 -13 19 -12 36 9 39 47 82 249 59 276 -20 24 -37 18 -54
-22z"/>
<path d="M5315 2349 c-31 -16 -88 -99 -108 -158 -21 -61 -16 -121 14 -170 16
-27 24 -31 57 -30 21 1 47 11 61 23 28 25 75 115 91 175 29 110 -35 200 -115
160z m75 -27 c54 -44 25 -187 -55 -269 -24 -24 -52 -43 -64 -43 -43 0 -72 92
-52 166 10 38 77 139 104 156 20 13 43 9 67 -10z"/>
<path d="M4294 1888 c-11 -18 -7 -239 5 -271 13 -33 21 -34 80 -2 81 45 112
116 78 180 -25 45 -39 60 -77 84 -39 23 -75 27 -86 9z m74 -48 c43 -26 74 -78
66 -110 -7 -30 -39 -67 -76 -86 l-28 -15 -1 83 c-1 46 -3 98 -5 116 -3 38 0
38 44 12z"/>
<path d="M4073 1755 c-3 -10 16 -41 53 -83 69 -79 116 -137 167 -210 l38 -53
-98 -116 c-54 -63 -109 -129 -122 -147 -13 -17 -49 -57 -80 -88 -44 -47 -53
-60 -43 -70 10 -10 27 2 85 62 40 42 95 103 122 137 122 148 150 182 155 182
3 0 61 -66 130 -145 147 -170 212 -234 239 -234 30 0 35 17 9 31 -22 11 -92
79 -153 150 -16 19 -67 76 -112 127 -46 51 -83 97 -83 104 0 6 39 56 88 112
129 149 172 202 172 215 0 23 -37 10 -60 -21 -13 -18 -69 -86 -124 -151 -100
-117 -101 -118 -116 -95 -55 83 -227 293 -248 302 -7 3 -15 -1 -19 -9z"/>
<path d="M4170 1493 c-54 -9 -140 -46 -140 -60 0 -10 12 -13 48 -11 l47 3 -1
-50 c0 -27 -2 -65 -5 -84 -5 -42 17 -54 31 -16 5 14 10 59 10 99 l0 72 37 10
c23 5 39 16 41 27 4 18 -11 20 -68 10z"/>
<path d="M4355 1195 c-77 -13 -85 -19 -85 -63 0 -27 -7 -41 -27 -57 -28 -23
-24 -50 6 -40 16 5 18 0 13 -45 -4 -42 -2 -50 12 -50 20 0 24 10 29 69 3 41 7
46 38 56 45 16 46 41 1 37 -30 -2 -33 0 -30 20 2 19 14 26 66 38 34 8 62 20
62 26 0 18 -20 21 -85 9z"/>
</g>
</svg>
