<?xml version="1.0" standalone="no"?>
<!DOCTYPE svg PUBLIC "-//W3C//DTD SVG 20010904//EN"
 "http://www.w3.org/TR/2001/REC-SVG-20010904/DTD/svg10.dtd">
<svg version="1.0" xmlns="http://www.w3.org/2000/svg"
 width="828.000000pt" height="994.000000pt" viewBox="0 0 828.000000 994.000000"
 preserveAspectRatio="xMidYMid meet">
<metadata>
Created by potrace 1.16, written by Peter Selinger 2001-2019
</metadata>
<g transform="translate(0.000000,994.000000) scale(0.100000,-0.100000)"
fill="#000000" stroke="none">
<path d="M2 9900 c-1 -30 2 -38 12 -34 8 3 17 1 21 -5 3 -7 -2 -11 -14 -11
-22 0 -26 -8 -13 -25 9 -12 48 -35 61 -35 17 0 23 40 9 57 -11 14 -11 15 2 11
21 -7 40 16 33 41 -3 12 -1 21 6 21 14 0 14 -45 1 -70 -8 -15 -5 -21 21 -34
36 -18 55 -13 63 17 7 30 33 64 41 55 4 -4 4 -12 -1 -19 -4 -7 -8 -25 -8 -41
-1 -23 2 -27 19 -21 11 4 28 7 37 7 9 0 15 2 13 4 -2 3 5 16 15 30 28 35 25
45 -8 28 -27 -14 -29 -14 -41 17 -8 18 -13 35 -13 38 0 3 -17 6 -39 7 -26 2
-39 -1 -39 -10 0 -9 -3 -9 -12 0 -7 7 -42 12 -88 12 l-77 0 -1 -40z"/>
<path d="M419 9928 c-14 -9 -15 -16 -6 -35 11 -25 45 -31 65 -11 9 9 12 9 12
0 0 -7 -5 -12 -10 -12 -12 0 6 -41 23 -51 14 -10 46 22 40 39 -4 10 -1 13 8
10 20 -7 24 -47 5 -54 -20 -8 -21 -24 -1 -24 9 0 19 8 22 18 10 26 31 44 38
32 3 -5 3 -10 -2 -11 -4 0 1 -4 12 -8 23 -9 57 -3 50 9 -3 4 2 10 10 14 19 7
19 35 0 60 -8 10 -12 23 -9 27 3 5 -2 9 -10 9 -9 0 -16 -4 -16 -10 0 -5 -5
-10 -11 -10 -5 0 -7 5 -4 11 9 14 -135 10 -152 -4 -9 -6 -13 -6 -13 2 0 14
-30 13 -51 -1z"/>
<path d="M991 9925 c25 -14 44 -41 41 -57 -1 -5 5 -8 13 -8 9 0 15 -9 15 -21
0 -15 5 -19 16 -15 12 4 14 1 9 -14 -4 -14 -1 -22 12 -27 10 -3 24 -11 31 -17
8 -5 23 -11 33 -13 26 -4 25 27 -1 34 -21 6 -28 23 -9 23 5 0 7 5 4 10 -3 6
-1 10 4 10 6 0 11 -4 11 -10 0 -5 7 -10 15 -10 8 0 15 5 15 10 0 6 9 19 20 30
l20 20 -20 0 c-11 0 -20 -5 -20 -12 0 -6 -3 -8 -6 -5 -4 4 -1 13 5 21 10 12 9
14 -8 9 -15 -4 -21 -1 -21 12 0 35 -25 45 -117 45 -82 -1 -86 -2 -62 -15z"/>
<path d="M1607 9906 c4 -25 1 -40 -11 -51 -9 -9 -16 -22 -15 -28 0 -8 2 -7 6
1 3 9 10 4 19 -13 17 -34 17 -32 -2 -39 -13 -5 -15 -2 -11 14 3 11 1 18 -4 14
-5 -3 -20 7 -34 22 -14 15 -28 24 -32 21 -3 -4 2 -16 12 -27 10 -11 13 -20 7
-20 -6 0 -12 5 -14 11 -3 9 -9 9 -25 1 -11 -6 -23 -8 -27 -5 -13 14 -52 10
-66 -7 -8 -9 -21 -15 -27 -13 -8 3 -13 -4 -13 -17 0 -17 -3 -19 -19 -10 -30
16 -37 13 -60 -25 -11 -19 -15 -35 -10 -35 6 0 9 -7 5 -15 -3 -8 1 -21 9 -29
21 -20 19 -26 -9 -26 -34 0 -40 -14 -16 -35 11 -10 20 -14 20 -10 0 5 9 -1 19
-12 17 -18 37 -21 146 -28 69 -4 129 -4 132 -1 4 3 -1 6 -9 6 -19 0 -59 72
-50 87 11 16 82 21 82 6 0 -7 6 -13 14 -13 7 0 19 -7 26 -15 18 -21 29 -19 42
10 6 13 14 22 18 20 4 -3 10 10 14 28 5 23 9 28 15 18 5 -7 11 -9 14 -4 4 6
-5 15 -18 21 -26 12 -32 27 -15 37 6 4 8 10 5 15 -6 9 17 35 37 43 9 4 4 13
-15 27 -15 12 -25 26 -21 31 3 5 -4 9 -15 9 -29 0 -26 14 4 28 21 10 27 9 31
-2 3 -8 12 -12 20 -9 17 6 19 -8 2 -25 -8 -8 -5 -14 15 -23 16 -7 28 -23 32
-40 4 -16 11 -27 16 -23 5 3 7 14 4 25 -8 25 3 24 24 -3 l18 -21 7 26 c6 25
26 39 26 18 0 -5 12 -12 27 -16 21 -5 24 -8 12 -16 -7 -5 -12 -9 -9 -10 3 0
13 -2 23 -4 14 -3 17 4 17 32 0 22 -7 41 -17 50 -17 13 -17 14 0 5 22 -11 69
-4 61 9 -3 5 0 9 5 9 6 0 11 -9 11 -19 0 -11 4 -23 10 -26 6 -4 7 1 4 12 -5
13 -2 12 10 -5 10 -12 15 -30 11 -41 -7 -24 4 -51 21 -51 8 0 14 -8 14 -17 0
-10 4 -14 8 -8 10 14 82 18 82 5 0 -9 -29 -15 -52 -11 -5 0 -8 -9 -8 -21 0
-15 3 -19 8 -11 4 7 24 11 47 9 39 -2 40 -4 38 -37 -1 -19 1 -27 4 -19 3 8 14
22 25 31 25 22 23 29 -8 29 -16 0 -24 5 -21 13 2 6 20 12 39 12 20 0 40 4 45
9 4 5 -2 5 -14 2 -29 -9 -31 9 -3 24 23 13 27 40 5 40 -8 0 -15 -4 -15 -10 0
-5 -19 -9 -42 -9 -27 1 -34 3 -19 6 27 5 65 36 40 33 -8 -1 -23 -2 -33 -1 -20
1 -20 1 0 15 13 10 23 11 31 4 10 -8 13 -6 13 6 0 9 -6 16 -14 16 -18 0 -28
27 -14 36 7 4 14 2 16 -4 2 -7 10 -12 18 -12 8 0 11 6 7 16 -5 13 -2 15 15 9
16 -4 22 -2 22 8 0 28 -64 38 -74 12 -3 -8 -16 -15 -28 -14 l-23 0 23 9 c12 5
22 12 22 14 0 11 -105 3 -112 -8 -6 -8 -8 -7 -8 2 0 8 -16 12 -44 12 -26 0
-46 -5 -49 -12 -4 -10 -6 -10 -6 0 -1 9 -51 12 -215 12 l-215 0 6 -34z"/>
<path d="M4032 9910 c-9 -16 -21 -30 -25 -30 -5 0 -5 -5 -2 -10 3 -6 -5 -14
-19 -20 -30 -11 -34 -35 -8 -49 13 -8 14 -12 5 -22 -10 -10 -16 -9 -31 4 -23
21 -45 24 -104 14 -37 -6 -53 -5 -70 7 -38 27 -83 20 -108 -14 -20 -28 -17
-36 13 -31 4 0 7 -6 7 -14 0 -8 9 -23 19 -32 11 -9 17 -22 14 -29 -3 -8 0 -14
6 -14 6 0 11 -7 11 -16 0 -13 -7 -15 -29 -11 -27 6 -28 5 -17 -18 7 -16 13
-20 18 -12 5 8 8 7 8 -3 0 -9 -5 -21 -12 -28 -9 -9 -9 -12 0 -12 16 0 61 -50
62 -68 0 -7 -5 -10 -12 -6 -6 4 -18 -2 -26 -12 -10 -13 -16 -15 -19 -6 -6 16
-42 15 -73 -3 -23 -13 -23 -14 -5 -16 11 -1 26 -2 33 -2 6 1 12 -3 12 -7 0 -5
-6 -11 -12 -13 -7 -3 28 -6 77 -7 50 -1 133 -3 187 -6 99 -5 121 2 93 29 -17
18 -19 27 -5 27 5 0 16 -13 25 -30 l16 -30 107 0 c73 0 102 3 92 10 -13 8 -12
10 3 10 9 0 17 -4 17 -10 0 -6 26 -10 58 -10 54 0 59 2 57 22 -2 26 -61 98
-81 98 -8 0 -14 5 -14 10 0 6 9 10 21 10 11 0 18 4 15 8 -6 10 11 13 72 15 25
1 46 -4 51 -11 5 -8 19 -10 39 -6 24 5 37 16 48 40 9 18 24 36 33 39 24 7 72
-19 87 -47 10 -19 21 -23 58 -23 25 0 46 3 46 8 0 4 3 6 8 6 31 -5 49 4 59 30
12 33 8 41 -19 41 -13 0 -20 10 -24 30 -4 17 -10 30 -15 30 -12 0 -11 38 1 42
6 2 6 15 2 33 -7 23 -10 26 -15 12 -3 -9 -11 -17 -17 -17 -14 0 -12 37 3 43 7
2 8 8 3 13 -5 5 -11 4 -13 -3 -3 -7 -11 -13 -19 -13 -11 0 -12 4 -5 19 8 14 6
23 -9 36 -14 13 -17 22 -10 30 8 9 6 14 -5 19 -10 3 -15 -1 -16 -12 0 -10 -3
-12 -6 -4 -2 6 -17 12 -32 12 -15 0 -33 -6 -40 -12 -11 -11 -13 -10 -8 5 6 16
-11 17 -269 17 l-275 0 -17 -30z m-72 -243 c0 -8 20 -22 44 -32 39 -16 44 -21
34 -38 -7 -14 -7 -27 1 -43 8 -18 8 -24 -1 -24 -6 0 -4 -8 6 -19 20 -21 4 -40
-18 -22 -9 8 -19 5 -35 -10 l-23 -21 -31 28 c-18 16 -33 32 -35 35 -6 13 -42
-4 -42 -20 -1 -9 -7 -1 -15 17 -10 23 -11 40 -5 57 6 15 6 27 0 30 -17 10 -11
25 9 25 11 0 21 6 24 13 2 6 8 8 13 4 5 -5 0 -15 -11 -24 -19 -15 -19 -15 5
-8 14 4 27 12 28 16 2 5 11 9 20 10 10 0 12 3 5 5 -16 7 -5 34 13 34 8 0 14
-6 14 -13z"/>
<path d="M5640 9930 c0 -5 -13 -10 -29 -10 -32 0 -51 -18 -31 -30 12 -7 -21
-20 -62 -25 -25 -2 -34 -13 -21 -26 6 -6 19 -6 38 1 20 7 31 8 39 0 10 -10 -5
-14 -41 -13 -7 1 -13 -5 -13 -13 0 -17 22 -18 39 -1 10 10 11 8 5 -7 -5 -14
-4 -17 5 -12 7 5 20 1 31 -9 12 -11 26 -14 39 -10 15 5 21 2 21 -10 0 -12 -5
-15 -22 -10 -17 6 -20 4 -14 -11 4 -9 2 -20 -4 -24 -7 -4 -8 -18 -4 -34 5 -21
14 -27 46 -32 22 -4 45 -13 53 -20 19 -19 22 -18 38 15 13 27 13 31 -2 45 -10
9 -26 13 -39 9 -23 -6 -29 6 -11 24 7 7 3 9 -15 6 -30 -6 -30 -4 -14 34 7 15
12 42 13 58 0 25 4 30 23 28 20 -3 22 0 16 25 -4 15 -16 35 -28 44 -23 19 -56
24 -56 8z"/>
<path d="M7160 9930 c0 -5 6 -11 13 -12 6 0 17 -2 22 -2 16 -2 44 -20 44 -28
1 -5 1 -12 1 -16 0 -15 79 -53 102 -50 14 2 25 13 29 28 5 21 7 22 14 8 4 -9
4 -22 0 -28 -3 -5 -1 -10 4 -10 6 0 11 5 11 10 0 20 19 10 22 -12 2 -12 9 -23
16 -26 10 -3 13 6 11 38 -2 29 1 46 12 54 8 6 15 21 16 34 2 22 1 22 -158 22
-99 0 -159 -4 -159 -10z"/>
<path d="M6252 9888 c-13 -13 -72 -19 -72 -7 0 5 -7 9 -15 9 -21 0 -19 -27 4
-40 11 -5 40 -8 66 -7 41 2 50 -1 71 -26 13 -16 24 -37 24 -47 0 -18 3 -18 33
-5 17 7 32 19 32 26 0 6 9 15 20 20 30 11 35 11 35 -7 0 -8 5 -12 10 -9 17 11
11 37 -10 42 -22 6 -26 23 -8 41 18 18 -18 27 -50 12 -43 -21 -112 -29 -112
-14 0 18 -15 25 -28 12z"/>
<path d="M5272 9863 c-8 -18 -9 -30 -2 -37 14 -14 12 -42 -4 -56 -13 -10 -8
-19 30 -56 24 -25 44 -49 44 -55 0 -14 50 -79 61 -79 4 0 19 -11 33 -25 16
-16 36 -25 56 -25 40 0 39 20 -3 62 -21 21 -32 42 -31 58 2 30 -22 60 -48 60
-10 0 -33 7 -49 16 -29 14 -30 18 -24 57 4 23 14 48 23 55 24 19 3 46 -39 50
-29 2 -36 -2 -47 -25z"/>
<path d="M3094 9736 c-6 -7 -15 -22 -18 -33 -6 -18 -2 -22 23 -28 16 -3 32
-13 35 -21 6 -17 -17 -29 -38 -21 -8 3 -17 -1 -20 -9 -11 -28 -7 -35 13 -24
26 14 38 13 44 -3 4 -10 -2 -13 -19 -9 -14 2 -24 0 -24 -7 0 -6 10 -11 22 -11
21 0 21 0 3 -14 -11 -8 -23 -12 -27 -10 -5 3 -8 1 -8 -5 0 -5 5 -13 11 -16 12
-8 -47 -55 -68 -55 -7 0 -13 -4 -13 -10 0 -6 44 -10 111 -10 l111 0 -6 24 c-4
16 0 29 13 41 22 19 18 41 -9 50 -11 3 -17 12 -14 20 3 7 1 16 -5 20 -6 3 -14
-1 -17 -9 -3 -9 -10 -13 -16 -10 -5 3 -2 14 8 25 23 26 3 74 -37 88 -19 7 -29
17 -29 30 0 24 -10 26 -26 7z"/>
<path d="M7835 9719 c-5 -15 -2 -25 9 -31 9 -5 14 -13 11 -19 -4 -5 -1 -9 5
-9 7 0 10 -7 6 -15 -3 -8 -1 -15 4 -15 6 0 10 7 10 15 0 16 27 20 46 7 15 -10
25 -42 14 -42 -6 0 -10 7 -10 15 0 8 -4 15 -9 15 -14 0 -32 -26 -23 -35 4 -5
-1 -5 -11 -2 -10 4 -23 7 -28 7 -5 0 -9 9 -9 20 0 11 -5 20 -10 20 -6 0 -15
11 -20 25 -11 28 -50 35 -50 9 0 -8 5 -12 10 -9 6 3 10 1 10 -4 0 -15 37 -51
45 -43 3 4 3 -1 -1 -11 -7 -19 -24 -13 -24 8 0 21 -38 29 -55 11 -14 -13 -13
-16 5 -29 17 -12 18 -16 6 -20 -14 -6 -16 -30 -3 -43 11 -12 8 -42 -5 -47 -8
-4 -7 -6 3 -6 20 -1 32 25 24 50 -5 14 -2 17 9 13 9 -3 16 -11 16 -16 0 -6 8
-17 18 -24 16 -12 15 -13 -6 -9 -15 3 -27 -3 -35 -16 -14 -23 -50 -25 -67 -4
-9 11 -16 12 -26 5 -7 -6 -18 -10 -26 -9 -28 3 -36 -2 -40 -26 -6 -29 3 -37
44 -42 20 -2 28 2 28 13 0 12 3 14 13 6 7 -6 27 -10 45 -10 21 1 38 -6 47 -18
14 -18 15 -18 21 4 8 29 22 28 30 -2 5 -21 10 -23 28 -17 12 5 34 7 49 6 22
-3 28 2 33 21 7 26 19 31 27 12 4 -8 8 -4 12 10 4 12 14 22 21 22 8 0 14 5 14
10 0 6 -6 10 -13 10 -8 0 -22 9 -31 19 -10 11 -25 17 -33 14 -13 -5 -15 -1 -9
21 5 21 2 32 -11 42 -16 12 -16 12 6 7 15 -4 22 -2 18 4 -3 5 1 29 9 52 11 31
12 47 4 56 -11 13 -34 14 -45 3 -11 -11 -56 5 -66 23 -13 25 -26 24 -34 -2z"/>
<path d="M2300 9576 c0 -35 4 -45 20 -49 11 -3 20 -10 20 -16 0 -7 -8 -7 -25
-1 -14 5 -31 7 -39 4 -7 -3 -16 1 -19 10 -3 8 1 17 9 20 9 3 12 10 9 16 -4 6
-12 7 -18 3 -18 -11 -50 -3 -64 15 -7 10 -13 12 -13 7 0 -6 6 -17 12 -23 10
-10 10 -14 0 -21 -9 -6 -9 -10 1 -23 17 -22 185 -35 193 -15 3 9 14 12 30 9
14 -2 24 0 24 7 0 6 -12 11 -27 11 -16 0 -35 5 -43 10 -11 7 -3 10 28 10 36 0
43 3 40 18 -4 23 -55 28 -77 8 -20 -18 -36 -10 -20 10 14 17 3 34 -22 34 -16
0 -19 -7 -19 -44z"/>
<path d="M6566 9512 c0 -41 11 -72 25 -72 5 0 9 9 9 20 0 13 -5 18 -15 14 -17
-7 -21 21 -5 31 12 7 51 -26 43 -38 -3 -5 4 -4 16 2 18 10 21 9 21 -9 0 -18 6
-20 60 -20 47 0 60 3 60 15 0 9 -6 18 -14 21 -8 3 -17 16 -20 29 -8 30 -51 45
-105 35 -23 -4 -44 -3 -47 1 -13 22 -29 6 -28 -29z"/>
<path d="M2 9403 l3 -107 31 -6 c134 -28 141 -163 9 -177 l-46 -6 3 -116 3
-116 65 -7 c36 -4 75 -13 88 -19 20 -11 31 -8 88 22 92 48 139 91 171 157 24
49 28 69 28 147 0 76 -4 97 -24 138 -31 59 -95 113 -158 133 -27 8 -62 19 -80
25 -18 5 -51 12 -73 15 -23 3 -52 9 -66 14 -14 6 -30 10 -35 10 -6 0 -9 -43
-7 -107z"/>
<path d="M980 9390 c-17 -17 -20 -34 -20 -112 -1 -130 -8 -320 -21 -548 -8
-138 -8 -203 0 -222 10 -28 11 -28 108 -30 125 -2 145 0 161 16 9 9 15 53 18
136 2 68 8 128 13 133 5 5 63 9 129 8 100 -2 128 2 178 20 106 39 170 128 180
251 5 63 3 82 -20 143 -29 76 -49 102 -111 145 -59 41 -147 58 -360 70 -244
13 -232 13 -255 -10z m388 -222 c41 -12 61 -51 51 -96 -4 -19 -11 -38 -17 -44
-12 -12 -77 -27 -119 -28 -41 0 -52 20 -52 95 2 93 27 107 137 73z"/>
<path d="M661 9386 c-6 -7 -8 -26 -5 -44 5 -26 1 -38 -24 -66 -54 -62 -81
-118 -87 -182 -6 -68 3 -102 43 -154 24 -31 27 -44 27 -112 0 -71 -1 -75 -19
-66 -31 17 -75 0 -129 -48 -39 -34 -56 -44 -71 -39 -49 16 -286 54 -338 55
-57 0 -58 -1 -58 -28 l0 -28 85 4 c47 2 109 -2 138 -8 85 -20 283 -87 336
-114 46 -24 73 -46 54 -46 -4 0 -8 -75 -9 -168 0 -92 -5 -311 -9 -487 -4 -176
-8 -347 -9 -380 -1 -82 -9 -87 -122 -80 -142 9 -251 -22 -272 -77 -14 -38 -7
-51 24 -45 13 2 24 1 24 -4 0 -14 -43 -32 -85 -36 -46 -3 -112 -30 -137 -55
-10 -10 -18 -31 -18 -48 l0 -30 40 44 c58 63 85 72 179 58 94 -15 196 -64 228
-112 45 -66 19 -150 -41 -134 -26 6 -37 -8 -15 -21 6 -5 4 -16 -7 -33 -10 -15
-25 -54 -34 -86 -14 -55 -18 -61 -49 -69 -83 -21 -227 34 -279 106 l-22 32 0
-58 c0 -38 4 -59 13 -61 103 -28 242 -56 278 -56 45 0 48 -2 78 -49 17 -26 40
-56 51 -66 34 -31 30 -36 -68 -101 -55 -36 -69 -42 -241 -102 -90 -31 -124
-52 -109 -67 2 -2 36 7 74 20 69 24 73 24 155 10 168 -28 168 -28 144 -74 -39
-77 -10 -104 113 -102 56 1 72 -1 66 -11 -4 -6 -8 -45 -9 -86 l-2 -74 -59 -53
c-67 -61 -104 -74 -80 -27 40 79 30 105 -53 132 -39 13 -47 19 -49 43 -5 43
-54 69 -117 64 -27 -3 -69 0 -92 6 -31 8 -48 8 -67 -1 -30 -13 -38 -49 -9 -37
38 16 61 16 76 0 16 -15 15 -20 -9 -61 -19 -32 -23 -49 -16 -56 10 -10 18 0
76 96 16 25 22 28 58 23 22 -3 43 -8 46 -12 11 -11 6 -109 -8 -149 -9 -29 -16
-36 -38 -36 -35 0 -161 46 -184 67 -17 15 -18 15 -18 -3 0 -19 81 -61 190 -99
41 -15 182 -38 290 -49 25 -2 48 -5 51 -5 7 -1 5 -59 -11 -451 -12 -275 -38
-771 -45 -840 -2 -25 -7 -108 -11 -185 l-7 -140 -43 -38 c-23 -20 -67 -70 -97
-110 -30 -40 -62 -79 -71 -86 -9 -7 -16 -19 -16 -27 0 -7 -20 -42 -45 -77 -25
-36 -45 -68 -45 -71 0 -4 -30 -60 -67 -124 l-68 -117 0 -275 c1 -220 4 -289
17 -345 22 -92 21 -175 -3 -222 -17 -32 -19 -60 -19 -215 0 -170 1 -178 19
-178 11 0 22 -4 26 -9 7 -12 -29 -33 -39 -24 -3 4 -5 -427 -4 -958 l3 -964 55
-7 c43 -6 130 -15 180 -18 5 0 5 -55 0 -55 -1 0 -3 -13 -4 -30 -1 -16 -6 -38
-10 -48 -5 -11 -4 -17 3 -17 7 0 22 -21 33 -48 24 -54 33 -62 70 -62 34 0 45
16 16 23 l-21 6 7 293 c3 161 9 322 11 358 5 58 12 188 45 780 11 194 33 679
55 1186 9 198 18 394 20 435 2 41 7 146 10 234 3 88 10 230 15 315 9 149 15
279 25 535 3 66 7 149 10 185 2 36 9 180 15 320 5 140 12 287 14 325 3 39 10
213 17 388 10 257 10 320 0 326 -10 6 -9 10 3 14 13 5 16 22 16 89 -1 46 1
103 4 128 3 25 8 133 11 240 4 107 9 198 11 202 3 5 0 8 -7 8 -10 0 -10 3 -1
12 7 7 12 37 12 67 0 43 3 52 12 43 16 -16 28 -15 28 2 0 7 -10 16 -21 19 -20
5 -21 10 -15 104 22 321 63 1775 46 1628 -5 -50 -7 -14 -6 127 0 109 4 198 9
198 4 0 7 -57 7 -127 0 -69 2 -124 4 -122 2 2 6 59 8 127 3 103 2 125 -12 137
-11 10 -15 26 -12 50 4 31 6 34 21 23 12 -10 12 -8 -2 8 -15 18 -17 38 -16
120 1 55 5 119 9 144 6 31 8 1 8 -98 -1 -78 2 -145 6 -149 3 -3 6 50 6 118 0
68 3 142 7 163 5 34 4 38 -10 33 -14 -5 -17 0 -16 26 1 23 3 26 6 10 2 -13 9
-23 14 -23 5 0 8 37 7 83 -1 50 -3 65 -5 37 -7 -79 -23 -70 -25 16 -1 43 -1
89 0 102 1 26 -1 27 -17 8z m-124 -2034 c15 -9 11 -11 -20 -17 -48 -9 -50 -35
-3 -35 19 0 38 -5 42 -11 5 -8 -5 -10 -32 -6 -161 24 -194 28 -231 28 -65 -2
-51 25 26 50 33 11 194 4 218 -9z m-70 -93 l113 -21 0 -97 0 -97 -29 -11 c-28
-10 -31 -9 -46 24 -29 61 -98 117 -175 144 -39 13 -70 26 -70 30 0 15 44 39
89 48 2 1 55 -9 118 -20z m105 -333 l-4 -63 -46 4 c-41 3 -44 2 -29 -9 10 -7
26 -18 34 -24 12 -8 9 -14 -21 -35 -71 -48 -61 -106 22 -129 l39 -10 -7 -47
c-5 -32 -4 -50 4 -55 7 -5 4 -8 -7 -8 -21 0 -99 38 -110 54 -54 81 -77 156
-63 209 7 29 102 137 120 137 7 0 21 9 31 20 32 35 40 25 37 -44z m-48 -399
c27 -12 30 -18 33 -67 1 -34 -2 -57 -10 -63 -9 -7 -9 -10 1 -14 6 -2 12 -9 12
-15 0 -6 -27 -8 -72 -4 -40 3 -113 8 -163 12 -49 3 -91 7 -94 9 -2 3 11 12 28
22 17 10 73 43 124 74 50 31 97 57 102 57 6 1 23 -5 39 -11z m36 -208 c0 -5
-3 -9 -7 -9 -5 0 -8 -19 -8 -42 0 -41 -2 -43 -36 -52 -46 -11 -109 0 -109 19
0 8 7 33 16 55 l16 41 64 -2 c35 -1 64 -6 64 -10z m-116 -2355 c-2 -52 -3 -53
-129 -104 -33 -13 -71 -30 -85 -37 -57 -30 -61 -16 -14 60 24 40 54 79 66 85
40 21 102 40 133 41 29 1 30 0 29 -45z m-8 -136 c-1 -7 -5 -19 -9 -25 -5 -7
-6 -16 -4 -20 5 -8 -5 -188 -19 -363 -4 -47 -8 -110 -8 -140 -1 -30 -4 -60 -8
-65 -3 -6 -4 -27 -3 -47 2 -21 0 -38 -4 -38 -5 0 -8 -20 -9 -45 0 -26 4 -45
11 -45 5 0 8 -2 6 -5 -9 -8 -93 22 -149 53 l-55 30 -7 62 c-4 34 -12 68 -19
76 -7 8 -9 27 -5 45 4 21 0 41 -12 61 -13 23 -14 32 -4 35 6 3 12 9 12 15 0 7
-5 7 -13 -1 -8 -6 -17 -8 -20 -5 -12 12 -29 -81 -20 -106 10 -29 5 -130 -7
-130 -4 0 -25 7 -45 16 l-38 16 6 123 c6 131 15 158 103 320 15 28 30 57 34
65 4 8 41 27 82 41 42 14 92 36 112 48 20 13 49 27 64 31 15 5 28 9 29 9 1 1
0 -5 -1 -11z m-283 -786 c188 -98 211 -115 212 -155 l2 -34 -56 22 c-31 12
-81 36 -111 53 -30 18 -71 40 -91 51 -41 22 -101 121 -74 121 3 0 56 -26 118
-58z"/>
<path d="M2169 9351 c-42 -10 -106 -31 -142 -49 -35 -18 -68 -32 -72 -32 -15
0 -85 -62 -85 -76 0 -8 -13 -38 -30 -67 -83 -147 -74 -322 24 -469 68 -104
155 -167 285 -208 184 -59 365 -32 517 76 76 54 106 89 149 175 98 194 25 429
-175 563 -128 86 -317 121 -471 87z m278 -257 c131 -85 153 -259 46 -362 -72
-70 -145 -90 -236 -65 -67 18 -132 77 -154 140 -19 55 -16 144 6 196 22 51 96
116 144 126 66 14 139 1 194 -35z"/>
<path d="M2957 9290 c-18 -15 -19 -32 -21 -433 -1 -452 -3 -436 52 -437 12 0
22 -3 22 -6 0 -3 -31 -35 -69 -70 -39 -36 -78 -83 -89 -107 -68 -148 -65 -135
-70 -283 -5 -154 9 -294 36 -352 38 -83 224 -302 257 -302 4 0 31 -20 59 -44
56 -47 133 -89 252 -136 42 -17 102 -45 133 -62 146 -80 131 -66 131 -125 l0
-52 -37 2 c-31 2 -40 -2 -48 -20 -5 -13 -12 -23 -15 -23 -3 0 -39 13 -80 29
-41 16 -124 48 -185 71 -164 63 -267 75 -415 49 -75 -13 -131 -46 -172 -104
-68 -93 -90 -192 -63 -275 9 -28 14 -58 10 -68 -8 -22 -7 -27 5 -27 6 0 19
-18 29 -40 17 -38 135 -186 153 -193 5 -2 22 -15 38 -29 35 -29 32 -37 -32
-105 -86 -90 -87 -93 -84 -155 4 -65 20 -83 73 -83 18 0 33 -2 33 -4 0 -7 -31
-71 -63 -131 -28 -53 -35 -60 -59 -57 -31 3 -34 -4 -14 -33 12 -18 10 -28 -17
-85 -16 -36 -32 -59 -34 -52 -3 6 -9 12 -14 12 -4 0 -4 -12 2 -27 8 -20 5 -43
-12 -97 -11 -39 -24 -75 -28 -81 -4 -5 -14 -43 -21 -82 -7 -40 -17 -73 -22
-73 -5 0 -6 -4 -3 -10 3 -5 -1 -53 -10 -107 -25 -154 -34 -222 -41 -308 -3
-44 -7 -89 -8 -100 -1 -13 -8 -19 -19 -18 -13 1 -17 -4 -12 -15 4 -10 9 -33
12 -52 17 -136 84 -431 131 -575 11 -33 23 -76 26 -95 4 -19 11 -46 16 -60 6
-14 16 -54 24 -88 l15 -64 -27 7 c-58 14 -394 116 -427 129 -33 14 -34 17 -24
40 9 20 9 29 -1 41 -15 19 -30 19 -30 2 0 -8 -11 -19 -25 -25 -32 -15 -45 -15
-45 -2 0 6 6 10 13 10 16 0 119 77 131 97 11 20 -8 60 -33 68 -11 3 -29 1 -41
-5 -16 -9 -43 -3 -138 29 -214 72 -371 75 -454 10 -44 -35 -51 -35 -115 -8
-47 19 -52 25 -82 93 -18 40 -31 79 -29 87 2 9 -5 13 -19 12 -13 -2 -55 9 -95
23 -59 21 -86 38 -140 91 -59 56 -72 64 -100 61 -31 -3 -33 -5 -31 -38 3 -66
21 -215 28 -238 9 -27 -4 -24 -80 21 -60 35 -177 77 -217 77 -49 0 -62 -78
-24 -147 8 -16 22 -42 31 -60 8 -17 30 -44 49 -58 41 -32 166 -80 231 -89 25
-4 69 -14 97 -23 l51 -15 -49 -29 c-27 -16 -56 -29 -65 -29 -9 0 -63 -49 -120
-109 -137 -143 -148 -171 -159 -376 -13 -242 -3 -337 44 -421 15 -27 24 -50
19 -52 -42 -16 -80 -41 -96 -63 -28 -38 -45 -148 -40 -248 11 -195 0 -605 -17
-626 -5 -6 -8 -58 -7 -115 2 -58 0 -118 -5 -135 -4 -16 -9 -93 -12 -170 -3
-77 -10 -232 -16 -345 -27 -515 -28 -600 -11 -652 8 -28 24 -54 36 -60 18 -11
269 -13 285 -3 4 2 58 5 121 6 68 1 128 7 146 14 43 18 84 75 83 116 -1 19 3
131 8 249 5 118 5 227 1 242 -9 33 13 123 39 158 l19 25 189 0 c125 0 198 4
216 12 14 7 53 13 86 14 125 5 287 84 382 186 54 59 150 201 150 223 0 6 8 25
17 43 30 59 54 209 57 362 2 115 -8 183 -35 241 -10 22 -19 56 -19 75 0 25 -8
43 -25 59 -14 13 -28 39 -31 58 -4 19 -18 44 -32 56 -13 11 -39 43 -58 70 -25
38 -31 53 -23 67 7 14 3 24 -18 44 -15 14 -31 25 -35 25 -12 0 -19 -18 -8 -25
14 -9 13 -25 -3 -25 -14 0 -80 35 -117 62 l-24 18 36 37 c50 53 73 104 118
261 23 81 56 170 81 216 40 77 41 81 37 158 -4 66 -2 78 11 78 9 0 79 -22 156
-48 133 -46 141 -50 151 -81 10 -32 11 -32 25 -11 14 22 15 22 74 5 64 -18 89
-36 99 -72 6 -17 -1 -27 -36 -51 -24 -16 -70 -43 -103 -60 -33 -16 -69 -40
-80 -51 -10 -12 -54 -40 -97 -63 -85 -44 -128 -86 -128 -124 0 -13 20 -65 45
-114 38 -76 49 -90 69 -90 34 0 171 59 277 120 49 27 95 50 102 50 8 0 32 13
55 30 68 49 85 49 121 -3 17 -25 38 -53 47 -61 8 -9 14 -21 12 -28 -4 -12 -13
-12 -227 -16 l-134 -2 -43 -44 -44 -43 5 -169 c8 -298 3 -761 -11 -1006 -4
-83 -9 -108 -20 -108 -19 0 -18 -17 3 -28 14 -9 16 -52 17 -462 l1 -452 32
-28 c45 -40 127 -49 328 -36 55 4 147 8 205 10 58 1 115 7 126 14 23 12 248
18 277 7 9 -4 24 -2 32 5 10 8 67 12 193 12 165 0 181 1 217 21 62 35 65 48
63 267 -2 162 -5 201 -19 231 -30 62 -34 63 -187 54 -75 -4 -200 -8 -277 -9
-77 -2 -165 -6 -196 -10 -51 -8 -58 -6 -85 17 -30 26 -31 34 -34 167 -1 54 13
110 32 127 23 21 169 33 233 20 22 -5 67 -6 99 -3 33 3 107 8 165 10 132 4
175 20 197 73 9 21 17 39 19 41 9 10 48 -24 64 -57 12 -23 32 -43 51 -51 17
-7 44 -32 60 -55 38 -55 86 -95 113 -95 12 0 29 -5 37 -10 11 -7 17 -5 22 8
15 38 7 87 -24 146 -31 57 -32 66 -31 155 2 52 7 99 12 104 6 6 18 -5 34 -29
28 -45 101 -114 120 -114 15 0 59 45 75 76 6 12 14 52 18 90 3 38 14 101 24
139 20 76 27 122 35 230 3 39 10 84 15 100 5 17 8 48 7 70 l-2 40 40 0 c36 0
42 -4 62 -40 20 -37 21 -47 16 -175 -12 -250 -3 -746 18 -1015 7 -93 12 -223
11 -288 l-2 -118 34 -36 33 -37 265 1 c280 1 286 2 322 50 17 23 18 48 19 316
1 281 -6 605 -19 810 -6 85 -4 100 11 117 16 18 16 20 2 20 -24 0 -32 19 -33
85 -1 33 -7 103 -13 155 -17 129 -6 164 54 191 42 19 48 19 105 4 33 -9 65
-13 71 -10 5 4 42 7 82 8 50 1 81 7 100 20 33 21 68 87 57 107 -4 8 -10 65
-14 125 -3 61 -8 124 -10 140 -3 17 -8 50 -11 75 -4 25 -11 53 -16 62 -17 32
-77 43 -213 41 -71 -1 -134 1 -140 6 -32 24 -599 226 -693 245 -31 7 -33 9
-65 98 -6 18 -17 40 -24 48 -7 8 -14 27 -16 41 -2 14 -18 43 -36 64 -31 38
-32 38 -33 15 -2 -42 2 -64 16 -86 7 -11 15 -45 17 -75 l3 -54 -29 2 c-41 3
-53 18 -72 93 -26 97 -24 231 3 305 12 33 25 77 29 99 5 32 14 43 52 65 24 14
68 44 96 67 50 39 198 124 217 124 6 0 17 -6 24 -14 16 -15 64 -10 66 8 1 6 1
19 0 28 -3 26 35 33 158 30 l113 -3 60 60 c32 33 68 63 80 67 12 3 29 14 37
23 9 10 43 25 76 35 33 10 72 22 87 26 32 10 38 5 38 -34 0 -17 9 -56 20 -86
11 -30 20 -56 20 -57 0 -1 27 -32 60 -69 43 -49 68 -89 91 -148 59 -147 127
-219 217 -231 75 -9 120 -24 169 -56 26 -16 54 -29 63 -29 9 0 32 -7 50 -16
27 -14 57 -16 184 -12 142 5 155 7 198 32 24 14 52 26 60 26 19 0 132 88 171
133 50 59 67 108 67 200 0 64 6 101 26 158 43 126 21 213 -80 312 -29 29 -95
93 -147 144 -59 57 -120 105 -163 129 l-69 37 74 29 c44 18 89 44 112 66 35
34 37 39 36 97 0 33 -5 76 -12 95 -10 31 -17 35 -49 38 -20 2 -51 -4 -68 -13
-41 -21 -46 -15 -21 26 26 43 26 66 1 74 -43 14 -200 -34 -275 -84 -49 -32
-63 -47 -94 -111 -47 -96 -56 -101 -125 -67 -63 31 -143 36 -220 13 -54 -17
-169 -82 -241 -139 l-50 -39 -78 6 c-78 7 -117 -2 -117 -26 0 -24 54 -89 96
-115 24 -16 42 -32 41 -38 -2 -5 -44 -26 -93 -45 -50 -19 -103 -45 -119 -56
-58 -41 -198 -102 -285 -124 -100 -25 -234 -63 -302 -87 -74 -26 -103 -26 -83
1 90 121 85 116 125 116 22 0 42 5 45 10 4 6 -8 10 -29 10 -20 0 -36 3 -36 7
0 3 26 36 58 72 33 36 64 76 71 89 7 13 38 51 70 86 39 44 65 85 84 133 15 38
46 99 70 135 23 36 51 82 62 103 11 22 39 59 63 85 57 59 83 117 128 280 36
129 38 142 38 295 1 155 0 163 -31 250 -18 49 -31 90 -29 92 1 2 21 -4 44 -13
52 -21 89 -12 103 23 13 36 1 128 -24 178 -26 52 -119 148 -189 197 -32 21
-58 43 -58 48 0 7 17 47 46 108 1 1 53 -5 115 -14 63 -10 137 -16 164 -16 28
1 66 -3 86 -9 31 -10 41 -9 60 5 13 9 43 16 67 16 36 0 53 -8 102 -45 71 -55
149 -92 210 -101 25 -4 55 -13 67 -21 19 -13 27 -12 71 7 60 26 84 50 112 112
26 59 34 122 26 192 -6 47 -14 62 -49 99 -57 58 -124 88 -287 127 -87 21 -191
55 -265 86 -44 19 -96 37 -115 40 -44 8 -195 79 -219 103 -10 10 -24 18 -32
18 -26 0 -173 73 -202 101 l-28 26 2 136 c2 266 14 432 34 470 l18 34 23 -29
c21 -26 29 -29 78 -28 48 1 63 -3 114 -36 79 -52 161 -81 256 -91 127 -15 135
-11 275 145 150 168 153 184 60 293 -25 29 -44 42 -61 42 -14 0 -82 28 -149
63 -137 70 -225 109 -281 127 -21 6 -38 14 -38 16 0 3 19 13 43 23 66 29 69
35 63 155 -5 95 -16 146 -32 146 -3 0 -31 -15 -62 -33 -87 -51 -117 -60 -164
-53 -127 21 -199 94 -212 218 -11 105 30 180 121 219 71 30 137 25 217 -16 73
-37 91 -41 101 -24 4 5 4 58 0 116 -10 143 -18 150 -205 172 -149 18 -303 -37
-416 -147 -73 -70 -101 -134 -116 -258 -9 -72 -7 -91 11 -159 27 -97 60 -156
127 -223 l52 -52 -27 -6 c-76 -17 -165 -47 -203 -69 -47 -27 -191 -187 -253
-283 -22 -33 -45 -61 -51 -62 -14 0 -154 146 -154 160 0 6 7 10 15 10 28 0 29
29 1 51 -14 11 -26 28 -26 38 0 20 -19 41 -37 41 -17 0 -17 -30 0 -55 23 -34
28 -55 11 -48 -7 3 -14 14 -14 24 0 10 -6 19 -12 19 -7 0 -39 26 -71 57 -60
58 -60 58 -12 85 152 86 202 294 102 420 -36 45 -102 78 -226 113 -114 32
-141 48 -141 85 0 23 7 31 41 44 36 15 46 15 96 2 30 -8 63 -22 73 -31 11 -10
30 -15 47 -13 23 2 33 13 60 68 18 36 33 73 33 82 0 49 -144 100 -286 99 -187
0 -307 -81 -339 -228 -11 -52 14 -138 52 -183 39 -45 143 -100 235 -123 115
-30 161 -81 121 -135 -40 -54 -133 -54 -208 -1 -96 69 -96 69 -123 55 -13 -7
-40 -34 -60 -60 l-37 -48 -155 1 c-113 1 -174 -3 -225 -15 -39 -9 -77 -17 -85
-19 -8 -2 -27 -6 -41 -10 -35 -9 -40 2 -43 78 -4 101 -8 99 160 96 l145 -3 57
51 c81 71 105 122 106 225 1 71 -3 91 -26 138 -31 65 -75 109 -142 145 -42 22
-68 27 -190 36 -253 17 -347 17 -369 -1z m396 -223 c12 -8 28 -26 36 -40 11
-21 11 -29 0 -53 -8 -16 -25 -34 -39 -41 -32 -16 -112 -17 -128 -1 -16 16 -15
120 1 140 6 9 19 18 27 20 21 6 76 -7 103 -25z m413 -553 c173 -28 301 -65
375 -110 31 -19 65 -34 75 -34 11 -1 60 -40 109 -88 97 -94 298 -316 303 -335
2 -7 25 -33 50 -58 26 -25 74 -76 107 -113 33 -38 67 -76 76 -85 14 -14 57
-66 169 -205 19 -24 60 -72 91 -107 31 -35 65 -78 75 -95 25 -41 152 -189 244
-287 41 -44 86 -96 100 -116 14 -20 54 -63 89 -96 35 -33 76 -71 90 -85 15
-14 57 -54 94 -89 37 -35 65 -66 62 -70 -4 -3 -86 -6 -183 -5 -134 1 -191 5
-233 18 l-56 17 5 48 c5 54 -20 155 -46 185 -33 36 -93 67 -125 65 -18 -2 -59
0 -93 5 -48 6 -72 4 -117 -12 -58 -19 -66 -16 -45 18 10 16 8 27 -10 62 -36
68 -105 174 -133 205 -14 15 -42 51 -61 78 -41 57 -79 88 -143 115 -25 11 -45
26 -45 35 0 8 -25 32 -56 52 -46 31 -65 37 -104 37 -58 -1 -125 -25 -205 -74
-51 -32 -71 -38 -135 -43 -77 -5 -168 -34 -207 -65 -12 -9 -25 -34 -29 -55
l-6 -38 36 6 c30 6 35 5 31 -7 -7 -18 -35 -33 -92 -49 -43 -12 -85 -45 -115
-89 l-16 -25 -54 29 c-124 68 -244 125 -263 126 -20 0 -97 42 -208 114 -72 46
-189 156 -219 205 -12 20 -32 46 -43 58 -46 48 -64 121 -71 295 -6 147 -5 169
14 228 35 115 112 234 171 266 19 11 51 32 70 48 66 53 179 92 365 125 33 6
62 13 65 16 10 10 104 2 247 -21z m1734 -148 c52 -20 102 -36 111 -36 23 0
202 -77 373 -161 114 -56 153 -80 167 -103 28 -47 24 -72 -21 -116 -22 -22
-40 -44 -40 -51 0 -6 -35 -47 -77 -90 l-76 -79 -62 0 c-90 0 -217 42 -290 95
-16 12 -55 29 -86 38 -35 11 -70 30 -97 55 -39 36 -41 40 -32 73 12 42 13 112
1 105 -4 -3 -11 -26 -14 -51 -7 -50 -22 -85 -37 -85 -5 0 -20 21 -32 48 -18
38 -23 43 -26 25 -2 -12 6 -40 16 -62 21 -43 22 -86 2 -135 -6 -16 -13 -75
-15 -130 -3 -56 -8 -119 -12 -141 -3 -22 -6 -88 -6 -147 1 -60 -2 -108 -7
-108 -14 0 -106 98 -145 154 -62 89 -223 283 -312 376 -29 30 -60 66 -70 80
-9 14 -22 28 -29 32 -12 8 9 70 49 145 32 60 198 237 241 257 86 41 174 55
306 52 115 -3 132 -6 220 -40z m-1016 -940 c35 -15 56 -37 40 -43 -24 -9 -37
-23 -40 -44 -2 -13 -7 -40 -12 -59 -6 -24 -5 -43 5 -62 13 -26 24 -32 114 -53
29 -7 147 -114 174 -157 10 -16 26 -28 36 -28 10 0 20 -4 23 -9 3 -4 17 -6 32
-3 21 4 25 9 21 28 -6 34 8 30 38 -11 32 -41 42 -102 23 -128 -11 -15 -34 -19
-139 -23 l-125 -6 -19 42 c-25 55 -94 115 -157 136 -63 21 -170 23 -226 5
l-42 -14 -36 41 c-48 57 -105 88 -187 104 -77 14 -84 29 -28 62 29 17 52 20
147 19 105 -1 113 1 118 20 3 11 0 29 -5 39 -7 13 -7 23 0 32 6 8 9 20 6 28
-7 17 50 72 90 86 43 15 110 14 149 -2z m70 -85 c4 -5 25 -12 49 -16 101 -17
173 -97 228 -255 11 -34 18 -64 15 -68 -13 -13 -77 33 -114 80 -39 52 -91 87
-157 108 -57 17 -85 37 -85 60 0 30 14 31 64 5 25 -13 46 -21 46 -17 0 4 -20
28 -45 52 -24 24 -42 47 -39 52 7 11 31 10 38 -1z m-376 -20 c10 -6 5 -11 -17
-21 -43 -17 -39 -30 10 -30 27 0 39 -4 37 -12 -3 -9 -45 -13 -150 -13 -152 -1
-161 2 -111 39 47 35 197 59 231 37z m-163 -207 c121 -20 205 -105 172 -172
-9 -20 -20 -27 -40 -27 -29 1 -36 -12 -12 -21 11 -5 12 -11 5 -24 -6 -10 -10
-47 -10 -82 0 -35 -4 -68 -8 -75 -25 -40 -161 -45 -238 -9 -67 31 -123 82
-145 131 -26 56 -24 64 14 62 17 0 50 3 72 7 33 7 38 6 28 -5 -19 -19 -16 -63
5 -89 13 -17 29 -22 65 -22 61 -1 87 21 87 74 0 41 -14 48 -50 26 -17 -11 -23
-9 -42 11 l-23 23 100 -5 c92 -6 98 -5 72 9 -15 8 -57 18 -92 21 -36 3 -68 10
-71 14 -3 5 2 9 10 9 9 0 16 5 16 10 0 6 -4 10 -10 10 -5 0 -10 7 -10 15 0 9
-9 15 -22 15 -30 0 -52 -15 -44 -29 4 -6 0 -11 -9 -11 -11 0 -15 -5 -12 -14 4
-10 -7 -17 -38 -25 -69 -17 -74 -16 -65 22 13 52 21 70 57 114 18 23 43 43 56
46 28 5 130 0 182 -9z m1536 -99 c38 -25 79 -45 90 -45 11 0 34 -7 50 -16 17
-8 36 -13 43 -11 7 3 35 -6 62 -19 27 -13 56 -24 64 -24 9 0 24 -6 35 -14 11
-7 61 -23 110 -35 50 -12 103 -29 119 -37 16 -8 44 -14 63 -14 45 0 168 -44
209 -75 18 -14 38 -41 44 -61 27 -81 -13 -224 -77 -274 -22 -17 -35 -20 -68
-14 -65 11 -147 34 -174 49 -14 8 -37 20 -51 26 -24 13 -89 70 -235 209 -38
36 -86 78 -105 92 -41 30 -173 163 -179 181 -2 7 -22 35 -43 63 -59 79 -54 82
43 19z m-1074 -20 c42 -18 121 -87 142 -124 10 -18 14 -54 14 -111 -2 -109
-26 -161 -99 -203 -45 -27 -55 -29 -114 -24 -101 9 -152 31 -197 85 -53 63
-73 103 -73 149 0 41 42 123 81 160 13 12 33 31 43 42 35 37 143 51 203 26z
m-1381 -51 c111 -22 200 -51 279 -89 375 -180 360 -174 490 -185 66 -6 154
-10 194 -9 l75 2 56 -52 c30 -29 62 -56 69 -60 11 -7 10 -13 -3 -34 -17 -25
-129 -127 -141 -127 -3 0 -29 -16 -58 -35 -28 -19 -56 -35 -60 -35 -5 0 -34
-15 -65 -34 -32 -19 -84 -42 -117 -51 -33 -10 -69 -21 -80 -26 -11 -4 -63 -18
-115 -30 -75 -17 -126 -21 -245 -21 -143 0 -154 2 -240 32 -151 53 -211 87
-284 159 -95 95 -127 153 -151 271 -28 144 46 274 183 321 65 23 117 23 213 3z
m2146 -106 c98 -21 140 -80 137 -191 -3 -75 -46 -213 -74 -237 -11 -9 -34 -3
-104 29 -49 22 -110 46 -136 52 -42 11 -45 13 -30 29 8 9 37 27 64 40 28 13
52 31 54 42 6 22 -28 62 -46 55 -120 -45 -283 -55 -375 -24 -54 19 -72 39 -72
80 0 39 24 50 116 55 l84 5 0 -27 c0 -39 24 -32 67 21 21 25 56 54 78 64 47
22 156 25 237 7z m-493 -234 c84 -29 114 -28 275 7 49 11 90 18 93 16 13 -13
-18 -42 -76 -72 -68 -34 -99 -59 -84 -68 5 -3 43 -10 86 -16 66 -9 101 -23
230 -88 171 -88 250 -154 293 -246 43 -93 24 -169 -30 -118 -12 11 -25 21 -29
21 -4 0 -30 11 -59 25 -54 26 -78 31 -78 16 0 -5 6 -14 14 -20 7 -6 19 -33 26
-59 7 -26 22 -57 32 -68 11 -12 29 -50 41 -85 19 -56 21 -83 19 -219 -2 -150
-3 -157 -40 -270 -21 -63 -45 -134 -52 -158 -7 -23 -27 -59 -44 -80 -54 -64
-81 -104 -136 -202 -29 -52 -64 -112 -77 -133 -13 -20 -26 -50 -29 -66 -3 -16
-24 -46 -45 -67 -22 -22 -58 -66 -81 -99 -23 -33 -84 -109 -135 -170 -68 -80
-108 -139 -148 -218 -30 -59 -55 -114 -55 -123 0 -8 -11 -41 -24 -73 -14 -32
-34 -93 -46 -137 -12 -43 -28 -103 -36 -131 -7 -29 -16 -108 -20 -175 -5 -107
-3 -133 15 -202 26 -93 53 -150 92 -191 63 -67 118 -254 93 -319 -9 -23 -22
-20 -51 14 -14 17 -28 29 -30 26 -3 -3 -7 -128 -8 -278 -1 -150 -8 -311 -14
-358 -6 -47 -14 -103 -17 -125 -8 -61 -34 -202 -50 -272 -8 -34 -14 -70 -14
-80 0 -10 -4 -25 -10 -33 -12 -20 -40 6 -95 90 -23 36 -51 73 -63 84 -25 22
-52 15 -52 -14 0 -37 -25 -20 -55 38 -26 49 -30 54 -33 32 -2 -14 6 -54 17
-90 21 -68 21 -80 -4 -60 -8 7 -22 10 -30 6 -24 -9 -17 -65 15 -126 56 -105
93 -195 89 -209 -2 -6 -51 42 -109 107 -58 64 -126 137 -151 162 -26 25 -61
71 -78 102 -18 32 -45 65 -62 75 -16 10 -29 20 -29 24 0 4 -22 32 -50 62 -27
30 -50 59 -50 65 0 5 -25 37 -55 71 -30 34 -62 77 -69 96 -8 19 -31 50 -50 70
-20 20 -49 62 -65 94 -17 32 -41 71 -54 87 -14 16 -39 60 -57 97 -17 37 -39
72 -49 79 -10 7 -27 31 -39 53 -11 22 -34 53 -51 70 -18 16 -48 57 -67 90 -66
112 -79 132 -114 172 -44 50 -117 151 -160 221 -37 61 -160 329 -160 350 0 8
-7 35 -15 61 -63 192 -88 274 -119 401 -19 80 -45 172 -57 205 -12 33 -25 89
-29 125 -5 36 -13 83 -19 105 -20 74 41 555 101 790 21 84 89 285 113 336 26
54 125 214 177 287 15 21 31 52 34 70 6 31 5 32 -25 32 -17 0 -50 -9 -74 -19
-66 -30 -77 -32 -83 -17 -6 15 9 51 32 76 8 8 39 47 70 87 l55 71 43 -19 c89
-39 209 -60 348 -60 l133 -1 125 -72 c204 -117 217 -122 515 -194 17 -4 107
-7 200 -6 189 1 215 6 359 75 63 30 99 56 169 125 120 118 141 151 135 209 -7
58 -29 90 -81 117 -37 20 -58 22 -167 23 -123 0 -204 -12 -285 -42 -37 -14
-114 -24 -292 -40 -52 -4 -73 -3 -73 6 0 6 4 11 8 11 5 0 52 39 106 86 l98 86
56 -8 c123 -17 185 -2 243 60 21 22 39 44 39 48 0 13 20 9 99 -18z m-81 -256
c3 -29 20 -37 112 -57 61 -13 109 -16 146 -7 37 8 49 -9 34 -49 -8 -21 -14
-24 -39 -19 -42 9 -156 -13 -232 -44 -55 -23 -79 -41 -155 -122 -49 -52 -101
-110 -115 -129 -33 -42 -48 -34 -42 23 7 67 -7 83 -73 92 -38 4 -57 12 -61 23
-20 55 -89 84 -139 58 -19 -10 -45 -13 -75 -10 -39 4 -49 1 -78 -23 -18 -15
-42 -47 -52 -71 l-18 -43 -80 34 c-81 34 -189 92 -226 120 -17 14 -18 17 -5
26 8 5 34 10 57 10 78 0 238 53 350 116 62 35 64 35 178 33 63 -1 118 -5 120
-9 3 -5 1 -30 -5 -55 -16 -69 -4 -79 88 -73 97 7 138 38 161 121 9 31 21 60
26 66 12 12 51 19 90 17 25 -1 31 -6 33 -28z m-176 -46 c-12 -63 -69 -102
-150 -102 l-45 0 6 56 c3 31 7 58 9 59 9 10 165 30 174 23 6 -5 9 -20 6 -36z
m428 -132 c0 -4 -24 -32 -53 -63 -58 -60 -163 -132 -242 -164 -52 -22 -163
-48 -171 -40 -10 9 8 34 36 51 17 9 30 21 30 25 0 16 83 102 126 132 55 38
113 58 189 68 61 7 85 5 85 -9z m-730 -90 c11 -7 15 -29 15 -92 l0 -83 -61 2
c-70 2 -211 41 -219 61 -7 19 31 89 56 102 11 6 30 10 42 8 24 -3 27 -22 12
-92 -11 -55 16 -44 34 15 28 89 28 89 68 89 21 0 45 -5 53 -10z m2459 -1097
c-21 -62 -46 -96 -64 -89 -15 5 -115 -51 -115 -64 0 -12 28 -2 59 22 46 35 58
19 14 -21 -40 -36 -46 -38 -90 -33 -27 2 -50 6 -52 8 -2 2 13 39 34 82 33 70
42 81 89 105 58 31 128 56 138 51 4 -3 -2 -30 -13 -61z m197 -60 c4 -26 3 -53
-3 -62 -17 -27 -69 -57 -165 -96 -131 -53 -153 -57 -175 -33 -17 19 -17 20 11
41 87 65 293 197 308 197 12 0 19 -12 24 -47z m-615 -124 c22 -11 39 -25 36
-32 -2 -7 -27 -15 -55 -18 -29 -4 -71 -14 -94 -24 -23 -9 -68 -17 -99 -18 -61
-2 -83 -12 -59 -27 26 -17 87 -11 164 15 147 49 143 28 -11 -49 -198 -100
-292 -117 -388 -72 -45 21 -87 54 -71 57 3 1 38 2 76 3 69 1 72 2 103 38 100
116 297 179 398 127z m484 -174 c48 -18 84 -47 270 -224 125 -118 145 -176
102 -307 -19 -59 -26 -98 -25 -154 2 -115 -34 -175 -154 -258 -85 -59 -167
-81 -314 -83 -140 -3 -160 2 -286 58 -43 18 -106 39 -140 45 -81 13 -118 47
-165 148 -74 161 -96 199 -133 229 -67 53 -88 158 -49 245 18 41 28 50 85 76
35 17 69 30 74 30 10 0 140 60 185 86 17 9 39 22 50 27 11 6 38 21 61 34 28
16 63 24 114 28 69 4 120 23 120 45 0 5 12 16 27 23 24 13 32 12 77 -8 28 -12
74 -30 101 -40z m-415 26 c8 -16 5 -23 -18 -39 -44 -31 -249 -132 -342 -168
-47 -18 -98 -39 -115 -47 -27 -14 -73 -34 -160 -72 -16 -7 -48 -19 -70 -26
-91 -28 -147 -60 -196 -114 -64 -67 -95 -79 -169 -62 -67 16 -112 7 -223 -47
-41 -20 -78 -36 -81 -36 -9 0 -220 -123 -253 -148 -18 -13 -33 -20 -33 -16 0
5 12 44 26 86 22 66 31 81 62 100 83 52 188 91 407 151 172 48 189 54 400 157
77 38 178 83 225 101 158 59 315 122 325 129 6 5 37 22 70 39 71 36 129 41
145 12z m-5083 -380 c23 -11 48 -21 56 -21 25 0 66 -55 87 -114 11 -33 18 -61
16 -63 -2 -2 -17 10 -34 27 -28 28 -71 43 -57 20 9 -14 -1 -13 -35 5 -16 8
-31 11 -34 6 -8 -12 53 -70 81 -77 25 -7 32 -24 10 -24 -7 0 -34 7 -59 16 -38
13 -56 28 -100 87 -67 90 -74 106 -70 173 l4 54 46 -34 c26 -18 66 -43 89 -55z
m-332 -96 c41 -26 98 -56 127 -67 29 -11 57 -24 63 -29 5 -5 15 -9 23 -9 8 0
46 -15 85 -33 40 -19 87 -40 105 -47 26 -10 31 -17 26 -34 -4 -11 -7 -22 -8
-23 -5 -6 -140 27 -149 36 -6 6 -27 11 -46 11 -40 0 -199 42 -247 65 -31 15
-49 31 -69 65 -30 51 -43 77 -50 99 -7 23 -6 24 29 18 20 -3 70 -27 111 -52z
m1015 -95 c63 -13 233 -75 237 -87 2 -6 -34 -26 -79 -47 -75 -32 -87 -35 -123
-25 -22 5 -68 16 -103 24 -82 18 -91 25 -58 42 14 7 26 20 26 28 0 12 -8 14
-40 9 -34 -6 -40 -4 -40 11 0 15 -6 17 -37 12 l-37 -6 22 22 c33 33 123 40
232 17z m-416 -48 c2 -4 -4 -25 -14 -47 -24 -51 -24 -52 1 -60 16 -5 28 2 54
32 18 21 35 36 38 33 3 -3 0 -29 -7 -59 -14 -61 -31 -73 -94 -67 -56 6 -91 23
-104 51 -9 21 -7 30 18 67 16 24 33 46 39 50 13 10 63 10 69 0z m212 -86 c27
-8 85 -22 129 -31 44 -10 89 -23 100 -30 11 -7 36 -15 55 -18 19 -3 80 -21
135 -41 89 -33 212 -72 345 -111 25 -7 77 -23 115 -35 39 -12 95 -28 125 -36
30 -8 59 -19 64 -24 11 -11 36 -79 36 -97 0 -27 -122 -5 -176 32 -37 25 -91
44 -214 75 -47 11 -120 34 -163 50 -43 17 -87 30 -97 30 -11 0 -72 18 -137 41
-95 32 -319 106 -380 125 -18 5 -17 84 0 84 7 0 36 -6 63 -14z m-392 -75 c11
-21 27 -31 60 -40 62 -15 155 -14 204 3 49 17 82 11 225 -43 56 -21 152 -55
212 -76 120 -41 185 -70 185 -85 0 -5 14 -31 31 -59 40 -63 37 -104 -14 -211
-19 -41 -54 -133 -76 -205 -23 -71 -55 -154 -71 -183 -33 -56 -93 -107 -141
-117 -16 -4 -33 -14 -38 -24 -10 -18 -86 -45 -161 -56 -25 -4 -56 -13 -70 -20
-101 -51 -281 -70 -385 -41 -84 24 -244 93 -287 125 -50 37 -116 115 -123 145
-22 99 -25 129 -19 199 5 55 3 85 -6 102 -10 18 -10 31 -1 56 6 17 11 63 11
100 0 85 8 107 63 161 24 23 56 59 71 80 32 42 177 142 222 152 17 4 44 20 59
36 16 17 30 30 32 30 1 0 9 -13 17 -29z m1623 -623 c60 -80 60 -85 7 -116 -25
-15 -92 -57 -150 -94 -57 -36 -118 -71 -134 -77 -29 -10 -31 -8 -50 29 -11 22
-33 49 -50 61 -16 12 -27 26 -25 30 14 21 334 219 356 219 4 0 24 -24 46 -52z
m1931 -127 c81 -26 183 -56 227 -66 44 -9 127 -35 185 -57 183 -68 186 -71
155 -111 -16 -22 -19 -21 -280 63 -82 26 -190 60 -240 75 -130 40 -176 62
-207 98 -15 18 -27 35 -28 40 0 15 45 5 188 -42z m-1317 -826 c30 -36 68 -90
85 -121 17 -30 46 -71 65 -90 21 -21 29 -38 23 -44 -5 -5 -82 -10 -171 -12
-159 -3 -162 -3 -187 21 -25 24 -26 29 -26 136 0 109 1 112 28 137 33 31 46
36 93 37 32 1 41 -6 90 -64z m-1986 41 c33 -8 86 -25 118 -40 47 -21 59 -31
63 -56 4 -16 10 -30 14 -30 8 0 34 -51 32 -63 -1 -4 -3 -27 -3 -50 -2 -58 -55
-157 -84 -157 -6 0 -32 16 -58 36 -60 47 -82 35 -32 -16 26 -27 36 -44 31 -56
-5 -13 -9 -15 -18 -6 -25 25 -128 7 -128 -22 0 -10 -16 -15 -52 -18 -69 -5
-75 -3 -99 43 -17 35 -19 55 -16 187 3 128 7 153 26 190 35 69 89 84 206 58z"/>
<path d="M4275 6777 c-37 -31 -40 -86 -5 -104 39 -20 103 -16 134 8 47 37 24
85 -30 61 -22 -11 -25 -9 -38 23 -18 41 -26 43 -61 12z"/>
<path d="M6523 9286 c-28 -15 -32 -27 -28 -76 17 -219 24 -343 22 -385 -1 -27
1 -106 5 -174 5 -89 4 -129 -4 -139 -8 -10 -9 -15 -1 -20 6 -4 14 -24 18 -44
4 -21 13 -42 21 -49 19 -16 541 -24 559 -9 10 8 12 33 8 93 -8 123 -1 117
-156 117 -92 0 -139 4 -151 13 -22 16 -27 94 -6 107 9 5 66 7 130 3 150 -8
155 -3 146 106 -4 47 -12 81 -21 91 -12 12 -43 15 -136 17 -76 1 -125 6 -135
13 -8 8 -14 30 -14 56 0 58 18 65 148 57 55 -3 111 -3 126 1 26 6 27 7 25 97
-1 86 -2 90 -28 103 -17 9 -87 16 -201 20 -96 3 -205 8 -242 9 -37 2 -76 -1
-85 -7z"/>
<path d="M5835 9274 c-13 -14 -15 -37 -10 -167 3 -84 10 -197 15 -252 5 -55
11 -172 12 -260 3 -137 6 -163 20 -177 16 -16 43 -18 261 -19 133 0 252 -2
264 -5 12 -2 31 4 44 14 21 18 21 22 13 107 -6 61 -14 90 -24 96 -8 5 -77 11
-153 15 -132 6 -139 7 -147 29 -5 12 -11 119 -15 236 -9 306 -13 370 -26 385
-18 22 -232 20 -254 -2z"/>
<path d="M4586 9264 c-19 -13 -20 -25 -17 -174 2 -151 1 -160 -17 -160 -10 0
-21 -3 -25 -6 -9 -10 4 -34 18 -34 8 0 16 -4 20 -9 3 -5 8 -110 11 -233 5
-183 9 -226 22 -241 13 -15 32 -17 126 -16 82 0 117 5 135 16 l24 16 -6 261
c-10 393 -19 555 -31 571 -16 22 -233 29 -260 9z"/>
<path d="M7615 8740 c-5 -14 -12 -19 -28 -15 -33 8 -66 -24 -69 -65 -3 -34 -2
-35 34 -35 20 0 42 -6 49 -12 23 -23 32 -14 26 28 l-5 40 24 -26 c13 -14 24
-30 24 -36 0 -5 7 -9 16 -9 12 0 15 6 11 22 -7 25 9 49 27 42 16 -6 26 17 19
44 -7 28 -33 17 -33 -14 0 -13 -2 -24 -5 -24 -13 0 -65 45 -65 56 0 22 -18 25
-25 4z"/>
<path d="M7452 6998 c8 -116 21 -148 59 -148 19 0 66 56 92 109 23 47 4 79
-71 119 -90 48 -89 50 -80 -80z"/>
<path d="M124 7085 c-4 -9 -14 -14 -23 -13 -10 2 -15 -3 -13 -14 2 -15 -5 -18
-43 -18 -41 0 -45 -2 -45 -25 0 -24 1 -25 62 -20 35 3 58 3 51 -1 -7 -3 -17
-21 -23 -39 -19 -58 17 -95 94 -95 37 0 71 30 81 72 8 32 -16 48 -45 30 -14
-9 -22 -6 -41 15 l-24 26 46 -7 c26 -4 71 -16 100 -26 30 -11 57 -16 62 -11
11 11 -61 46 -132 64 -43 11 -51 16 -38 23 11 6 14 17 10 32 -4 17 -13 22 -39
22 -22 0 -37 -6 -40 -15z"/>
<path d="M7786 7028 c-13 -20 -18 -62 -31 -248 -1 -14 -3 -37 -3 -52 -2 -21
-7 -28 -21 -28 -31 0 -37 -21 -11 -42 22 -18 23 -22 16 -126 -4 -59 -9 -120
-11 -137 -2 -16 -6 -78 -11 -136 -7 -105 -7 -107 16 -119 13 -7 56 -16 96 -21
40 -4 88 -11 106 -14 49 -9 67 10 73 75 3 30 7 64 10 75 2 11 7 70 10 130 3
61 10 153 15 205 5 52 12 164 16 248 7 170 3 182 -52 182 -18 0 -43 4 -56 9
-13 4 -51 11 -85 15 -57 6 -63 5 -77 -16z"/>
<path d="M8237 6801 c-108 -120 -136 -320 -70 -501 17 -44 85 -154 104 -166 5
-3 9 137 9 350 0 196 -2 356 -4 356 -2 0 -20 -18 -39 -39z"/>
<path d="M7474 6668 c3 -35 11 -144 17 -243 6 -99 12 -181 13 -183 10 -10 69
58 93 106 24 49 28 68 27 142 0 73 -4 91 -26 129 -25 42 -100 111 -121 111 -6
0 -7 -24 -3 -62z"/>
<path d="M1690 6655 c-99 -21 -163 -44 -267 -97 -96 -48 -213 -136 -213 -160
0 -6 -15 -31 -34 -57 -77 -106 -104 -199 -107 -366 0 -55 -7 -128 -15 -163 -8
-35 -14 -118 -14 -185 -1 -170 -13 -250 -44 -298 -26 -38 -22 -55 5 -23 12 14
14 14 19 -3 8 -20 7 -40 -5 -215 -7 -99 -5 -124 9 -162 30 -78 32 -79 223 -75
l168 4 7 -67 c3 -37 13 -98 22 -135 8 -38 17 -84 20 -103 20 -122 42 -147 145
-163 64 -10 69 -9 113 17 36 21 51 38 68 77 24 57 42 201 38 305 l-3 68 35 7
c19 4 69 10 110 13 41 3 95 8 120 10 25 3 83 7 129 11 97 7 177 37 185 70 13
52 18 136 9 162 -5 15 -7 53 -4 83 6 51 8 55 36 60 17 4 45 14 62 24 18 9 35
16 38 16 17 0 18 1 5 10 -8 5 -29 10 -47 10 -17 0 -35 5 -38 10 -11 18 -25 11
-26 -12 -1 -13 -5 2 -10 32 -4 30 -6 62 -3 71 2 9 6 77 8 150 3 74 8 186 13
249 17 243 6 369 -44 490 -19 47 -40 99 -46 115 -7 17 -18 34 -24 38 -7 4 -13
13 -13 18 0 6 5 7 10 4 6 -3 10 3 10 14 0 23 -26 29 -33 9 -2 -9 -19 0 -48 23
-60 49 -90 63 -195 93 -104 29 -284 39 -374 21z m298 -50 c118 -19 180 -43
249 -97 72 -55 84 -76 134 -227 40 -122 40 -128 41 -270 1 -80 -4 -191 -10
-246 -12 -110 -23 -359 -26 -585 -3 -217 -27 -251 -180 -251 -36 0 -134 -8
-218 -18 -116 -13 -230 -17 -468 -17 l-315 1 -13 27 c-29 60 -34 141 -26 403
4 143 8 330 9 415 1 85 7 180 13 210 6 30 16 90 22 134 15 103 54 231 85 278
54 82 167 165 285 212 25 10 56 24 70 31 35 19 233 19 348 0z m-797 -358 c-7
-19 -18 -77 -26 -130 -9 -54 -22 -139 -29 -189 -8 -52 -14 -162 -14 -248 0
-195 -16 -363 -38 -393 -15 -21 -16 -13 -9 108 4 72 8 186 10 255 2 69 9 147
15 173 5 26 15 110 20 185 10 148 20 196 53 255 24 44 34 34 18 -16z m-92
-1029 c2 -112 20 -259 35 -289 20 -40 9 -55 -31 -42 -43 14 -53 57 -47 197 4
103 21 186 37 186 3 0 5 -24 6 -52z m680 -374 c9 -8 1 -241 -10 -297 -17 -84
-30 -94 -120 -102 -72 -7 -76 -6 -91 16 -29 46 -37 112 -42 338 -1 40 2 46 24
52 25 7 231 1 239 -7z"/>
<path d="M1853 6485 c-9 -25 24 -52 73 -59 60 -8 157 -55 218 -106 54 -45 56
-46 56 -27 0 22 -90 105 -154 143 -100 60 -181 80 -193 49z"/>
<path d="M1564 6301 c-17 -10 -40 -31 -52 -45 -29 -37 -81 -185 -101 -288 -9
-48 -24 -95 -34 -106 -16 -18 -16 -20 -1 -33 13 -10 15 -23 10 -61 -4 -27 -9
-54 -12 -61 -10 -27 29 -58 81 -65 33 -5 50 -12 51 -22 1 -8 2 -21 3 -28 0 -6
20 -31 43 -53 42 -40 72 -57 113 -64 11 -2 49 -9 85 -15 85 -16 217 -7 274 19
47 20 76 60 76 106 0 21 5 25 29 25 33 0 90 39 58 40 -14 0 -16 4 -7 19 5 11
10 59 10 106 0 79 2 87 20 92 l21 6 -21 14 c-19 13 -20 24 -19 111 1 101 -15
165 -61 240 -58 95 -211 108 -281 23 l-29 -35 -37 36 c-21 19 -48 41 -60 47
-35 18 -124 13 -159 -8z m193 -63 c30 -30 36 -43 38 -88 4 -64 20 -86 30 -38
11 53 54 123 87 142 39 24 118 25 152 3 31 -21 61 -77 70 -132 8 -48 11 -184
3 -191 -2 -3 -38 2 -78 11 -84 17 -159 20 -159 5 0 -5 18 -28 40 -50 45 -45
79 -51 131 -25 51 27 65 9 72 -86 6 -87 -3 -129 -27 -129 -8 0 -18 9 -21 20
-5 15 -12 19 -26 15 -11 -4 -25 -2 -32 3 -7 6 -41 18 -76 27 -103 26 -360 2
-427 -40 -24 -15 -98 -9 -113 9 -6 7 -3 39 8 86 l17 75 64 3 c50 2 72 9 97 28
18 14 33 34 33 45 0 11 8 23 17 26 15 6 15 7 -3 13 -19 7 -116 -13 -146 -30
-29 -16 -58 -12 -58 8 0 29 38 165 59 213 39 89 85 121 164 115 40 -3 55 -10
84 -38z m201 -558 c63 -22 102 -58 102 -95 0 -71 -39 -89 -200 -89 -69 0 -151
5 -183 13 -107 24 -184 110 -126 141 89 48 309 64 407 30z"/>
<path d="M1974 5390 c-13 -13 -43 -14 -167 -4 -104 7 -152 -1 -217 -37 -19
-11 -68 -36 -107 -55 -40 -20 -73 -40 -73 -45 0 -15 30 -23 43 -10 21 21 38
13 31 -16 -13 -58 -46 -113 -70 -119 -14 -4 -31 -16 -39 -27 -19 -28 -19 -48
0 -23 8 11 18 17 21 13 4 -4 1 -14 -6 -23 -12 -13 -11 -17 1 -25 8 -5 25 -9
39 -9 24 0 26 3 22 34 l-4 34 41 -11 c39 -11 52 -31 20 -32 -24 -1 -3 -44 22
-45 18 0 42 32 49 66 5 21 24 79 43 128 33 84 38 91 92 128 55 37 61 38 114
33 31 -4 67 -8 81 -9 14 -1 32 -6 39 -10 17 -11 51 22 51 51 0 25 -10 29 -26
13z m-342 -65 c4 -5 -18 -74 -64 -197 -8 -24 -16 -28 -49 -28 -38 0 -50 14
-31 36 5 5 15 25 22 44 13 35 51 99 79 133 14 17 33 22 43 12z"/>
<path d="M7527 6103 c-6 -10 -10 -67 -8 -119 1 -34 16 -64 80 -160 43 -66 119
-191 168 -279 82 -145 295 -493 340 -555 10 -14 53 -81 96 -149 l77 -125 -1
245 c-1 229 -2 240 -15 184 -7 -33 -16 -102 -20 -152 -4 -51 -10 -93 -14 -93
-3 0 -44 59 -91 131 -46 71 -106 165 -134 207 -66 102 -145 232 -145 238 0 3
-22 42 -49 88 -64 109 -66 115 -39 168 38 72 77 118 176 207 110 98 154 116
290 120 39 1 42 3 42 27 l0 27 -72 -6 c-40 -3 -103 -15 -141 -27 -65 -20 -74
-27 -213 -166 -81 -80 -150 -142 -155 -137 -5 5 -28 45 -52 90 -30 55 -43 90
-40 106 4 18 -1 28 -16 36 -11 7 -23 26 -27 46 -6 35 -28 63 -37 48z"/>
<path d="M7581 5068 c-1 -23 6 -31 42 -48 61 -29 96 -65 128 -134 30 -64 71
-214 63 -227 -6 -10 -31 -1 -66 23 -38 26 -36 4 3 -31 18 -17 42 -28 60 -29
16 0 29 0 29 1 0 1 -4 17 -9 35 -13 45 3 40 33 -10 31 -53 42 -117 26 -148
-11 -21 -16 -22 -89 -17 -42 4 -100 9 -128 13 -34 4 -53 3 -53 -4 0 -5 28 -13
63 -16 74 -8 160 -26 153 -33 -2 -3 -48 1 -100 8 -68 9 -100 9 -107 2 -8 -8 8
-13 53 -17 113 -12 121 -15 115 -42 -6 -35 23 -31 57 7 35 38 105 69 161 69
47 0 155 -31 195 -57 14 -8 35 -27 48 -41 l22 -25 0 36 c0 44 -14 59 -102 103
-78 39 -142 51 -205 36 -39 -9 -43 -8 -43 9 0 11 -14 50 -31 87 -17 37 -39 90
-50 119 -11 28 -27 57 -35 64 -9 7 -27 37 -39 66 -33 74 -70 118 -131 159 -29
19 -55 43 -57 52 -3 10 -5 5 -6 -10z"/>
<path d="M7634 4292 c4 -7 28 -24 53 -39 42 -24 53 -26 152 -25 58 1 127 3
154 6 26 3 47 1 47 -4 0 -17 -43 -49 -79 -60 -53 -17 -111 -42 -111 -50 0 -3
37 -19 83 -34 45 -16 93 -36 107 -46 44 -30 56 -32 25 -5 -16 15 -53 37 -82
50 -28 13 -54 28 -57 33 -8 14 13 28 61 41 23 6 49 18 58 27 18 18 20 50 4 60
-7 4 -77 7 -158 8 -143 1 -154 3 -245 41 -14 6 -17 5 -12 -3z"/>
<path d="M7655 4060 c-3 -5 14 -14 37 -20 62 -15 109 -41 121 -67 6 -13 8 -26
4 -29 -6 -6 -113 9 -139 21 -12 5 -18 3 -18 -7 0 -23 66 -48 125 -48 51 0 55
-2 55 -24 0 -52 -5 -54 -91 -49 -56 4 -79 2 -79 -6 0 -6 13 -11 29 -11 40 0
91 -11 91 -20 0 -4 -26 -33 -57 -64 -31 -31 -54 -56 -51 -56 26 0 156 115 177
157 41 81 -24 185 -135 219 -56 17 -61 17 -69 4z"/>
<path d="M8272 3023 c-3 -41 -36 -129 -95 -255 -35 -74 -64 -116 -117 -173
-38 -42 -84 -97 -101 -123 -18 -26 -53 -76 -79 -112 -52 -72 -90 -150 -90
-186 0 -49 30 -22 81 71 36 66 97 152 123 174 9 8 23 29 32 47 9 18 34 50 57
71 104 97 122 125 171 263 23 64 26 88 23 165 -1 50 -4 75 -5 58z"/>
<path d="M6657 2989 c-376 -6 -441 -10 -462 -23 -34 -23 -58 -62 -57 -94 0
-15 1 -43 2 -62 1 -19 5 -75 11 -125 8 -86 23 -295 35 -530 4 -60 7 -200 9
-310 2 -224 13 -498 20 -532 3 -12 7 -111 10 -220 2 -109 7 -234 11 -278 6
-72 9 -82 39 -112 30 -30 38 -33 102 -34 216 -5 260 -4 283 4 14 5 60 9 104 8
51 -1 84 3 94 11 10 9 50 13 116 14 56 0 126 4 156 8 30 4 138 8 239 10 l183
4 30 29 c24 25 30 39 33 89 2 32 -1 102 -7 154 -5 52 -9 119 -8 148 1 39 -5
63 -21 88 -36 59 -48 63 -189 52 -69 -6 -179 -11 -245 -12 -66 -1 -147 -6
-180 -10 -58 -7 -61 -7 -87 21 -25 27 -28 39 -38 158 -4 44 11 111 29 128 19
20 34 21 248 23 269 3 323 9 357 35 36 28 40 67 25 259 -10 138 -16 177 -34
207 l-21 38 -134 0 c-74 -1 -203 -5 -285 -9 -132 -8 -154 -7 -183 8 -17 9 -34
26 -36 39 -10 46 -13 193 -4 217 16 49 37 53 273 61 325 10 372 16 394 48 17
24 18 37 10 146 -5 66 -7 125 -5 132 3 6 0 28 -5 48 -7 25 -7 46 0 67 14 40
-6 74 -54 94 -38 16 -42 16 -758 3z"/>
<path d="M8205 1916 c-22 -7 -63 -25 -92 -39 -55 -29 -168 -61 -245 -72 -45
-6 -48 -8 -48 -36 0 -29 1 -29 43 -24 44 6 145 35 237 67 30 11 83 29 118 41
56 19 62 24 62 49 0 32 -12 34 -75 14z"/>
<path d="M8225 1745 c-5 -1 -42 -12 -81 -24 -39 -12 -81 -31 -95 -43 -13 -12
-34 -30 -46 -41 -11 -10 -38 -25 -59 -32 -31 -10 -43 -10 -70 1 -44 19 -46 18
-42 -13 2 -21 12 -29 44 -41 61 -22 104 -10 168 48 33 31 63 50 78 50 13 0 31
9 40 19 10 11 36 22 67 26 45 6 51 10 51 31 0 18 -5 24 -22 23 -13 0 -27 -2
-33 -4z"/>
<path d="M7784 438 c-3 -5 12 -16 33 -26 54 -25 113 -65 113 -78 0 -6 -11 -21
-24 -33 l-24 -23 -114 57 c-62 32 -126 66 -141 78 -27 18 -38 19 -185 13 -192
-9 -226 -15 -230 -41 -11 -76 -29 -85 -55 -30 -30 62 -43 45 -50 -62 -4 -54
-10 -137 -13 -185 l-7 -88 316 0 c242 0 317 3 321 13 5 9 7 9 12 0 4 -10 69
-13 275 -13 l269 0 0 139 c0 136 -1 139 -24 155 -17 10 -55 17 -120 19 -79 3
-100 8 -119 24 -35 31 -127 84 -137 78 -5 -3 -12 -1 -15 5 -7 12 -74 10 -81
-2z"/>
<path d="M5678 345 c-2 -2 -120 -6 -263 -10 -143 -4 -267 -9 -276 -11 -16 -4
-19 -20 -35 -236 l-5 -68 324 0 c306 0 325 1 329 18 3 10 22 26 42 36 53 25
112 14 135 -25 11 -21 24 -29 44 -29 15 0 27 2 27 4 0 14 -55 156 -70 181 -10
17 -26 56 -35 87 l-16 57 -99 0 c-54 -1 -100 -2 -102 -4z"/>
<path d="M4640 309 c-96 -4 -247 -10 -335 -13 -88 -3 -161 -6 -162 -6 -13 -1
2 -19 22 -28 14 -6 25 -20 25 -30 0 -10 9 -37 21 -61 18 -37 19 -49 10 -92 -6
-28 -11 -52 -11 -54 0 -3 148 -5 329 -5 l329 0 10 28 c9 27 8 45 -15 230 -4
35 -8 42 -27 40 -11 0 -100 -4 -196 -9z"/>
<path d="M3475 259 c-60 -4 -154 -10 -208 -12 -53 -2 -100 -7 -103 -10 -4 -3
-9 -37 -12 -74 -3 -44 -11 -76 -23 -92 -40 -51 -38 -51 226 -51 213 0 244 2
239 15 -8 20 39 20 56 0 7 -8 29 -15 50 -15 l38 0 17 67 c9 38 18 94 20 126
l3 57 -97 -1 c-53 -1 -145 -5 -206 -10z"/>
<path d="M2270 194 c-102 -7 -228 -13 -280 -14 -52 -1 -104 -5 -115 -10 -22
-9 -17 -11 45 -15 144 -11 364 -37 380 -45 27 -15 125 -12 164 4 34 14 76 59
76 82 0 16 -11 16 -270 -2z"/>
</g>
</svg>
