<svg width="0" height="0" class="hidden">
  <symbol version="1.0" xmlns="http://www.w3.org/2000/svg" viewBox="0 0 828 994" id="PPlogo">
    <path d="M.2 4C.1 7 .4 7.8 1.4 7.4c.8-.3 1.7-.1 2.1.5.3.7-.2 1.1-1.4 1.1-2.2 0-2.6.8-1.3 2.5.9 1.2 4.8 3.5 6.1 3.5 1.7 0 2.3-4 .9-5.7-1.1-1.4-1.1-1.5.2-1.1 2.1.7 4-1.6 3.3-4.1-.3-1.2-.1-2.1.6-2.1 1.4 0 1.4 4.5.1 7-.8 1.5-.5 2.1 2.1 3.4 3.6 1.8 5.5 1.3 6.3-1.7.7-3 3.3-6.4 4.1-5.5.4.4.4 1.2-.1 1.9-.4.7-.8 2.5-.8 4.1-.1 2.3.2 2.7 1.9 2.1 1.1-.4 2.8-.7 3.7-.7.9 0 1.5-.2 1.3-.4-.2-.3.5-1.6 1.5-3 2.8-3.5 2.5-4.5-.8-2.8-2.7 1.4-2.9 1.4-4.1-1.7-.8-1.8-1.3-3.5-1.3-3.8 0-.3-1.7-.6-3.9-.7-2.6-.2-3.9.1-3.9 1s-.3.9-1.2 0C16.1.5 12.6 0 8 0H.3L.2 4zm41.7-2.8c-1.4.9-1.5 1.6-.6 3.5 1.1 2.5 4.5 3.1 6.5 1.1.9-.9 1.2-.9 1.2 0 0 .7-.5 1.2-1 1.2-1.2 0 .6 4.1 2.3 5.1 1.4 1 4.6-2.2 4-3.9-.4-1-.1-1.3.8-1 2 .7 2.4 4.7.5 5.4-2 .8-2.1 2.4-.1 2.4.9 0 1.9-.8 2.2-1.8 1-2.6 3.1-4.4 3.8-3.2.3.5.3 1-.2 1.1-.4 0 .1.4 1.2.8 2.3.9 5.7.3 5-.9-.3-.4.2-1 1-1.4 1.9-.7 1.9-3.5 0-6-.8-1-1.2-2.3-.9-2.7.3-.5-.2-.9-1-.9-.9 0-1.6.4-1.6 1 0 .5-.5 1-1.1 1-.5 0-.7-.5-.4-1.1.9-1.4-13.5-1-15.2.4-.9.6-1.3.6-1.3-.2 0-1.4-3-1.3-5.1.1zm57.2.3c2.5 1.4 4.4 4.1 4.1 5.7-.1.5.5.8 1.3.8.9 0 1.5.9 1.5 2.1 0 1.5.5 1.9 1.6 1.5 1.2-.4 1.4-.1.9 1.4-.4 1.4-.1 2.2 1.2 2.7 1 .3 2.4 1.1 3.1 1.7.8.5 2.3 1.1 3.3 1.3 2.6.4 2.5-2.7-.1-3.4-2.1-.6-2.8-2.3-.9-2.3.5 0 .7-.5.4-1-.3-.6-.1-1 .4-1 .6 0 1.1.4 1.1 1 0 .5.7 1 1.5 1s1.5-.5 1.5-1c0-.6.9-1.9 2-3l2-2h-2c-1.1 0-2 .5-2 1.2 0 .6-.3.8-.6.5-.4-.4-.1-1.3.5-2.1 1-1.2.9-1.4-.8-.9-1.5.4-2.1.1-2.1-1.2C117 1 114.5 0 105.3 0c-8.2.1-8.6.2-6.2 1.5zm61.6 1.9c.4 2.5.1 4-1.1 5.1-.9.9-1.6 2.2-1.5 2.8 0 .8.2.7.6-.1.3-.9 1-.4 1.9 1.3 1.7 3.4 1.7 3.2-.2 3.9-1.3.5-1.5.2-1.1-1.4.3-1.1.1-1.8-.4-1.4-.5.3-2-.7-3.4-2.2-1.4-1.5-2.8-2.4-3.2-2.1-.3.4.2 1.6 1.2 2.7s1.3 2 .7 2c-.6 0-1.2-.5-1.4-1.1-.3-.9-.9-.9-2.5-.1-1.1.6-2.3.8-2.7.5-1.3-1.4-5.2-1-6.6.7-.8.9-2.1 1.5-2.7 1.3-.8-.3-1.3.4-1.3 1.7 0 1.7-.3 1.9-1.9 1-3-1.6-3.7-1.3-6 2.5-1.1 1.9-1.5 3.5-1 3.5.6 0 .9.7.5 1.5-.3.8.1 2.1.9 2.9 2.1 2 1.9 2.6-.9 2.6-3.4 0-4 1.4-1.6 3.5 1.1 1 2 1.4 2 1 0-.5.9.1 1.9 1.2 1.7 1.8 3.7 2.1 14.6 2.8 6.9.4 12.9.4 13.2.1.4-.3-.1-.6-.9-.6-1.9 0-5.9-7.2-5-8.7 1.1-1.6 8.2-2.1 8.2-.6 0 .7.6 1.3 1.4 1.3.7 0 1.9.7 2.6 1.5 1.8 2.1 2.9 1.9 4.2-1 .6-1.3 1.4-2.2 1.8-2 .4.3 1-1 1.4-2.8.5-2.3.9-2.8 1.5-1.8.5.7 1.1.9 1.4.4.4-.6-.5-1.5-1.8-2.1-2.6-1.2-3.2-2.7-1.5-3.7.6-.4.8-1 .5-1.5-.6-.9 1.7-3.5 3.7-4.3.9-.4.4-1.3-1.5-2.7-1.5-1.2-2.5-2.6-2.1-3.1.3-.5-.4-.9-1.5-.9-2.9 0-2.6-1.4.4-2.8 2.1-1 2.7-.9 3.1.2.3.8 1.2 1.2 2 .9 1.7-.6 1.9.8.2 2.5-.8.8-.5 1.4 1.5 2.3 1.6.7 2.8 2.3 3.2 4 .4 1.6 1.1 2.7 1.6 2.3.5-.3.7-1.4.4-2.5-.8-2.5.3-2.4 2.4.3l1.8 2.1.7-2.6c.6-2.5 2.6-3.9 2.6-1.8 0 .5 1.2 1.2 2.7 1.6 2.1.5 2.4.8 1.2 1.6-.7.5-1.2.9-.9 1 .3 0 1.3.2 2.3.4 1.4.3 1.7-.4 1.7-3.2 0-2.2-.7-4.1-1.7-5-1.7-1.3-1.7-1.4 0-.5 2.2 1.1 6.9.4 6.1-.9-.3-.5 0-.9.5-.9.6 0 1.1.9 1.1 1.9 0 1.1.4 2.3 1 2.6.6.4.7-.1.4-1.2-.5-1.3-.2-1.2 1 .5 1 1.2 1.5 3 1.1 4.1-.7 2.4.4 5.1 2.1 5.1.8 0 1.4.8 1.4 1.7 0 1 .4 1.4.8.8 1-1.4 8.2-1.8 8.2-.5 0 .9-2.9 1.5-5.2 1.1-.5 0-.8.9-.8 2.1 0 1.5.3 1.9.8 1.1.4-.7 2.4-1.1 4.7-.9 3.9.2 4 .4 3.8 3.7-.1 1.9.1 2.7.4 1.9.3-.8 1.4-2.2 2.5-3.1 2.5-2.2 2.3-2.9-.8-2.9-1.6 0-2.4-.5-2.1-1.3.2-.6 2-1.2 3.9-1.2 2 0 4-.4 4.5-.9.4-.5-.2-.5-1.4-.2-2.9.9-3.1-.9-.3-2.4 2.3-1.3 2.7-4 .5-4-.8 0-1.5.4-1.5 1 0 .5-1.9.9-4.2.9-2.7-.1-3.4-.3-1.9-.6 2.7-.5 6.5-3.6 4-3.3-.8.1-2.3.2-3.3.1-2-.1-2-.1 0-1.5 1.3-1 2.3-1.1 3.1-.4 1 .8 1.3.6 1.3-.6 0-.9-.6-1.6-1.4-1.6-1.8 0-2.8-2.7-1.4-3.6.7-.4 1.4-.2 1.6.4.2.7 1 1.2 1.8 1.2s1.1-.6.7-1.6c-.5-1.3-.2-1.5 1.5-.9 1.6.4 2.2.2 2.2-.8 0-2.8-6.4-3.8-7.4-1.2-.3.8-1.6 1.5-2.8 1.4h-2.3l2.3-.9C224 1.5 225 .8 225 .6c0-1.1-10.5-.3-11.2.8-.6.8-.8.7-.8-.2 0-.8-1.6-1.2-4.4-1.2-2.6 0-4.6.5-4.9 1.2-.4 1-.6 1-.6 0C203 .3 198 0 181.6 0h-21.5l.6 3.4zM403.2 3c-.9 1.6-2.1 3-2.5 3-.5 0-.5.5-.2 1 .3.6-.5 1.4-1.9 2-3 1.1-3.4 3.5-.8 4.9 1.3.8 1.4 1.2.5 2.2-1 1-1.6.9-3.1-.4-2.3-2.1-4.5-2.4-10.4-1.4-3.7.6-5.3.5-7-.7-3.8-2.7-8.3-2-10.8 1.4-2 2.8-1.7 3.6 1.3 3.1.4 0 .7.6.7 1.4 0 .8.9 2.3 1.9 3.2 1.1.9 1.7 2.2 1.4 2.9-.3.8 0 1.4.6 1.4s1.1.7 1.1 1.6c0 1.3-.7 1.5-2.9 1.1-2.7-.6-2.8-.5-1.7 1.8.7 1.6 1.3 2 1.8 1.2s.8-.7.8.3c0 .9-.5 2.1-1.2 2.8-.9.9-.9 1.2 0 1.2 1.6 0 6.1 5 6.2 6.8 0 .7-.5 1-1.2.6-.6-.4-1.8.2-2.6 1.2-1 1.3-1.6 1.5-1.9.6-.6-1.6-4.2-1.5-7.3.3-2.3 1.3-2.3 1.4-.5 1.6 1.1.1 2.6.2 3.3.2.6-.1 1.2.3 1.2.7 0 .5-.6 1.1-1.2 1.3-.7.3 2.8.6 7.7.7 5 .1 13.3.3 18.7.6 9.9.5 12.1-.2 9.3-2.9-1.7-1.8-1.9-2.7-.5-2.7.5 0 1.6 1.3 2.5 3l1.6 3h10.7c7.3 0 10.2-.3 9.2-1-1.3-.8-1.2-1 .3-1 .9 0 1.7.4 1.7 1s2.6 1 5.8 1c5.4 0 5.9-.2 5.7-2.2-.2-2.6-6.1-9.8-8.1-9.8-.8 0-1.4-.5-1.4-1 0-.6.9-1 2.1-1 1.1 0 1.8-.4 1.5-.8-.6-1 1.1-1.3 7.2-1.5 2.5-.1 4.6.4 5.1 1.1.5.8 1.9 1 3.9.6 2.4-.5 3.7-1.6 4.8-4 .9-1.8 2.4-3.6 3.3-3.9 2.4-.7 7.2 1.9 8.7 4.7 1 1.9 2.1 2.3 5.8 2.3 2.5 0 4.6-.3 4.6-.8 0-.4.3-.6.8-.6 3.1.5 4.9-.4 5.9-3 1.2-3.3.8-4.1-1.9-4.1-1.3 0-2-1-2.4-3-.4-1.7-1-3-1.5-3-1.2 0-1.1-3.8.1-4.2.6-.2.6-1.5.2-3.3-.7-2.3-1-2.6-1.5-1.2-.3.9-1.1 1.7-1.7 1.7-1.4 0-1.2-3.7.3-4.3.7-.2.8-.8.3-1.3s-1.1-.4-1.3.3c-.3.7-1.1 1.3-1.9 1.3-1.1 0-1.2-.4-.5-1.9.8-1.4.6-2.3-.9-3.6-1.4-1.3-1.7-2.2-1-3 .8-.9.6-1.4-.5-1.9-1-.3-1.5.1-1.6 1.2 0 1-.3 1.2-.6.4-.2-.6-1.7-1.2-3.2-1.2-1.5 0-3.3.6-4 1.2-1.1 1.1-1.3 1-.8-.5.6-1.6-1.1-1.7-26.9-1.7h-27.5l-1.7 3zM396 27.3c0 .8 2 2.2 4.4 3.2 3.9 1.6 4.4 2.1 3.4 3.8-.7 1.4-.7 2.7.1 4.3.8 1.8.8 2.4-.1 2.4-.6 0-.4.8.6 1.9 2 2.1.4 4-1.8 2.2-.9-.8-1.9-.5-3.5 1l-2.3 2.1-3.1-2.8c-1.8-1.6-3.3-3.2-3.5-3.5-.6-1.3-4.2.4-4.2 2-.1.9-.7.1-1.5-1.7-1-2.3-1.1-4-.5-5.7.6-1.5.6-2.7 0-3-1.7-1-1.1-2.5.9-2.5 1.1 0 2.1-.6 2.4-1.3.2-.6.8-.8 1.3-.4.5.5 0 1.5-1.1 2.4-1.9 1.5-1.9 1.5.5.8 1.4-.4 2.7-1.2 2.8-1.6.2-.5 1.1-.9 2-1 1 0 1.2-.3.5-.5-1.6-.7-.5-3.4 1.3-3.4.8 0 1.4.6 1.4 1.3zM564 1c0 .5-1.3 1-2.9 1-3.2 0-5.1 1.8-3.1 3 1.2.7-2.1 2-6.2 2.5-2.5.2-3.4 1.3-2.1 2.6.6.6 1.9.6 3.8-.1 2-.7 3.1-.8 3.9 0 1 1-.5 1.4-4.1 1.3-.7-.1-1.3.5-1.3 1.3 0 1.7 2.2 1.8 3.9.1 1-1 1.1-.8.5.7-.5 1.4-.4 1.7.5 1.2.7-.5 2-.1 3.1.9 1.2 1.1 2.6 1.4 3.9 1 1.5-.5 2.1-.2 2.1 1s-.5 1.5-2.2 1c-1.7-.6-2-.4-1.4 1.1.4.9.2 2-.4 2.4-.7.4-.8 1.8-.4 3.4.5 2.1 1.4 2.7 4.6 3.2 2.2.4 4.5 1.3 5.3 2 1.9 1.9 2.2 1.8 3.8-1.5 1.3-2.7 1.3-3.1-.2-4.5-1-.9-2.6-1.3-3.9-.9-2.3.6-2.9-.6-1.1-2.4.7-.7.3-.9-1.5-.6-3 .6-3 .4-1.4-3.4.7-1.5 1.2-4.2 1.3-5.8 0-2.5.4-3 2.3-2.8 2 .3 2.2 0 1.6-2.5-.4-1.5-1.6-3.5-2.8-4.4C567.3-.1 564-.6 564 1zm152 0c0 .5.6 1.1 1.3 1.2.6 0 1.7.2 2.2.2 1.6.2 4.4 2 4.4 2.8.1.5.1 1.2.1 1.6 0 1.5 7.9 5.3 10.2 5 1.4-.2 2.5-1.3 2.9-2.8.5-2.1.7-2.2 1.4-.8.4.9.4 2.2 0 2.8-.3.5-.1 1 .4 1 .6 0 1.1-.5 1.1-1 0-2 1.9-1 2.2 1.2.2 1.2.9 2.3 1.6 2.6 1 .3 1.3-.6 1.1-3.8-.2-2.9.1-4.6 1.2-5.4.8-.6 1.5-2.1 1.6-3.4.2-2.2.1-2.2-15.8-2.2C722 0 716 .4 716 1zm-90.8 4.2c-1.3 1.3-7.2 1.9-7.2.7 0-.5-.7-.9-1.5-.9-2.1 0-1.9 2.7.4 4 1.1.5 4 .8 6.6.7 4.1-.2 5 .1 7.1 2.6 1.3 1.6 2.4 3.7 2.4 4.7 0 1.8.3 1.8 3.3.5 1.7-.7 3.2-1.9 3.2-2.6 0-.6.9-1.5 2-2 3-1.1 3.5-1.1 3.5.7 0 .8.5 1.2 1 .9 1.7-1.1 1.1-3.7-1-4.2-2.2-.6-2.6-2.3-.8-4.1 1.8-1.8-1.8-2.7-5-1.2-4.3 2.1-11.2 2.9-11.2 1.4 0-1.8-1.5-2.5-2.8-1.2zm-98 2.5c-.8 1.8-.9 3-.2 3.7 1.4 1.4 1.2 4.2-.4 5.6-1.3 1-.8 1.9 3 5.6 2.4 2.5 4.4 4.9 4.4 5.5 0 1.4 5 7.9 6.1 7.9.4 0 1.9 1.1 3.3 2.5C545 40.1 547 41 549 41c4 0 3.9-2-.3-6.2-2.1-2.1-3.2-4.2-3.1-5.8.2-3-2.2-6-4.8-6-1 0-3.3-.7-4.9-1.6-2.9-1.4-3-1.8-2.4-5.7.4-2.3 1.4-4.8 2.3-5.5 2.4-1.9.3-4.6-3.9-5-2.9-.2-3.6.2-4.7 2.5zM309.4 20.4c-.6.7-1.5 2.2-1.8 3.3-.6 1.8-.2 2.2 2.3 2.8 1.6.3 3.2 1.3 3.5 2.1.6 1.7-1.7 2.9-3.8 2.1-.8-.3-1.7.1-2 .9-1.1 2.8-.7 3.5 1.3 2.4 2.6-1.4 3.8-1.3 4.4.3.4 1-.2 1.3-1.9.9-1.4-.2-2.4 0-2.4.7 0 .6 1 1.1 2.2 1.1 2.1 0 2.1 0 .3 1.4-1.1.8-2.3 1.2-2.7 1-.5-.3-.8-.1-.8.5 0 .5.5 1.3 1.1 1.6 1.2.8-4.7 5.5-6.8 5.5-.7 0-1.3.4-1.3 1s4.4 1 11.1 1h11.1l-.6-2.4c-.4-1.6 0-2.9 1.3-4.1 2.2-1.9 1.8-4.1-.9-5-1.1-.3-1.7-1.2-1.4-2 .3-.7.1-1.6-.5-2-.6-.3-1.4.1-1.7.9-.3.9-1 1.3-1.6 1-.5-.3-.2-1.4.8-2.5 2.3-2.6.3-7.4-3.7-8.8-1.9-.7-2.9-1.7-2.9-3 0-2.4-1-2.6-2.6-.7zm474.1 1.7c-.5 1.5-.2 2.5.9 3.1.9.5 1.4 1.3 1.1 1.9-.4.5-.1.9.5.9.7 0 1 .7.6 1.5-.3.8-.1 1.5.4 1.5.6 0 1-.7 1-1.5 0-1.6 2.7-2 4.6-.7 1.5 1 2.5 4.2 1.4 4.2-.6 0-1-.7-1-1.5s-.4-1.5-.9-1.5c-1.4 0-3.2 2.6-2.3 3.5.4.5-.1.5-1.1.2-1-.4-2.3-.7-2.8-.7s-.9-.9-.9-2-.5-2-1-2c-.6 0-1.5-1.1-2-2.5-1.1-2.8-5-3.5-5-.9 0 .8.5 1.2 1 .9.6-.3 1-.1 1 .4 0 1.5 3.7 5.1 4.5 4.3.3-.4.3.1-.1 1.1-.7 1.9-2.4 1.3-2.4-.8s-3.8-2.9-5.5-1.1c-1.4 1.3-1.3 1.6.5 2.9 1.7 1.2 1.8 1.6.6 2-1.4.6-1.6 3-.3 4.3 1.1 1.2.8 4.2-.5 4.7-.8.4-.7.6.3.6 2 .1 3.2-2.5 2.4-5-.5-1.4-.2-1.7.9-1.3.9.3 1.6 1.1 1.6 1.6 0 .6.8 1.7 1.8 2.4 1.6 1.2 1.5 1.3-.6.9-1.5-.3-2.7.3-3.5 1.6-1.4 2.3-5 2.5-6.7.4-.9-1.1-1.6-1.2-2.6-.5-.7.6-1.8 1-2.6.9-2.8-.3-3.6.2-4 2.6-.6 2.9.3 3.7 4.4 4.2 2 .2 2.8-.2 2.8-1.3 0-1.2.3-1.4 1.3-.6.7.6 2.7 1 4.5 1 2.1-.1 3.8.6 4.7 1.8 1.4 1.8 1.5 1.8 2.1-.4.8-2.9 2.2-2.8 3 .2.5 2.1 1 2.3 2.8 1.7 1.2-.5 3.4-.7 4.9-.6 2.2.3 2.8-.2 3.3-2.1.7-2.6 1.9-3.1 2.7-1.2.4.8.8.4 1.2-1 .4-1.2 1.4-2.2 2.1-2.2.8 0 1.4-.5 1.4-1 0-.6-.6-1-1.3-1-.8 0-2.2-.9-3.1-1.9-1-1.1-2.5-1.7-3.3-1.4-1.3.5-1.5.1-.9-2.1.5-2.1.2-3.2-1.1-4.2-1.6-1.2-1.6-1.2.6-.7 1.5.4 2.2.2 1.8-.4-.3-.5.1-2.9.9-5.2 1.1-3.1 1.2-4.7.4-5.6-1.1-1.3-3.4-1.4-4.5-.3-1.1 1.1-5.6-.5-6.6-2.3-1.3-2.5-2.6-2.4-3.4.2zM230 36.4c0 3.5.4 4.5 2 4.9 1.1.3 2 1 2 1.6 0 .7-.8.7-2.5.1-1.4-.5-3.1-.7-3.9-.4-.7.3-1.6-.1-1.9-1-.3-.8.1-1.7.9-2 .9-.3 1.2-1 .9-1.6-.4-.6-1.2-.7-1.8-.3-1.8 1.1-5 .3-6.4-1.5-.7-1-1.3-1.2-1.3-.7 0 .6.6 1.7 1.2 2.3 1 1 1 1.4 0 2.1-.9.6-.9 1 .1 2.3 1.7 2.2 18.5 3.5 19.3 1.5.3-.9 1.4-1.2 3-.9 1.4.2 2.4 0 2.4-.7 0-.6-1.2-1.1-2.7-1.1-1.6 0-3.5-.5-4.3-1-1.1-.7-.3-1 2.8-1 3.6 0 4.3-.3 4-1.8-.4-2.3-5.5-2.8-7.7-.8-2 1.8-3.6 1-2-1 1.4-1.7.3-3.4-2.2-3.4-1.6 0-1.9.7-1.9 4.4zm426.6 6.4c0 4.1 1.1 7.2 2.5 7.2.5 0 .9-.9.9-2 0-1.3-.5-1.8-1.5-1.4-1.7.7-2.1-2.1-.5-3.1 1.2-.7 5.1 2.6 4.3 3.8-.3.5.4.4 1.6-.2 1.8-1 2.1-.9 2.1.9s.6 2 6 2c4.7 0 6-.3 6-1.5 0-.9-.6-1.8-1.4-2.1-.8-.3-1.7-1.6-2-2.9-.8-3-5.1-4.5-10.5-3.5-2.3.4-4.4.3-4.7-.1-1.3-2.2-2.9-.6-2.8 2.9zM.2 53.7l.3 10.7 3.1.6c13.4 2.8 14.1 16.3.9 17.7l-4.6.6.3 11.6.3 11.6 6.5.7c3.6.4 7.5 1.3 8.8 1.9 2 1.1 3.1.8 8.8-2.2 9.2-4.8 13.9-9.1 17.1-15.7 2.4-4.9 2.8-6.9 2.8-14.7 0-7.6-.4-9.7-2.4-13.8-3.1-5.9-9.5-11.3-15.8-13.3-2.7-.8-6.2-1.9-8-2.5-1.8-.5-5.1-1.2-7.3-1.5-2.3-.3-5.2-.9-6.6-1.4-1.4-.6-3-1-3.5-1-.6 0-.9 4.3-.7 10.7zM98 55c-1.7 1.7-2 3.4-2 11.2-.1 13-.8 32-2.1 54.8-.8 13.8-.8 20.3 0 22.2 1 2.8 1.1 2.8 10.8 3 12.5.2 14.5 0 16.1-1.6.9-.9 1.5-5.3 1.8-13.6.2-6.8.8-12.8 1.3-13.3s6.3-.9 12.9-.8c10 .2 12.8-.2 17.8-2 10.6-3.9 17-12.8 18-25.1.5-6.3.3-8.2-2-14.3-2.9-7.6-4.9-10.2-11.1-14.5-5.9-4.1-14.7-5.8-36-7-24.4-1.3-23.2-1.3-25.5 1zm38.8 22.2c4.1 1.2 6.1 5.1 5.1 9.6-.4 1.9-1.1 3.8-1.7 4.4-1.2 1.2-7.7 2.7-11.9 2.8-4.1 0-5.2-2-5.2-9.5.2-9.3 2.7-10.7 13.7-7.3z"></path>
    <path d="M66.1 55.4c-.6.7-.8 2.6-.5 4.4.5 2.6.1 3.8-2.4 6.6-5.4 6.2-8.1 11.8-8.7 18.2-.6 6.8.3 10.2 4.3 15.4 2.4 3.1 2.7 4.4 2.7 11.2 0 7.1-.1 7.5-1.9 6.6-3.1-1.7-7.5 0-12.9 4.8-3.9 3.4-5.6 4.4-7.1 3.9-4.9-1.6-28.6-5.4-33.8-5.5-5.7 0-5.8.1-5.8 2.8v2.8l8.5-.4c4.7-.2 10.9.2 13.8.8 8.5 2 28.3 8.7 33.6 11.4 4.6 2.4 7.3 4.6 5.4 4.6-.4 0-.8 7.5-.9 16.8 0 9.2-.5 31.1-.9 48.7s-.8 34.7-.9 38c-.1 8.2-.9 8.7-12.2 8-14.2-.9-25.1 2.2-27.2 7.7-1.4 3.8-.7 5.1 2.4 4.5 1.3-.2 2.4-.1 2.4.4 0 1.4-4.3 3.2-8.5 3.6-4.6.3-11.2 3-13.7 5.5-1 1-1.8 3.1-1.8 4.8v3l4-4.4c5.8-6.3 8.5-7.2 17.9-5.8 9.4 1.5 19.6 6.4 22.8 11.2 4.5 6.6 1.9 15-4.1 13.4-2.6-.6-3.7.8-1.5 2.1.6.5.4 1.6-.7 3.3-1 1.5-2.5 5.4-3.4 8.6-1.4 5.5-1.8 6.1-4.9 6.9-8.3 2.1-22.7-3.4-27.9-10.6L0 305.5v5.8c0 3.8.4 5.9 1.3 6.1 10.3 2.8 24.2 5.6 27.8 5.6 4.5 0 4.8.2 7.8 4.9 1.7 2.6 4 5.6 5.1 6.6 3.4 3.1 3 3.6-6.8 10.1-5.5 3.6-6.9 4.2-24.1 10.2-9 3.1-12.4 5.2-10.9 6.7.2.2 3.6-.7 7.4-2 6.9-2.4 7.3-2.4 15.5-1 16.8 2.8 16.8 2.8 14.4 7.4-3.9 7.7-1 10.4 11.3 10.2 5.6-.1 7.2.1 6.6 1.1-.4.6-.8 4.5-.9 8.6l-.2 7.4-5.9 5.3c-6.7 6.1-10.4 7.4-8 2.7 4-7.9 3-10.5-5.3-13.2-3.9-1.3-4.7-1.9-4.9-4.3-.5-4.3-5.4-6.9-11.7-6.4-2.7.3-6.9 0-9.2-.6-3.1-.8-4.8-.8-6.7.1-3 1.3-3.8 4.9-.9 3.7 3.8-1.6 6.1-1.6 7.6 0 1.6 1.5 1.5 2-.9 6.1-1.9 3.2-2.3 4.9-1.6 5.6 1 1 1.8 0 7.6-9.6 1.6-2.5 2.2-2.8 5.8-2.3 2.2.3 4.3.8 4.6 1.2 1.1 1.1.6 10.9-.8 14.9-.9 2.9-1.6 3.6-3.8 3.6-3.5 0-16.1-4.6-18.4-6.7-1.7-1.5-1.8-1.5-1.8.3 0 1.9 8.1 6.1 19 9.9 4.1 1.5 18.2 3.8 29 4.9 2.5.2 4.8.5 5.1.5.7.1.5 5.9-1.1 45.1-1.2 27.5-3.8 77.1-4.5 84-.2 2.5-.7 10.8-1.1 18.5l-.7 14-4.3 3.8c-2.3 2-6.7 7-9.7 11-3 4-6.2 7.9-7.1 8.6-.9.7-1.6 1.9-1.6 2.7 0 .7-2 4.2-4.5 7.7-2.5 3.6-4.5 6.8-4.5 7.1 0 .4-3 6-6.7 12.4L.5 635.5V663c.1 22 .4 28.9 1.7 34.5 2.2 9.2 2.1 17.5-.3 22.2-1.7 3.2-1.9 6-1.9 21.5 0 17 .1 17.8 1.9 17.8 1.1 0 2.2.4 2.6.9.7 1.2-2.9 3.3-3.9 2.4-.3-.4-.5 42.7-.4 95.8l.3 96.4 5.5.7c4.3.6 13 1.5 18 1.8.5 0 .5 5.5 0 5.5-.1 0-.3 1.3-.4 3-.1 1.6-.6 3.8-1 4.8-.5 1.1-.4 1.7.3 1.7s2.2 2.1 3.3 4.8c2.4 5.4 3.3 6.2 7 6.2 3.4 0 4.5-1.6 1.6-2.3l-2.1-.6.7-29.3c.3-16.1.9-32.2 1.1-35.8.5-5.8 1.2-18.8 4.5-78 1.1-19.4 3.3-67.9 5.5-118.6.9-19.8 1.8-39.4 2-43.5.2-4.1.7-14.6 1-23.4.3-8.8 1-23 1.5-31.5.9-14.9 1.5-27.9 2.5-53.5.3-6.6.7-14.9 1-18.5.2-3.6.9-18 1.5-32 .5-14 1.2-28.7 1.4-32.5.3-3.9 1-21.3 1.7-38.8 1-25.7 1-32 0-32.6-1-.6-.9-1 .3-1.4 1.3-.5 1.6-2.2 1.6-8.9-.1-4.6.1-10.3.4-12.8.3-2.5.8-13.3 1.1-24 .4-10.7.9-19.8 1.1-20.2.3-.5 0-.8-.7-.8-1 0-1-.3-.1-1.2.7-.7 1.2-3.7 1.2-6.7 0-4.3.3-5.2 1.2-4.3 1.6 1.6 2.8 1.5 2.8-.2 0-.7-1-1.6-2.1-1.9-2-.5-2.1-1-1.5-10.4 2.2-32.1 6.3-177.5 4.6-162.8-.5 5-.7 1.4-.6-12.7 0-10.9.4-19.8.9-19.8.4 0 .7 5.7.7 12.7 0 6.9.2 12.4.4 12.2.2-.2.6-5.9.8-12.7.3-10.3.2-12.5-1.2-13.7-1.1-1-1.5-2.6-1.2-5 .4-3.1.6-3.4 2.1-2.3 1.2 1 1.2.8-.2-.8-1.5-1.8-1.7-3.8-1.6-12 .1-5.5.5-11.9.9-14.4.6-3.1.8-.1.8 9.8-.1 7.8.2 14.5.6 14.9.3.3.6-5 .6-11.8 0-6.8.3-14.2.7-16.3.5-3.4.4-3.8-1-3.3s-1.7 0-1.6-2.6c.1-2.3.3-2.6.6-1 .2 1.3.9 2.3 1.4 2.3.5 0 .8-3.7.7-8.3-.1-5-.3-6.5-.5-3.7-.7 7.9-2.3 7-2.5-1.6-.1-4.3-.1-8.9 0-10.2.1-2.6-.1-2.7-1.7-.8zM53.7 258.8c1.5.9 1.1 1.1-2 1.7-4.8.9-5 3.5-.3 3.5 1.9 0 3.8.5 4.2 1.1.5.8-.5 1-3.2.6-16.1-2.4-19.4-2.8-23.1-2.8-6.5.2-5.1-2.5 2.6-5 3.3-1.1 19.4-.4 21.8.9zm-7 9.3l11.3 2.1v19.4l-2.9 1.1c-2.8 1-3.1.9-4.6-2.4-2.9-6.1-9.8-11.7-17.5-14.4-3.9-1.3-7-2.6-7-3 0-1.5 4.4-3.9 8.9-4.8.2-.1 5.5.9 11.8 2zm10.5 33.3l-.4 6.3-4.6-.4c-4.1-.3-4.4-.2-2.9.9 1 .7 2.6 1.8 3.4 2.4 1.2.8.9 1.4-2.1 3.5-7.1 4.8-6.1 10.6 2.2 12.9l3.9 1-.7 4.7c-.5 3.2-.4 5 .4 5.5.7.5.4.8-.7.8-2.1 0-9.9-3.8-11-5.4-5.4-8.1-7.7-15.6-6.3-20.9.7-2.9 10.2-13.7 12-13.7.7 0 2.1-.9 3.1-2 3.2-3.5 4-2.5 3.7 4.4zm-4.8 39.9c2.7 1.2 3 1.8 3.3 6.7.1 3.4-.2 5.7-1 6.3-.9.7-.9 1 .1 1.4.6.2 1.2.9 1.2 1.5s-2.7.8-7.2.4c-4-.3-11.3-.8-16.3-1.2-4.9-.3-9.1-.7-9.4-.9-.2-.3 1.1-1.2 2.8-2.2 1.7-1 7.3-4.3 12.4-7.4 5-3.1 9.7-5.7 10.2-5.7.6-.1 2.3.5 3.9 1.1zm3.6 20.8c0 .5-.3.9-.7.9-.5 0-.8 1.9-.8 4.2 0 4.1-.2 4.3-3.6 5.2-4.6 1.1-10.9 0-10.9-1.9 0-.8.7-3.3 1.6-5.5l1.6-4.1 6.4.2c3.5.1 6.4.6 6.4 1zM44.4 597.6c-.2 5.2-.3 5.3-12.9 10.4-3.3 1.3-7.1 3-8.5 3.7-5.7 3-6.1 1.6-1.4-6 2.4-4 5.4-7.9 6.6-8.5 4-2.1 10.2-4 13.3-4.1 2.9-.1 3 0 2.9 4.5zm-.8 13.6c-.1.7-.5 1.9-.9 2.5-.5.7-.6 1.6-.4 2 .5.8-.5 18.8-1.9 36.3-.4 4.7-.8 11-.8 14-.1 3-.4 6-.8 6.5-.3.6-.4 2.7-.3 4.7.2 2.1 0 3.8-.4 3.8-.5 0-.8 2-.9 4.5 0 2.6.4 4.5 1.1 4.5.5 0 .8.2.6.5-.9.8-9.3-2.2-14.9-5.3l-5.5-3-.7-6.2c-.4-3.4-1.2-6.8-1.9-7.6-.7-.8-.9-2.7-.5-4.5.4-2.1 0-4.1-1.2-6.1-1.3-2.3-1.4-3.2-.4-3.5.6-.3 1.2-.9 1.2-1.5 0-.7-.5-.7-1.3.1-.8.6-1.7.8-2 .5-1.2-1.2-2.9 8.1-2 10.6 1 2.9.5 13-.7 13-.4 0-2.5-.7-4.5-1.6l-3.8-1.6.6-12.3c.6-13.1 1.5-15.8 10.3-32 1.5-2.8 3-5.7 3.4-6.5.4-.8 4.1-2.7 8.2-4.1 4.2-1.4 9.2-3.6 11.2-4.8 2-1.3 4.9-2.7 6.4-3.1 1.5-.5 2.8-.9 2.9-.9.1-.1 0 .5-.1 1.1zm-28.3 78.6c18.8 9.8 21.1 11.5 21.2 15.5l.2 3.4-5.6-2.2c-3.1-1.2-8.1-3.6-11.1-5.3-3-1.8-7.1-4-9.1-5.1C6.8 693.9.8 684 3.5 684c.3 0 5.6 2.6 11.8 5.8zM216.9 58.9c-4.2 1-10.6 3.1-14.2 4.9-3.5 1.8-6.8 3.2-7.2 3.2-1.5 0-8.5 6.2-8.5 7.6 0 .8-1.3 3.8-3 6.7-8.3 14.7-7.4 32.2 2.4 46.9 6.8 10.4 15.5 16.7 28.5 20.8 18.4 5.9 36.5 3.2 51.7-7.6 7.6-5.4 10.6-8.9 14.9-17.5 9.8-19.4 2.5-42.9-17.5-56.3-12.8-8.6-31.7-12.1-47.1-8.7zm27.8 25.7c13.1 8.5 15.3 25.9 4.6 36.2-7.2 7-14.5 9-23.6 6.5-6.7-1.8-13.2-7.7-15.4-14-1.9-5.5-1.6-14.4.6-19.6 2.2-5.1 9.6-11.6 14.4-12.6 6.6-1.4 13.9-.1 19.4 3.5z"></path>
    <path d="M295.7 65c-1.8 1.5-1.9 3.2-2.1 43.3-.1 45.2-.3 43.6 5.2 43.7 1.2 0 2.2.3 2.2.6s-3.1 3.5-6.9 7c-3.9 3.6-7.8 8.3-8.9 10.7-6.8 14.8-6.5 13.5-7 28.3-.5 15.4.9 29.4 3.6 35.2 3.8 8.3 22.4 30.2 25.7 30.2.4 0 3.1 2 5.9 4.4 5.6 4.7 13.3 8.9 25.2 13.6 4.2 1.7 10.2 4.5 13.3 6.2 14.6 8 13.1 6.6 13.1 12.5v5.2l-3.7-.2c-3.1-.2-4 .2-4.8 2-.5 1.3-1.2 2.3-1.5 2.3-.3 0-3.9-1.3-8-2.9-4.1-1.6-12.4-4.8-18.5-7.1-16.4-6.3-26.7-7.5-41.5-4.9-7.5 1.3-13.1 4.6-17.2 10.4-6.8 9.3-9 19.2-6.3 27.5.9 2.8 1.4 5.8 1 6.8-.8 2.2-.7 2.7.5 2.7.6 0 1.9 1.8 2.9 4 1.7 3.8 13.5 18.6 15.3 19.3.5.2 2.2 1.5 3.8 2.9 3.5 2.9 3.2 3.7-3.2 10.5-8.6 9-8.7 9.3-8.4 15.5.4 6.5 2 8.3 7.3 8.3 1.8 0 3.3.2 3.3.4 0 .7-3.1 7.1-6.3 13.1-2.8 5.3-3.5 6-5.9 5.7-3.1-.3-3.4.4-1.4 3.3 1.2 1.8 1 2.8-1.7 8.5-1.6 3.6-3.2 5.9-3.4 5.2-.3-.6-.9-1.2-1.4-1.2-.4 0-.4 1.2.2 2.7.8 2 .5 4.3-1.2 9.7-1.1 3.9-2.4 7.5-2.8 8.1-.4.5-1.4 4.3-2.1 8.2-.7 4-1.7 7.3-2.2 7.3-.5 0-.6.4-.3 1 .3.5-.1 5.3-1 10.7-2.5 15.4-3.4 22.2-4.1 30.8-.3 4.4-.7 8.9-.8 10-.1 1.3-.8 1.9-1.9 1.8-1.3-.1-1.7.4-1.2 1.5.4 1 .9 3.3 1.2 5.2 1.7 13.6 8.4 43.1 13.1 57.5 1.1 3.3 2.3 7.6 2.6 9.5.4 1.9 1.1 4.6 1.6 6 .6 1.4 1.6 5.4 2.4 8.8l1.5 6.4-2.7-.7c-5.8-1.4-39.4-11.6-42.7-12.9-3.3-1.4-3.4-1.7-2.4-4 .9-2 .9-2.9-.1-4.1-1.5-1.9-3-1.9-3-.2 0 .8-1.1 1.9-2.5 2.5-3.2 1.5-4.5 1.5-4.5.2 0-.6.6-1 1.3-1 1.6 0 11.9-7.7 13.1-9.7 1.1-2-.8-6-3.3-6.8-1.1-.3-2.9-.1-4.1.5-1.6.9-4.3.3-13.8-2.9-21.4-7.2-37.1-7.5-45.4-1-4.4 3.5-5.1 3.5-11.5.8-4.7-1.9-5.2-2.5-8.2-9.3-1.8-4-3.1-7.9-2.9-8.7.2-.9-.5-1.3-1.9-1.2-1.3.2-5.5-.9-9.5-2.3-5.9-2.1-8.6-3.8-14-9.1-5.9-5.6-7.2-6.4-10-6.1-3.1.3-3.3.5-3.1 3.8.3 6.6 2.1 21.5 2.8 23.8.9 2.7-.4 2.4-8-2.1-6-3.5-17.7-7.7-21.7-7.7-4.9 0-6.2 7.8-2.4 14.7.8 1.6 2.2 4.2 3.1 6 .8 1.7 3 4.4 4.9 5.8 4.1 3.2 16.6 8 23.1 8.9 2.5.4 6.9 1.4 9.7 2.3l5.1 1.5-4.9 2.9c-2.7 1.6-5.6 2.9-6.5 2.9-.9 0-6.3 4.9-12 10.9C79.2 635.2 78.1 638 77 658.5c-1.3 24.2-.3 33.7 4.4 42.1 1.5 2.7 2.4 5 1.9 5.2-4.2 1.6-8 4.1-9.6 6.3-2.8 3.8-4.5 14.8-4 24.8 1.1 19.5 0 60.5-1.7 62.6-.5.6-.8 5.8-.7 11.5.2 5.8 0 11.8-.5 13.5-.4 1.6-.9 9.3-1.2 17-.3 7.7-1 23.2-1.6 34.5-2.7 51.5-2.8 60-1.1 65.2.8 2.8 2.4 5.4 3.6 6 1.8 1.1 26.9 1.3 28.5.3.4-.2 5.8-.5 12.1-.6 6.8-.1 12.8-.7 14.6-1.4 4.3-1.8 8.4-7.5 8.3-11.6-.1-1.9.3-13.1.8-24.9.5-11.8.5-22.7.1-24.2-.9-3.3 1.3-12.3 3.9-15.8l1.9-2.5h18.9c12.5 0 19.8-.4 21.6-1.2 1.4-.7 5.3-1.3 8.6-1.4 12.5-.5 28.7-8.4 38.2-18.6 5.4-5.9 15-20.1 15-22.3 0-.6.8-2.5 1.7-4.3 3-5.9 5.4-20.9 5.7-36.2.2-11.5-.8-18.3-3.5-24.1-1-2.2-1.9-5.6-1.9-7.5 0-2.5-.8-4.3-2.5-5.9-1.4-1.3-2.8-3.9-3.1-5.8-.4-1.9-1.8-4.4-3.2-5.6-1.3-1.1-3.9-4.3-5.8-7-2.5-3.8-3.1-5.3-2.3-6.7.7-1.4.3-2.4-1.8-4.4-1.5-1.4-3.1-2.5-3.5-2.5-1.2 0-1.9 1.8-.8 2.5 1.4.9 1.3 2.5-.3 2.5-1.4 0-8-3.5-11.7-6.2l-2.4-1.8 3.6-3.7c5-5.3 7.3-10.4 11.8-26.1 2.3-8.1 5.6-17 8.1-21.6 4-7.7 4.1-8.1 3.7-15.8-.4-6.6-.2-7.8 1.1-7.8.9 0 7.9 2.2 15.6 4.8 13.3 4.6 14.1 5 15.1 8.1 1 3.2 1.1 3.2 2.5 1.1 1.4-2.2 1.5-2.2 7.4-.5 6.4 1.8 8.9 3.6 9.9 7.2.6 1.7-.1 2.7-3.6 5.1-2.4 1.6-7 4.3-10.3 6-3.3 1.6-6.9 4-8 5.1-1 1.2-5.4 4-9.7 6.3-8.5 4.4-12.8 8.6-12.8 12.4 0 1.3 2 6.5 4.5 11.4 3.8 7.6 4.9 9 6.9 9 3.4 0 17.1-5.9 27.7-12 4.9-2.7 9.5-5 10.2-5 .8 0 3.2-1.3 5.5-3 6.8-4.9 8.5-4.9 12.1.3 1.7 2.5 3.8 5.3 4.7 6.1.8.9 1.4 2.1 1.2 2.8-.4 1.2-1.3 1.2-22.7 1.6l-13.4.2-4.3 4.4-4.4 4.3.5 16.9c.8 29.8.3 76.1-1.1 100.6-.4 8.3-.9 10.8-2 10.8-1.9 0-1.8 1.7.3 2.8 1.4.9 1.6 5.2 1.7 46.2l.1 45.2 3.2 2.8c4.5 4 12.7 4.9 32.8 3.6 5.5-.4 14.7-.8 20.5-1 5.8-.1 11.5-.7 12.6-1.4 2.3-1.2 24.8-1.8 27.7-.7.9.4 2.4.2 3.2-.5 1-.8 6.7-1.2 19.3-1.2 16.5 0 18.1-.1 21.7-2.1 6.2-3.5 6.5-4.8 6.3-26.7-.2-16.2-.5-20.1-1.9-23.1-3-6.2-3.4-6.3-18.7-5.4-7.5.4-20 .8-27.7.9-7.7.2-16.5.6-19.6 1-5.1.8-5.8.6-8.5-1.7-3-2.6-3.1-3.4-3.4-16.7-.1-5.4 1.3-11 3.2-12.7 2.3-2.1 16.9-3.3 23.3-2 2.2.5 6.7.6 9.9.3 3.3-.3 10.7-.8 16.5-1 13.2-.4 17.5-2 19.7-7.3.9-2.1 1.7-3.9 1.9-4.1.9-1 4.8 2.4 6.4 5.7 1.2 2.3 3.2 4.3 5.1 5.1 1.7.7 4.4 3.2 6 5.5 3.8 5.5 8.6 9.5 11.3 9.5 1.2 0 2.9.5 3.7 1 1.1.7 1.7.5 2.2-.8 1.5-3.8.7-8.7-2.4-14.6-3.1-5.7-3.2-6.6-3.1-15.5.2-5.2.7-9.9 1.2-10.4.6-.6 1.8.5 3.4 2.9 2.8 4.5 10.1 11.4 12 11.4 1.5 0 5.9-4.5 7.5-7.6.6-1.2 1.4-5.2 1.8-9 .3-3.8 1.4-10.1 2.4-13.9 2-7.6 2.7-12.2 3.5-23 .3-3.9 1-8.4 1.5-10 .5-1.7.8-4.8.7-7l-.2-4h4c3.6 0 4.2.4 6.2 4 2 3.7 2.1 4.7 1.6 17.5-1.2 25-.3 74.6 1.8 101.5.7 9.3 1.2 22.3 1.1 28.8l-.2 11.8 3.4 3.6 3.3 3.7 26.5-.1c28-.1 28.6-.2 32.2-5 1.7-2.3 1.8-4.8 1.9-31.6.1-28.1-.6-60.5-1.9-81-.6-8.5-.4-10 1.1-11.7 1.6-1.8 1.6-2 .2-2-2.4 0-3.2-1.9-3.3-8.5-.1-3.3-.7-10.3-1.3-15.5-1.7-12.9-.6-16.4 5.4-19.1 4.2-1.9 4.8-1.9 10.5-.4 3.3.9 6.5 1.3 7.1 1 .5-.4 4.2-.7 8.2-.8 5-.1 8.1-.7 10-2 3.3-2.1 6.8-8.7 5.7-10.7-.4-.8-1-6.5-1.4-12.5-.3-6.1-.8-12.4-1-14-.3-1.7-.8-5-1.1-7.5-.4-2.5-1.1-5.3-1.6-6.2-1.7-3.2-7.7-4.3-21.3-4.1-7.1.1-13.4-.1-14-.6-3.2-2.4-59.9-22.6-69.3-24.5-3.1-.7-3.3-.9-6.5-9.8-.6-1.8-1.7-4-2.4-4.8-.7-.8-1.4-2.7-1.6-4.1-.2-1.4-1.8-4.3-3.6-6.4-3.1-3.8-3.2-3.8-3.3-1.5-.2 4.2.2 6.4 1.6 8.6.7 1.1 1.5 4.5 1.7 7.5l.3 5.4-2.9-.2c-4.1-.3-5.3-1.8-7.2-9.3-2.6-9.7-2.4-23.1.3-30.5 1.2-3.3 2.5-7.7 2.9-9.9.5-3.2 1.4-4.3 5.2-6.5 2.4-1.4 6.8-4.4 9.6-6.7 5-3.9 19.8-12.4 21.7-12.4.6 0 1.7.6 2.4 1.4 1.6 1.5 6.4 1 6.6-.8.1-.6.1-1.9 0-2.8-.3-2.6 3.5-3.3 15.8-3l11.3.3 6-6c3.2-3.3 6.8-6.3 8-6.7 1.2-.3 2.9-1.4 3.7-2.3.9-1 4.3-2.5 7.6-3.5s7.2-2.2 8.7-2.6c3.2-1 3.8-.5 3.8 3.4 0 1.7.9 5.6 2 8.6s2 5.6 2 5.7c0 .1 2.7 3.2 6 6.9 4.3 4.9 6.8 8.9 9.1 14.8 5.9 14.7 12.7 21.9 21.7 23.1 7.5.9 12 2.4 16.9 5.6 2.6 1.6 5.4 2.9 6.3 2.9.9 0 3.2.7 5 1.6 2.7 1.4 5.7 1.6 18.4 1.2 14.2-.5 15.5-.7 19.8-3.2 2.4-1.4 5.2-2.6 6-2.6 1.9 0 13.2-8.8 17.1-13.3 5-5.9 6.7-10.8 6.7-20 0-6.4.6-10.1 2.6-15.8 4.3-12.6 2.1-21.3-8-31.2-2.9-2.9-9.5-9.3-14.7-14.4-5.9-5.7-12-10.5-16.3-12.9l-6.9-3.7 7.4-2.9c4.4-1.8 8.9-4.4 11.2-6.6 3.5-3.4 3.7-3.9 3.6-9.7 0-3.3-.5-7.6-1.2-9.5-1-3.1-1.7-3.5-4.9-3.8-2-.2-5.1.4-6.8 1.3-4.1 2.1-4.6 1.5-2.1-2.6 2.6-4.3 2.6-6.6.1-7.4-4.3-1.4-20 3.4-27.5 8.4-4.9 3.2-6.3 4.7-9.4 11.1-4.7 9.6-5.6 10.1-12.5 6.7-6.3-3.1-14.3-3.6-22-1.3-5.4 1.7-16.9 8.2-24.1 13.9l-5 3.9-7.8-.6c-7.8-.7-11.7.2-11.7 2.6s5.4 8.9 9.6 11.5c2.4 1.6 4.2 3.2 4.1 3.8-.2.5-4.4 2.6-9.3 4.5-5 1.9-10.3 4.5-11.9 5.6-5.8 4.1-19.8 10.2-28.5 12.4-10 2.5-23.4 6.3-30.2 8.7-7.4 2.6-10.3 2.6-8.3-.1 9-12.1 8.5-11.6 12.5-11.6 2.2 0 4.2-.5 4.5-1 .4-.6-.8-1-2.9-1-2 0-3.6-.3-3.6-.7 0-.3 2.6-3.6 5.8-7.2 3.3-3.6 6.4-7.6 7.1-8.9.7-1.3 3.8-5.1 7-8.6 3.9-4.4 6.5-8.5 8.4-13.3 1.5-3.8 4.6-9.9 7-13.5 2.3-3.6 5.1-8.2 6.2-10.3 1.1-2.2 3.9-5.9 6.3-8.5 5.7-5.9 8.3-11.7 12.8-28 3.6-12.9 3.8-14.2 3.8-29.5.1-15.5 0-16.3-3.1-25-1.8-4.9-3.1-9-2.9-9.2.1-.2 2.1.4 4.4 1.3 5.2 2.1 8.9 1.2 10.3-2.3 1.3-3.6.1-12.8-2.4-17.8-2.6-5.2-11.9-14.8-18.9-19.7-3.2-2.1-5.8-4.3-5.8-4.8 0-.7 1.7-4.7 4.6-10.8.1-.1 5.3.5 11.5 1.4 6.3 1 13.7 1.6 16.4 1.6 2.8-.1 6.6.3 8.6.9 3.1 1 4.1.9 6-.5 1.3-.9 4.3-1.6 6.7-1.6 3.6 0 5.3.8 10.2 4.5 7.1 5.5 14.9 9.2 21 10.1 2.5.4 5.5 1.3 6.7 2.1 1.9 1.3 2.7 1.2 7.1-.7 6-2.6 8.4-5 11.2-11.2 2.6-5.9 3.4-12.2 2.6-19.2-.6-4.7-1.4-6.2-4.9-9.9-5.7-5.8-12.4-8.8-28.7-12.7-8.7-2.1-19.1-5.5-26.5-8.6-4.4-1.9-9.6-3.7-11.5-4-4.4-.8-19.5-7.9-21.9-10.3-1-1-2.4-1.8-3.2-1.8-2.6 0-17.3-7.3-20.2-10.1l-2.8-2.6.2-13.6c.2-26.6 1.4-43.2 3.4-47l1.8-3.4 2.3 2.9c2.1 2.6 2.9 2.9 7.8 2.8 4.8-.1 6.3.3 11.4 3.6 7.9 5.2 16.1 8.1 25.6 9.1 12.7 1.5 13.5 1.1 27.5-14.5 15-16.8 15.3-18.4 6-29.3-2.5-2.9-4.4-4.2-6.1-4.2-1.4 0-8.2-2.8-14.9-6.3-13.7-7-22.5-10.9-28.1-12.7-2.1-.6-3.8-1.4-3.8-1.6 0-.3 1.9-1.3 4.3-2.3 6.6-2.9 6.9-3.5 6.3-15.5-.5-9.5-1.6-14.6-3.2-14.6-.3 0-3.1 1.5-6.2 3.3-8.7 5.1-11.7 6-16.4 5.3-12.7-2.1-19.9-9.4-21.2-21.8-1.1-10.5 3-18 12.1-21.9 7.1-3 13.7-2.5 21.7 1.6 7.3 3.7 9.1 4.1 10.1 2.4.4-.5.4-5.8 0-11.6-1-14.3-1.8-15-20.5-17.2-14.9-1.8-30.3 3.7-41.6 14.7-7.3 7-10.1 13.4-11.6 25.8-.9 7.2-.7 9.1 1.1 15.9 2.7 9.7 6 15.6 12.7 22.3l5.2 5.2-2.7.6c-7.6 1.7-16.5 4.7-20.3 6.9-4.7 2.7-19.1 18.7-25.3 28.3-2.2 3.3-4.5 6.1-5.1 6.2-1.4 0-15.4-14.6-15.4-16 0-.6.7-1 1.5-1 2.8 0 2.9-2.9.1-5.1-1.4-1.1-2.6-2.8-2.6-3.8 0-2-1.9-4.1-3.7-4.1-1.7 0-1.7 3 0 5.5 2.3 3.4 2.8 5.5 1.1 4.8-.7-.3-1.4-1.4-1.4-2.4s-.6-1.9-1.2-1.9c-.7 0-3.9-2.6-7.1-5.7-6-5.8-6-5.8-1.2-8.5 15.2-8.6 20.2-29.4 10.2-42-3.6-4.5-10.2-7.8-22.6-11.3-11.4-3.2-14.1-4.8-14.1-8.5 0-2.3.7-3.1 4.1-4.4 3.6-1.5 4.6-1.5 9.6-.2 3 .8 6.3 2.2 7.3 3.1 1.1 1 3 1.5 4.7 1.3 2.3-.2 3.3-1.3 6-6.8 1.8-3.6 3.3-7.3 3.3-8.2 0-4.9-14.4-10-28.6-9.9-18.7 0-30.7 8.1-33.9 22.8-1.1 5.2 1.4 13.8 5.2 18.3 3.9 4.5 14.3 10 23.5 12.3 11.5 3 16.1 8.1 12.1 13.5-4 5.4-13.3 5.4-20.8.1-9.6-6.9-9.6-6.9-12.3-5.5-1.3.7-4 3.4-6 6l-3.7 4.8-15.5-.1c-11.3-.1-17.4.3-22.5 1.5-3.9.9-7.7 1.7-8.5 1.9-.8.2-2.7.6-4.1 1-3.5.9-4-.2-4.3-7.8-.4-10.1-.8-9.9 16-9.6l14.5.3 5.7-5.1c8.1-7.1 10.5-12.2 10.6-22.5.1-7.1-.3-9.1-2.6-13.8-3.1-6.5-7.5-10.9-14.2-14.5-4.2-2.2-6.8-2.7-19-3.6-25.3-1.7-34.7-1.7-36.9.1zm39.6 22.3c1.2.8 2.8 2.6 3.6 4 1.1 2.1 1.1 2.9 0 5.3-.8 1.6-2.5 3.4-3.9 4.1-3.2 1.6-11.2 1.7-12.8.1-1.6-1.6-1.5-12 .1-14 .6-.9 1.9-1.8 2.7-2 2.1-.6 7.6.7 10.3 2.5zm41.3 55.3c17.3 2.8 30.1 6.5 37.5 11 3.1 1.9 6.5 3.4 7.5 3.4 1.1.1 6 4 10.9 8.8 9.7 9.4 29.8 31.6 30.3 33.5.2.7 2.5 3.3 5 5.8 2.6 2.5 7.4 7.6 10.7 11.3 3.3 3.8 6.7 7.6 7.6 8.5 1.4 1.4 5.7 6.6 16.9 20.5 1.9 2.4 6 7.2 9.1 10.7 3.1 3.5 6.5 7.8 7.5 9.5 2.5 4.1 15.2 18.9 24.4 28.7 4.1 4.4 8.6 9.6 10 11.6 1.4 2 5.4 6.3 8.9 9.6s7.6 7.1 9 8.5c1.5 1.4 5.7 5.4 9.4 8.9s6.5 6.6 6.2 7c-.4.3-8.6.6-18.3.5-13.4-.1-19.1-.5-23.3-1.8l-5.6-1.7.5-4.8c.5-5.4-2-15.5-4.6-18.5-3.3-3.6-9.3-6.7-12.5-6.5-1.8.2-5.9 0-9.3-.5-4.8-.6-7.2-.4-11.7 1.2-5.8 1.9-6.6 1.6-4.5-1.8 1-1.6.8-2.7-1-6.2-3.6-6.8-10.5-17.4-13.3-20.5-1.4-1.5-4.2-5.1-6.1-7.8-4.1-5.7-7.9-8.8-14.3-11.5-2.5-1.1-4.5-2.6-4.5-3.5 0-.8-2.5-3.2-5.6-5.2-4.6-3.1-6.5-3.7-10.4-3.7-5.8.1-12.5 2.5-20.5 7.4-5.1 3.2-7.1 3.8-13.5 4.3-7.7.5-16.8 3.4-20.7 6.5-1.2.9-2.5 3.4-2.9 5.5l-.6 3.8 3.6-.6c3-.6 3.5-.5 3.1.7-.7 1.8-3.5 3.3-9.2 4.9-4.3 1.2-8.5 4.5-11.5 8.9l-1.6 2.5-5.4-2.9c-12.4-6.8-24.4-12.5-26.3-12.6-2 0-9.7-4.2-20.8-11.4-7.2-4.6-18.9-15.6-21.9-20.5-1.2-2-3.2-4.6-4.3-5.8-4.6-4.8-6.4-12.1-7.1-29.5-.6-14.7-.5-16.9 1.4-22.8 3.5-11.5 11.2-23.4 17.1-26.6 1.9-1.1 5.1-3.2 7-4.8 6.6-5.3 17.9-9.2 36.5-12.5 3.3-.6 6.2-1.3 6.5-1.6 1-1 10.4-.2 24.7 2.1zM550 157.4c5.2 2 10.2 3.6 11.1 3.6 2.3 0 20.2 7.7 37.3 16.1 11.4 5.6 15.3 8 16.7 10.3 2.8 4.7 2.4 7.2-2.1 11.6-2.2 2.2-4 4.4-4 5.1 0 .6-3.5 4.7-7.7 9l-7.6 7.9h-6.2c-9 0-21.7-4.2-29-9.5-1.6-1.2-5.5-2.9-8.6-3.8-3.5-1.1-7-3-9.7-5.5-3.9-3.6-4.1-4-3.2-7.3 1.2-4.2 1.3-11.2.1-10.5-.4.3-1.1 2.6-1.4 5.1-.7 5-2.2 8.5-3.7 8.5-.5 0-2-2.1-3.2-4.8-1.8-3.8-2.3-4.3-2.6-2.5-.2 1.2.6 4 1.6 6.2 2.1 4.3 2.2 8.6.2 13.5-.6 1.6-1.3 7.5-1.5 13-.3 5.6-.8 11.9-1.2 14.1-.3 2.2-.6 8.8-.6 14.7.1 6-.2 10.8-.7 10.8-1.4 0-10.6-9.8-14.5-15.4-6.2-8.9-22.3-28.3-31.2-37.6-2.9-3-6-6.6-7-8-.9-1.4-2.2-2.8-2.9-3.2-1.2-.8.9-7 4.9-14.5 3.2-6 19.8-23.7 24.1-25.7 8.6-4.1 17.4-5.5 30.6-5.2 11.5.3 13.2.6 22 4zm-101.6 94c3.5 1.5 5.6 3.7 4 4.3-2.4.9-3.7 2.3-4 4.4-.2 1.3-.7 4-1.2 5.9-.6 2.4-.5 4.3.5 6.2 1.3 2.6 2.4 3.2 11.4 5.3 2.9.7 14.7 11.4 17.4 15.7 1 1.6 2.6 2.8 3.6 2.8s2 .4 2.3.9c.3.4 1.7.6 3.2.3 2.1-.4 2.5-.9 2.1-2.8-.6-3.4.8-3 3.8 1.1 3.2 4.1 4.2 10.2 2.3 12.8-1.1 1.5-3.4 1.9-13.9 2.3l-12.5.6-1.9-4.2c-2.5-5.5-9.4-11.5-15.7-13.6-6.3-2.1-17-2.3-22.6-.5l-4.2 1.4-3.6-4.1c-4.8-5.7-10.5-8.8-18.7-10.4-7.7-1.4-8.4-2.9-2.8-6.2 2.9-1.7 5.2-2 14.7-1.9 10.5.1 11.3-.1 11.8-2 .3-1.1 0-2.9-.5-3.9-.7-1.3-.7-2.3 0-3.2.6-.8.9-2 .6-2.8-.7-1.7 5-7.2 9-8.6 4.3-1.5 11-1.4 14.9.2zm7 8.5c.4.5 2.5 1.2 4.9 1.6 10.1 1.7 17.3 9.7 22.8 25.5 1.1 3.4 1.8 6.4 1.5 6.8-1.3 1.3-7.7-3.3-11.4-8-3.9-5.2-9.1-8.7-15.7-10.8-5.7-1.7-8.5-3.7-8.5-6 0-3 1.4-3.1 6.4-.5 2.5 1.3 4.6 2.1 4.6 1.7 0-.4-2-2.8-4.5-5.2-2.4-2.4-4.2-4.7-3.9-5.2.7-1.1 3.1-1 3.8.1zm-37.6 2c1 .6.5 1.1-1.7 2.1-4.3 1.7-3.9 3 1 3 2.7 0 3.9.4 3.7 1.2-.3.9-4.5 1.3-15 1.3-15.2.1-16.1-.2-11.1-3.9 4.7-3.5 19.7-5.9 23.1-3.7zm-16.3 20.7c12.1 2 20.5 10.5 17.2 17.2-.9 2-2 2.7-4 2.7-2.9-.1-3.6 1.2-1.2 2.1 1.1.5 1.2 1.1.5 2.4-.6 1-1 4.7-1 8.2 0 3.5-.4 6.8-.8 7.5-2.5 4-16.1 4.5-23.8.9-6.7-3.1-12.3-8.2-14.5-13.1-2.6-5.6-2.4-6.4 1.4-6.2 1.7 0 5-.3 7.2-.7 3.3-.7 3.8-.6 2.8.5-1.9 1.9-1.6 6.3.5 8.9 1.3 1.7 2.9 2.2 6.5 2.2 6.1.1 8.7-2.1 8.7-7.4 0-4.1-1.4-4.8-5-2.6-1.7 1.1-2.3.9-4.2-1.1l-2.3-2.3 10 .5c9.2.6 9.8.5 7.2-.9-1.5-.8-5.7-1.8-9.2-2.1-3.6-.3-6.8-1-7.1-1.4-.3-.5.2-.9 1-.9.9 0 1.6-.5 1.6-1 0-.6-.4-1-1-1-.5 0-1-.7-1-1.5 0-.9-.9-1.5-2.2-1.5-3 0-5.2 1.5-4.4 2.9.4.6 0 1.1-.9 1.1-1.1 0-1.5.5-1.2 1.4.4 1-.7 1.7-3.8 2.5-6.9 1.7-7.4 1.6-6.5-2.2 1.3-5.2 2.1-7 5.7-11.4 1.8-2.3 4.3-4.3 5.6-4.6 2.8-.5 13 0 18.2.9zm153.6 9.9c3.8 2.5 7.9 4.5 9 4.5 1.1 0 3.4.7 5 1.6 1.7.8 3.6 1.3 4.3 1.1.7-.3 3.5.6 6.2 1.9 2.7 1.3 5.6 2.4 6.4 2.4.9 0 2.4.6 3.5 1.4 1.1.7 6.1 2.3 11 3.5 5 1.2 10.3 2.9 11.9 3.7 1.6.8 4.4 1.4 6.3 1.4 4.5 0 16.8 4.4 20.9 7.5 1.8 1.4 3.8 4.1 4.4 6.1 2.7 8.1-1.3 22.4-7.7 27.4-2.2 1.7-3.5 2-6.8 1.4-6.5-1.1-14.7-3.4-17.4-4.9-1.4-.8-3.7-2-5.1-2.6-2.4-1.3-8.9-7-23.5-20.9-3.8-3.6-8.6-7.8-10.5-9.2-4.1-3-17.3-16.3-17.9-18.1-.2-.7-2.2-3.5-4.3-6.3-5.9-7.9-5.4-8.2 4.3-1.9zm-107.4 2c4.2 1.8 12.1 8.7 14.2 12.4 1 1.8 1.4 5.4 1.4 11.1-.2 10.9-2.6 16.1-9.9 20.3-4.5 2.7-5.5 2.9-11.4 2.4-10.1-.9-15.2-3.1-19.7-8.5-5.3-6.3-7.3-10.3-7.3-14.9 0-4.1 4.2-12.3 8.1-16 1.3-1.2 3.3-3.1 4.3-4.2 3.5-3.7 14.3-5.1 20.3-2.6zm-138.1 5.1c11.1 2.2 20 5.1 27.9 8.9 37.5 18 36 17.4 49 18.5 6.6.6 15.4 1 19.4.9l7.5-.2 5.6 5.2c3 2.9 6.2 5.6 6.9 6 1.1.7 1 1.3-.3 3.4-1.7 2.5-12.9 12.7-14.1 12.7-.3 0-2.9 1.6-5.8 3.5-2.8 1.9-5.6 3.5-6 3.5-.5 0-3.4 1.5-6.5 3.4-3.2 1.9-8.4 4.2-11.7 5.1-3.3 1-6.9 2.1-8 2.6-1.1.4-6.3 1.8-11.5 3-7.5 1.7-12.6 2.1-24.5 2.1-14.3 0-15.4-.2-24-3.2-15.1-5.3-21.1-8.7-28.4-15.9-9.5-9.5-12.7-15.3-15.1-27.1-2.8-14.4 4.6-27.4 18.3-32.1 6.5-2.3 11.7-2.3 21.3-.3zm214.6 10.6c9.8 2.1 14 8 13.7 19.1-.3 7.5-4.6 21.3-7.4 23.7-1.1.9-3.4.3-10.4-2.9-4.9-2.2-11-4.6-13.6-5.2-4.2-1.1-4.5-1.3-3-2.9.8-.9 3.7-2.7 6.4-4 2.8-1.3 5.2-3.1 5.4-4.2.6-2.2-2.8-6.2-4.6-5.5-12 4.5-28.3 5.5-37.5 2.4-5.4-1.9-7.2-3.9-7.2-8 0-3.9 2.4-5 11.6-5.5l8.4-.5v2.7c0 3.9 2.4 3.2 6.7-2.1 2.1-2.5 5.6-5.4 7.8-6.4 4.7-2.2 15.6-2.5 23.7-.7zm-49.3 23.4c8.4 2.9 11.4 2.8 27.5-.7 4.9-1.1 9-1.8 9.3-1.6 1.3 1.3-1.8 4.2-7.6 7.2-6.8 3.4-9.9 5.9-8.4 6.8.5.3 4.3 1 8.6 1.6 6.6.9 10.1 2.3 23 8.8 17.1 8.8 25 15.4 29.3 24.6 4.3 9.3 2.4 16.9-3 11.8-1.2-1.1-2.5-2.1-2.9-2.1-.4 0-3-1.1-5.9-2.5-5.4-2.6-7.8-3.1-7.8-1.6 0 .5.6 1.4 1.4 2 .7.6 1.9 3.3 2.6 5.9.7 2.6 2.2 5.7 3.2 6.8 1.1 1.2 2.9 5 4.1 8.5 1.9 5.6 2.1 8.3 1.9 21.9-.2 15-.3 15.7-4 27-2.1 6.3-4.5 13.4-5.2 15.8-.7 2.3-2.7 5.9-4.4 8-5.4 6.4-8.1 10.4-13.6 20.2-2.9 5.2-6.4 11.2-7.7 13.3-1.3 2-2.6 5-2.9 6.6-.3 1.6-2.4 4.6-4.5 6.7-2.2 2.2-5.8 6.6-8.1 9.9-2.3 3.3-8.4 10.9-13.5 17-6.8 8-10.8 13.9-14.8 21.8-3 5.9-5.5 11.4-5.5 12.3 0 .8-1.1 4.1-2.4 7.3-1.4 3.2-3.4 9.3-4.6 13.7-1.2 4.3-2.8 10.3-3.6 13.1-.7 2.9-1.6 10.8-2 17.5-.5 10.7-.3 13.3 1.5 20.2 2.6 9.3 5.3 15 9.2 19.1 6.3 6.7 11.8 25.4 9.3 31.9-.9 2.3-2.2 2-5.1-1.4-1.4-1.7-2.8-2.9-3-2.6-.3.3-.7 12.8-.8 27.8-.1 15-.8 31.1-1.4 35.8-.6 4.7-1.4 10.3-1.7 12.5-.8 6.1-3.4 20.2-5 27.2-.8 3.4-1.4 7-1.4 8s-.4 2.5-1 3.3c-1.2 2-4-.6-9.5-9-2.3-3.6-5.1-7.3-6.3-8.4-2.5-2.2-5.2-1.5-5.2 1.4 0 3.7-2.5 2-5.5-3.8-2.6-4.9-3-5.4-3.3-3.2-.2 1.4.6 5.4 1.7 9 2.1 6.8 2.1 8-.4 6-.8-.7-2.2-1-3-.6-2.4.9-1.7 6.5 1.5 12.6 5.6 10.5 9.3 19.5 8.9 20.9-.2.6-5.1-4.2-10.9-10.7-5.8-6.4-12.6-13.7-15.1-16.2-2.6-2.5-6.1-7.1-7.8-10.2-1.8-3.2-4.5-6.5-6.2-7.5-1.6-1-2.9-2-2.9-2.4 0-.4-2.2-3.2-5-6.2-2.7-3-5-5.9-5-6.5 0-.5-2.5-3.7-5.5-7.1-3-3.4-6.2-7.7-6.9-9.6-.8-1.9-3.1-5-5-7-2-2-4.9-6.2-6.5-9.4-1.7-3.2-4.1-7.1-5.4-8.7-1.4-1.6-3.9-6-5.7-9.7-1.7-3.7-3.9-7.2-4.9-7.9-1-.7-2.7-3.1-3.9-5.3-1.1-2.2-3.4-5.3-5.1-7-1.8-1.6-4.8-5.7-6.7-9-6.6-11.2-7.9-13.2-11.4-17.2-4.4-5-11.7-15.1-16-22.1-3.7-6.1-16-32.9-16-35 0-.8-.7-3.5-1.5-6.1-6.3-19.2-8.8-27.4-11.9-40.1-1.9-8-4.5-17.2-5.7-20.5-1.2-3.3-2.5-8.9-2.9-12.5-.5-3.6-1.3-8.3-1.9-10.5-2-7.4 4.1-55.5 10.1-79 2.1-8.4 8.9-28.5 11.3-33.6 2.6-5.4 12.5-21.4 17.7-28.7 1.5-2.1 3.1-5.2 3.4-7 .6-3.1.5-3.2-2.5-3.2-1.7 0-5 .9-7.4 1.9-6.6 3-7.7 3.2-8.3 1.7-.6-1.5.9-5.1 3.2-7.6.8-.8 3.9-4.7 7-8.7l5.5-7.1 4.3 1.9c8.9 3.9 20.9 6 34.8 6l13.3.1 12.5 7.2c20.4 11.7 21.7 12.2 51.5 19.4 1.7.4 10.7.7 20 .6 18.9-.1 21.5-.6 35.9-7.5 6.3-3 9.9-5.6 16.9-12.5 12-11.8 14.1-15.1 13.5-20.9-.7-5.8-2.9-9-8.1-11.7-3.7-2-5.8-2.2-16.7-2.3-12.3 0-20.4 1.2-28.5 4.2-3.7 1.4-11.4 2.4-29.2 4-5.2.4-7.3.3-7.3-.6 0-.6.4-1.1.8-1.1.5 0 5.2-3.9 10.6-8.6l9.8-8.6 5.6.8c12.3 1.7 18.5.2 24.3-6 2.1-2.2 3.9-4.4 3.9-4.8 0-1.3 2-.9 9.9 1.8zm-8.1 25.6c.3 2.9 2 3.7 11.2 5.7 6.1 1.3 10.9 1.6 14.6.7 3.7-.8 4.9.9 3.4 4.9-.8 2.1-1.4 2.4-3.9 1.9-4.2-.9-15.6 1.3-23.2 4.4-5.5 2.3-7.9 4.1-15.5 12.2-4.9 5.2-10.1 11-11.5 12.9-3.3 4.2-4.8 3.4-4.2-2.3.7-6.7-.7-8.3-7.3-9.2-3.8-.4-5.7-1.2-6.1-2.3-2-5.5-8.9-8.4-13.9-5.8-1.9 1-4.5 1.3-7.5 1-3.9-.4-4.9-.1-7.8 2.3-1.8 1.5-4.2 4.7-5.2 7.1l-1.8 4.3-8-3.4c-8.1-3.4-18.9-9.2-22.6-12-1.7-1.4-1.8-1.7-.5-2.6.8-.5 3.4-1 5.7-1 7.8 0 23.8-5.3 35-11.6 6.2-3.5 6.4-3.5 17.8-3.3 6.3.1 11.8.5 12 .9.3.5.1 3-.5 5.5-1.6 6.9-.4 7.9 8.8 7.3 9.7-.7 13.8-3.8 16.1-12.1.9-3.1 2.1-6 2.6-6.6 1.2-1.2 5.1-1.9 9-1.7 2.5.1 3.1.6 3.3 2.8zm-17.6 4.6c-1.2 6.3-6.9 10.2-15 10.2h-4.5l.6-5.6c.3-3.1.7-5.8.9-5.9.9-1 16.5-3 17.4-2.3.6.5.9 2 .6 3.6zM492 377c0 .4-2.4 3.2-5.3 6.3-5.8 6-16.3 13.2-24.2 16.4-5.2 2.2-16.3 4.8-17.1 4-1-.9.8-3.4 3.6-5.1 1.7-.9 3-2.1 3-2.5 0-1.6 8.3-10.2 12.6-13.2 5.5-3.8 11.3-5.8 18.9-6.8 6.1-.7 8.5-.5 8.5.9zm-73 9c1.1.7 1.5 2.9 1.5 9.2v8.3l-6.1-.2c-7-.2-21.1-4.1-21.9-6.1-.7-1.9 3.1-8.9 5.6-10.2 1.1-.6 3-1 4.2-.8 2.4.3 2.7 2.2 1.2 9.2-1.1 5.5 1.6 4.4 3.4-1.5 2.8-8.9 2.8-8.9 6.8-8.9 2.1 0 4.5.5 5.3 1zm245.9 109.7c-2.1 6.2-4.6 9.6-6.4 8.9-1.5-.5-11.5 5.1-11.5 6.4 0 1.2 2.8.2 5.9-2.2 4.6-3.5 5.8-1.9 1.4 2.1-4 3.6-4.6 3.8-9 3.3-2.7-.2-5-.6-5.2-.8-.2-.2 1.3-3.9 3.4-8.2 3.3-7 4.2-8.1 8.9-10.5 5.8-3.1 12.8-5.6 13.8-5.1.4.3-.2 3-1.3 6.1zm19.7 6c.4 2.6.3 5.3-.3 6.2-1.7 2.7-6.9 5.7-16.5 9.6-13.1 5.3-15.3 5.7-17.5 3.3-1.7-1.9-1.7-2 1.1-4.1 8.7-6.5 29.3-19.7 30.8-19.7 1.2 0 1.9 1.2 2.4 4.7zm-61.5 12.4c2.2 1.1 3.9 2.5 3.6 3.2-.2.7-2.7 1.5-5.5 1.8-2.9.4-7.1 1.4-9.4 2.4-2.3.9-6.8 1.7-9.9 1.8-6.1.2-8.3 1.2-5.9 2.7 2.6 1.7 8.7 1.1 16.4-1.5 14.7-4.9 14.3-2.8-1.1 4.9-19.8 10-29.2 11.7-38.8 7.2-4.5-2.1-8.7-5.4-7.1-5.7.3-.1 3.8-.2 7.6-.3 6.9-.1 7.2-.2 10.3-3.8 10-11.6 29.7-17.9 39.8-12.7zm48.4 17.4c4.8 1.8 8.4 4.7 27 22.4 12.5 11.8 14.5 17.6 10.2 30.7-1.9 5.9-2.6 9.8-2.5 15.4.2 11.5-3.4 17.5-15.4 25.8-8.5 5.9-16.7 8.1-31.4 8.3-14 .3-16-.2-28.6-5.8-4.3-1.8-10.6-3.9-14-4.5-8.1-1.3-11.8-4.7-16.5-14.8-7.4-16.1-9.6-19.9-13.3-22.9-6.7-5.3-8.8-15.8-4.9-24.5 1.8-4.1 2.8-5 8.5-7.6 3.5-1.7 6.9-3 7.4-3 1 0 14-6 18.5-8.6 1.7-.9 3.9-2.2 5-2.7 1.1-.6 3.8-2.1 6.1-3.4 2.8-1.6 6.3-2.4 11.4-2.8 6.9-.4 12-2.3 12-4.5 0-.5 1.2-1.6 2.7-2.3 2.4-1.3 3.2-1.2 7.7.8 2.8 1.2 7.4 3 10.1 4zm-41.5-2.6c.8 1.6.5 2.3-1.8 3.9-4.4 3.1-24.9 13.2-34.2 16.8-4.7 1.8-9.8 3.9-11.5 4.7-2.7 1.4-7.3 3.4-16 7.2-1.6.7-4.8 1.9-7 2.6-9.1 2.8-14.7 6-19.6 11.4-6.4 6.7-9.5 7.9-16.9 6.2-6.7-1.6-11.2-.7-22.3 4.7-4.1 2-7.8 3.6-8.1 3.6-.9 0-22 12.3-25.3 14.8-1.8 1.3-3.3 2-3.3 1.6 0-.5 1.2-4.4 2.6-8.6 2.2-6.6 3.1-8.1 6.2-10 8.3-5.2 18.8-9.1 40.7-15.1 17.2-4.8 18.9-5.4 40-15.7 7.7-3.8 17.8-8.3 22.5-10.1 15.8-5.9 31.5-12.2 32.5-12.9.6-.5 3.7-2.2 7-3.9 7.1-3.6 12.9-4.1 14.5-1.2zm-508.3 38c2.3 1.1 4.8 2.1 5.6 2.1 2.5 0 6.6 5.5 8.7 11.4 1.1 3.3 1.8 6.1 1.6 6.3-.2.2-1.7-1-3.4-2.7-2.8-2.8-7.1-4.3-5.7-2 .9 1.4-.1 1.3-3.5-.5-1.6-.8-3.1-1.1-3.4-.6-.8 1.2 5.3 7 8.1 7.7 2.5.7 3.2 2.4 1 2.4-.7 0-3.4-.7-5.9-1.6-3.8-1.3-5.6-2.8-10-8.7-6.7-9-7.4-10.6-7-17.3l.4-5.4 4.6 3.4c2.6 1.8 6.6 4.3 8.9 5.5zm-33.2 9.6c4.1 2.6 9.8 5.6 12.7 6.7 2.9 1.1 5.7 2.4 6.3 2.9.5.5 1.5.9 2.3.9.8 0 4.6 1.5 8.5 3.3 4 1.9 8.7 4 10.5 4.7 2.6 1 3.1 1.7 2.6 3.4-.4 1.1-.7 2.2-.8 2.3-.5.6-14-2.7-14.9-3.6-.6-.6-2.7-1.1-4.6-1.1-4 0-19.9-4.2-24.7-6.5-3.1-1.5-4.9-3.1-6.9-6.5-3-5.1-4.3-7.7-5-9.9-.7-2.3-.6-2.4 2.9-1.8 2 .3 7 2.7 11.1 5.2zM190 586c6.3 1.3 23.3 7.5 23.7 8.7.2.6-3.4 2.6-7.9 4.7-7.5 3.2-8.7 3.5-12.3 2.5-2.2-.5-6.8-1.6-10.3-2.4-8.2-1.8-9.1-2.5-5.8-4.2 1.4-.7 2.6-2 2.6-2.8 0-1.2-.8-1.4-4-.9-3.4.6-4 .4-4-1.1s-.6-1.7-3.7-1.2l-3.7.6 2.2-2.2c3.3-3.3 12.3-4 23.2-1.7zm-41.6 4.8c.2.4-.4 2.5-1.4 4.7-2.4 5.1-2.4 5.2.1 6 1.6.5 2.8-.2 5.4-3.2 1.8-2.1 3.5-3.6 3.8-3.3.3.3 0 2.9-.7 5.9-1.4 6.1-3.1 7.3-9.4 6.7-5.6-.6-9.1-2.3-10.4-5.1-.9-2.1-.7-3 1.8-6.7 1.6-2.4 3.3-4.6 3.9-5 1.3-1 6.3-1 6.9 0zm21.2 8.6c2.7.8 8.5 2.2 12.9 3.1 4.4 1 8.9 2.3 10 3 1.1.7 3.6 1.5 5.5 1.8 1.9.3 8 2.1 13.5 4.1 8.9 3.3 21.2 7.2 34.5 11.1 2.5.7 7.7 2.3 11.5 3.5 3.9 1.2 9.5 2.8 12.5 3.6 3 .8 5.9 1.9 6.4 2.4 1.1 1.1 3.6 7.9 3.6 9.7 0 2.7-12.2.5-17.6-3.2-3.7-2.5-9.1-4.4-21.4-7.5-4.7-1.1-12-3.4-16.3-5-4.3-1.7-8.7-3-9.7-3-1.1 0-7.2-1.8-13.7-4.1-9.5-3.2-31.9-10.6-38-12.5-1.8-.5-1.7-8.4 0-8.4.7 0 3.6.6 6.3 1.4zm-39.2 7.5c1.1 2.1 2.7 3.1 6 4 6.2 1.5 15.5 1.4 20.4-.3 4.9-1.7 8.2-1.1 22.5 4.3 5.6 2.1 15.2 5.5 21.2 7.6 12 4.1 18.5 7 18.5 8.5 0 .5 1.4 3.1 3.1 5.9 4 6.3 3.7 10.4-1.4 21.1-1.9 4.1-5.4 13.3-7.6 20.5-2.3 7.1-5.5 15.4-7.1 18.3-3.3 5.6-9.3 10.7-14.1 11.7-1.6.4-3.3 1.4-3.8 2.4-1 1.8-8.6 4.5-16.1 5.6-2.5.4-5.6 1.3-7 2-10.1 5.1-28.1 7-38.5 4.1-8.4-2.4-24.4-9.3-28.7-12.5-5-3.7-11.6-11.5-12.3-14.5-2.2-9.9-2.5-12.9-1.9-19.9.5-5.5.3-8.5-.6-10.2-1-1.8-1-3.1-.1-5.6.6-1.7 1.1-6.3 1.1-10 0-8.5.8-10.7 6.3-16.1 2.4-2.3 5.6-5.9 7.1-8 3.2-4.2 17.7-14.2 22.2-15.2 1.7-.4 4.4-2 5.9-3.6 1.6-1.7 3-3 3.2-3 .1 0 .9 1.3 1.7 2.9zm162.3 62.3c6 8 6 8.5.7 11.6-2.5 1.5-9.2 5.7-15 9.4-5.7 3.6-11.8 7.1-13.4 7.7-2.9 1-3.1.8-5-2.9-1.1-2.2-3.3-4.9-5-6.1-1.6-1.2-2.7-2.6-2.5-3 1.4-2.1 33.4-21.9 35.6-21.9.4 0 2.4 2.4 4.6 5.2zm193.1 12.7c8.1 2.6 18.3 5.6 22.7 6.6 4.4.9 12.7 3.5 18.5 5.7 18.3 6.8 18.6 7.1 15.5 11.1-1.6 2.2-1.9 2.1-28-6.3-8.2-2.6-19-6-24-7.5-13-4-17.6-6.2-20.7-9.8-1.5-1.8-2.7-3.5-2.8-4 0-1.5 4.5-.5 18.8 4.2zm-131.7 82.6c3 3.6 6.8 9 8.5 12.1 1.7 3 4.6 7.1 6.5 9 2.1 2.1 2.9 3.8 2.3 4.4-.5.5-8.2 1-17.1 1.2-15.9.3-16.2.3-18.7-2.1s-2.6-2.9-2.6-13.6c0-10.9.1-11.2 2.8-13.7 3.3-3.1 4.6-3.6 9.3-3.7 3.2-.1 4.1.6 9 6.4zm-198.6-4.1c3.3.8 8.6 2.5 11.8 4 4.7 2.1 5.9 3.1 6.3 5.6.4 1.6 1 3 1.4 3 .8 0 3.4 5.1 3.2 6.3-.1.4-.3 2.7-.3 5-.2 5.8-5.5 15.7-8.4 15.7-.6 0-3.2-1.6-5.8-3.6-6-4.7-8.2-3.5-3.2 1.6 2.6 2.7 3.6 4.4 3.1 5.6-.5 1.3-.9 1.5-1.8.6-2.5-2.5-12.8-.7-12.8 2.2 0 1-1.6 1.5-5.2 1.8-6.9.5-7.5.3-9.9-4.3-1.7-3.5-1.9-5.5-1.6-18.7.3-12.8.7-15.3 2.6-19 3.5-6.9 8.9-8.4 20.6-5.8z"></path>
    <path d="M427.5 316.3c-3.7 3.1-4 8.6-.5 10.4 3.9 2 10.3 1.6 13.4-.8 4.7-3.7 2.4-8.5-3-6.1-2.2 1.1-2.5.9-3.8-2.3-1.8-4.1-2.6-4.3-6.1-1.2zM652.3 65.4c-2.8 1.5-3.2 2.7-2.8 7.6 1.7 21.9 2.4 34.3 2.2 38.5-.1 2.7.1 10.6.5 17.4.5 8.9.4 12.9-.4 13.9s-.9 1.5-.1 2c.6.4 1.4 2.4 1.8 4.4.4 2.1 1.3 4.2 2.1 4.9 1.9 1.6 54.1 2.4 55.9.9 1-.8 1.2-3.3.8-9.3-.8-12.3-.1-11.7-15.6-11.7-9.2 0-13.9-.4-15.1-1.3-2.2-1.6-2.7-9.4-.6-10.7.9-.5 6.6-.7 13-.3 15 .8 15.5.3 14.6-10.6-.4-4.7-1.2-8.1-2.1-9.1-1.2-1.2-4.3-1.5-13.6-1.7-7.6-.1-12.5-.6-13.5-1.3-.8-.8-1.4-3-1.4-5.6 0-5.8 1.8-6.5 14.8-5.7 5.5.3 11.1.3 12.6-.1 2.6-.6 2.7-.7 2.5-9.7-.1-8.6-.2-9-2.8-10.3-1.7-.9-8.7-1.6-20.1-2-9.6-.3-20.5-.8-24.2-.9-3.7-.2-7.6.1-8.5.7zm-68.8 1.2c-1.3 1.4-1.5 3.7-1 16.7.3 8.4 1 19.7 1.5 25.2s1.1 17.2 1.2 26c.3 13.7.6 16.3 2 17.7 1.6 1.6 4.3 1.8 26.1 1.9 13.3 0 25.2.2 26.4.5 1.2.2 3.1-.4 4.4-1.4 2.1-1.8 2.1-2.2 1.3-10.7-.6-6.1-1.4-9-2.4-9.6-.8-.5-7.7-1.1-15.3-1.5-13.2-.6-13.9-.7-14.7-2.9-.5-1.2-1.1-11.9-1.5-23.6-.9-30.6-1.3-37-2.6-38.5-1.8-2.2-23.2-2-25.4.2zm-124.9 1c-1.9 1.3-2 2.5-1.7 17.4.2 15.1.1 16-1.7 16-1 0-2.1.3-2.5.6-.9 1 .4 3.4 1.8 3.4.8 0 1.6.4 2 .9.3.5.8 11 1.1 23.3.5 18.3.9 22.6 2.2 24.1 1.3 1.5 3.2 1.7 12.6 1.6 8.2 0 11.7-.5 13.5-1.6l2.4-1.6-.6-26.1c-1-39.3-1.9-55.5-3.1-57.1-1.6-2.2-23.3-2.9-26-.9zM761.5 120c-.5 1.4-1.2 1.9-2.8 1.5-3.3-.8-6.6 2.4-6.9 6.5-.3 3.4-.2 3.5 3.4 3.5 2 0 4.2.6 4.9 1.2 2.3 2.3 3.2 1.4 2.6-2.8l-.5-4 2.4 2.6c1.3 1.4 2.4 3 2.4 3.6 0 .5.7.9 1.6.9 1.2 0 1.5-.6 1.1-2.2-.7-2.5.9-4.9 2.7-4.2 1.6.6 2.6-1.7 1.9-4.4-.7-2.8-3.3-1.7-3.3 1.4 0 1.3-.2 2.4-.5 2.4-1.3 0-6.5-4.5-6.5-5.6 0-2.2-1.8-2.5-2.5-.4zm-16.3 174.2c.8 11.6 2.1 14.8 5.9 14.8 1.9 0 6.6-5.6 9.2-10.9 2.3-4.7.4-7.9-7.1-11.9-9-4.8-8.9-5-8 8zm-732.8-8.7c-.4.9-1.4 1.4-2.3 1.3-1-.2-1.5.3-1.3 1.4.2 1.5-.5 1.8-4.3 1.8-4.1 0-4.5.2-4.5 2.5 0 2.4.1 2.5 6.2 2 3.5-.3 5.8-.3 5.1.1-.7.3-1.7 2.1-2.3 3.9-1.9 5.8 1.7 9.5 9.4 9.5 3.7 0 7.1-3 8.1-7.2.8-3.2-1.6-4.8-4.5-3-1.4.9-2.2.6-4.1-1.5l-2.4-2.6 4.6.7c2.6.4 7.1 1.6 10 2.6 3 1.1 5.7 1.6 6.2 1.1 1.1-1.1-6.1-4.6-13.2-6.4-4.3-1.1-5.1-1.6-3.8-2.3 1.1-.6 1.4-1.7 1-3.2-.4-1.7-1.3-2.2-3.9-2.2-2.2 0-3.7.6-4 1.5zm766.2 5.7c-1.3 2-1.8 6.2-3.1 24.8-.1 1.4-.3 3.7-.3 5.2-.2 2.1-.7 2.8-2.1 2.8-3.1 0-3.7 2.1-1.1 4.2 2.2 1.8 2.3 2.2 1.6 12.6-.4 5.9-.9 12-1.1 13.7-.2 1.6-.6 7.8-1.1 13.6-.7 10.5-.7 10.7 1.6 11.9 1.3.7 5.6 1.6 9.6 2.1 4 .4 8.8 1.1 10.6 1.4 4.9.9 6.7-1 7.3-7.5.3-3 .7-6.4 1-7.5.2-1.1.7-7 1-13 .3-6.1 1-15.3 1.5-20.5.5-5.2 1.2-16.4 1.6-24.8.7-17 .3-18.2-5.2-18.2-1.8 0-4.3-.4-5.6-.9-1.3-.4-5.1-1.1-8.5-1.5-5.7-.6-6.3-.5-7.7 1.6zm45.1 22.7c-10.8 12-13.6 32-7 50.1 1.7 4.4 8.5 15.4 10.4 16.6.5.3.9-13.7.9-35 0-19.6-.2-35.6-.4-35.6s-2 1.8-3.9 3.9zm-76.3 13.3c.3 3.5 1.1 14.4 1.7 24.3.6 9.9 1.2 18.1 1.3 18.3 1 1 6.9-5.8 9.3-10.6 2.4-4.9 2.8-6.8 2.7-14.2 0-7.3-.4-9.1-2.6-12.9-2.5-4.2-10-11.1-12.1-11.1-.6 0-.7 2.4-.3 6.2zM169 328.5c-9.9 2.1-16.3 4.4-26.7 9.7-9.6 4.8-21.3 13.6-21.3 16 0 .6-1.5 3.1-3.4 5.7-7.7 10.6-10.4 19.9-10.7 36.6 0 5.5-.7 12.8-1.5 16.3s-1.4 11.8-1.4 18.5c-.1 17-1.3 25-4.4 29.8-2.6 3.8-2.2 5.5.5 2.3 1.2-1.4 1.4-1.4 1.9.3.8 2 .7 4-.5 21.5-.7 9.9-.5 12.4.9 16.2 3 7.8 3.2 7.9 22.3 7.5l16.8-.4.7 6.7c.3 3.7 1.3 9.8 2.2 13.5.8 3.8 1.7 8.4 2 10.3 2 12.2 4.2 14.7 14.5 16.3 6.4 1 6.9.9 11.3-1.7 3.6-2.1 5.1-3.8 6.8-7.7 2.4-5.7 4.2-20.1 3.8-30.5l-.3-6.8 3.5-.7c1.9-.4 6.9-1 11-1.3 4.1-.3 9.5-.8 12-1 2.5-.3 8.3-.7 12.9-1.1 9.7-.7 17.7-3.7 18.5-7 1.3-5.2 1.8-13.6.9-16.2-.5-1.5-.7-5.3-.4-8.3.6-5.1.8-5.5 3.6-6 1.7-.4 4.5-1.4 6.2-2.4 1.8-.9 3.5-1.6 3.8-1.6 1.7 0 1.8-.1.5-1-.8-.5-2.9-1-4.7-1-1.7 0-3.5-.5-3.8-1-1.1-1.8-2.5-1.1-2.6 1.2-.1 1.3-.5-.2-1-3.2-.4-3-.6-6.2-.3-7.1.2-.9.6-7.7.8-15 .3-7.4.8-18.6 1.3-24.9 1.7-24.3.6-36.9-4.4-49-1.9-4.7-4-9.9-4.6-11.5-.7-1.7-1.8-3.4-2.4-3.8-.7-.4-1.3-1.3-1.3-1.8 0-.6.5-.7 1-.4.6.3 1-.3 1-1.4 0-2.3-2.6-2.9-3.3-.9-.2.9-1.9 0-4.8-2.3-6-4.9-9-6.3-19.5-9.3-10.4-2.9-28.4-3.9-37.4-2.1zm29.8 5c11.8 1.9 18 4.3 24.9 9.7 7.2 5.5 8.4 7.6 13.4 22.7 4 12.2 4 12.8 4.1 27 .1 8-.4 19.1-1 24.6-1.2 11-2.3 35.9-2.6 58.5-.3 21.7-2.7 25.1-18 25.1-3.6 0-13.4.8-21.8 1.8-11.6 1.3-23 1.7-46.8 1.7l-31.5-.1-1.3-2.7c-2.9-6-3.4-14.1-2.6-40.3.4-14.3.8-33 .9-41.5.1-8.5.7-18 1.3-21 .6-3 1.6-9 2.2-13.4 1.5-10.3 5.4-23.1 8.5-27.8 5.4-8.2 16.7-16.5 28.5-21.2 2.5-1 5.6-2.4 7-3.1 3.5-1.9 23.3-1.9 34.8 0zm-79.7 35.8c-.7 1.9-1.8 7.7-2.6 13-.9 5.4-2.2 13.9-2.9 18.9-.8 5.2-1.4 16.2-1.4 24.8 0 19.5-1.6 36.3-3.8 39.3-1.5 2.1-1.6 1.3-.9-10.8.4-7.2.8-18.6 1-25.5.2-6.9.9-14.7 1.5-17.3.5-2.6 1.5-11 2-18.5 1-14.8 2-19.6 5.3-25.5 2.4-4.4 3.4-3.4 1.8 1.6zm-9.2 102.9c.2 11.2 2 25.9 3.5 28.9 2 4 .9 5.5-3.1 4.2-4.3-1.4-5.3-5.7-4.7-19.7.4-10.3 2.1-18.6 3.7-18.6.3 0 .5 2.4.6 5.2zm68 37.4c.9.8.1 24.1-1 29.7-1.7 8.4-3 9.4-12 10.2-7.2.7-7.6.6-9.1-1.6-2.9-4.6-3.7-11.2-4.2-33.8-.1-4 .2-4.6 2.4-5.2 2.5-.7 23.1-.1 23.9.7z"></path>
    <path d="M185.3 345.5c-.9 2.5 2.4 5.2 7.3 5.9 6 .8 15.7 5.5 21.8 10.6 5.4 4.5 5.6 4.6 5.6 2.7 0-2.2-9-10.5-15.4-14.3-10-6-18.1-8-19.3-4.9zm-28.9 18.4c-1.7 1-4 3.1-5.2 4.5-2.9 3.7-8.1 18.5-10.1 28.8-.9 4.8-2.4 9.5-3.4 10.6-1.6 1.8-1.6 2-.1 3.3 1.3 1 1.5 2.3 1 6.1-.4 2.7-.9 5.4-1.2 6.1-1 2.7 2.9 5.8 8.1 6.5 3.3.5 5 1.2 5.1 2.2.1.8.2 2.1.3 2.8 0 .6 2 3.1 4.3 5.3 4.2 4 7.2 5.7 11.3 6.4 1.1.2 4.9.9 8.5 1.5 8.5 1.6 21.7.7 27.4-1.9 4.7-2 7.6-6 7.6-10.6 0-2.1.5-2.5 2.9-2.5 3.3 0 9-3.9 5.8-4-1.4 0-1.6-.4-.7-1.9.5-1.1 1-5.9 1-10.6 0-7.9.2-8.7 2-9.2l2.1-.6-2.1-1.4c-1.9-1.3-2-2.4-1.9-11.1.1-10.1-1.5-16.5-6.1-24-5.8-9.5-21.1-10.8-28.1-2.3l-2.9 3.5-3.7-3.6c-2.1-1.9-4.8-4.1-6-4.7-3.5-1.8-12.4-1.3-15.9.8zm19.3 6.3c3 3 3.6 4.3 3.8 8.8.4 6.4 2 8.6 3 3.8 1.1-5.3 5.4-12.3 8.7-14.2 3.9-2.4 11.8-2.5 15.2-.3 3.1 2.1 6.1 7.7 7 13.2.8 4.8 1.1 18.4.3 19.1-.2.3-3.8-.2-7.8-1.1-8.4-1.7-15.9-2-15.9-.5 0 .5 1.8 2.8 4 5 4.5 4.5 7.9 5.1 13.1 2.5 5.1-2.7 6.5-.9 7.2 8.6.6 8.7-.3 12.9-2.7 12.9-.8 0-1.8-.9-2.1-2-.5-1.5-1.2-1.9-2.6-1.5-1.1.4-2.5.2-3.2-.3-.7-.6-4.1-1.8-7.6-2.7-10.3-2.6-36-.2-42.7 4-2.4 1.5-9.8.9-11.3-.9-.6-.7-.3-3.9.8-8.6l1.7-7.5 6.4-.3c5-.2 7.2-.9 9.7-2.8 1.8-1.4 3.3-3.4 3.3-4.5s.8-2.3 1.7-2.6c1.5-.6 1.5-.7-.3-1.3-1.9-.7-11.6 1.3-14.6 3-2.9 1.6-5.8 1.2-5.8-.8 0-2.9 3.8-16.5 5.9-21.3 3.9-8.9 8.5-12.1 16.4-11.5 4 .3 5.5 1 8.4 3.8zm20.1 55.8c6.3 2.2 10.2 5.8 10.2 9.5 0 7.1-3.9 8.9-20 8.9-6.9 0-15.1-.5-18.3-1.3-10.7-2.4-18.4-11-12.6-14.1 8.9-4.8 30.9-6.4 40.7-3zm1.6 29c-1.3 1.3-4.3 1.4-16.7.4-10.4-.7-15.2.1-21.7 3.7-1.9 1.1-6.8 3.6-10.7 5.5-4 2-7.3 4-7.3 4.5 0 1.5 3 2.3 4.3 1 2.1-2.1 3.8-1.3 3.1 1.6-1.3 5.8-4.6 11.3-7 11.9-1.4.4-3.1 1.6-3.9 2.7-1.9 2.8-1.9 4.8 0 2.3.8-1.1 1.8-1.7 2.1-1.3.4.4.1 1.4-.6 2.3-1.2 1.3-1.1 1.7.1 2.5.8.5 2.5.9 3.9.9 2.4 0 2.6-.3 2.2-3.4l-.4-3.4 4.1 1.1c3.9 1.1 5.2 3.1 2 3.2-2.4.1-.3 4.4 2.2 4.5 1.8 0 4.2-3.2 4.9-6.6.5-2.1 2.4-7.9 4.3-12.8 3.3-8.4 3.8-9.1 9.2-12.8 5.5-3.7 6.1-3.8 11.4-3.3 3.1.4 6.7.8 8.1.9 1.4.1 3.2.6 3.9 1 1.7 1.1 5.1-2.2 5.1-5.1 0-2.5-1-2.9-2.6-1.3zm-34.2 6.5c.4.5-1.8 7.4-6.4 19.7-.8 2.4-1.6 2.8-4.9 2.8-3.8 0-5-1.4-3.1-3.6.5-.5 1.5-2.5 2.2-4.4 1.3-3.5 5.1-9.9 7.9-13.3 1.4-1.7 3.3-2.2 4.3-1.2zm589.5-77.8c-.6 1-1 6.7-.8 11.9.1 3.4 1.6 6.4 8 16 4.3 6.6 11.9 19.1 16.8 27.9 8.2 14.5 29.5 49.3 34 55.5 1 1.4 5.3 8.1 9.6 14.9l7.7 12.5-.1-24.5c-.1-22.9-.2-24-1.5-18.4-.7 3.3-1.6 10.2-2 15.2-.4 5.1-1 9.3-1.4 9.3-.3 0-4.4-5.9-9.1-13.1-4.6-7.1-10.6-16.5-13.4-20.7C793.9 460 786 447 786 446.4c0-.3-2.2-4.2-4.9-8.8-6.4-10.9-6.6-11.5-3.9-16.8 3.8-7.2 7.7-11.8 17.6-20.7 11-9.8 15.4-11.6 29-12 3.9-.1 4.2-.3 4.2-2.7v-2.7l-7.2.6c-4 .3-10.3 1.5-14.1 2.7-6.5 2-7.4 2.7-21.3 16.6-8.1 8-15 14.2-15.5 13.7s-2.8-4.5-5.2-9c-3-5.5-4.3-9-4-10.6.4-1.8-.1-2.8-1.6-3.6-1.1-.7-2.3-2.6-2.7-4.6-.6-3.5-2.8-6.3-3.7-4.8zm5.4 103.5c-.1 2.3.6 3.1 4.2 4.8 6.1 2.9 9.6 6.5 12.8 13.4 3 6.4 7.1 21.4 6.3 22.7-.6 1-3.1.1-6.6-2.3-3.8-2.6-3.6-.4.3 3.1 1.8 1.7 4.2 2.8 6 2.9 1.6 0 2.9 0 2.9-.1s-.4-1.7-.9-3.5c-1.3-4.5.3-4 3.3 1 3.1 5.3 4.2 11.7 2.6 14.8-1.1 2.1-1.6 2.2-8.9 1.7-4.2-.4-10-.9-12.8-1.3-3.4-.4-5.3-.3-5.3.4 0 .5 2.8 1.3 6.3 1.6 7.4.8 16 2.6 15.3 3.3-.2.3-4.8-.1-10-.8-6.8-.9-10-.9-10.7-.2-.8.8.8 1.3 5.3 1.7 11.3 1.2 12.1 1.5 11.5 4.2-.6 3.5 2.3 3.1 5.7-.7 3.5-3.8 10.5-6.9 16.1-6.9 4.7 0 15.5 3.1 19.5 5.7 1.4.8 3.5 2.7 4.8 4.1l2.2 2.5v-3.6c0-4.4-1.4-5.9-10.2-10.3-7.8-3.9-14.2-5.1-20.5-3.6-3.9.9-4.3.8-4.3-.9 0-1.1-1.4-5-3.1-8.7-1.7-3.7-3.9-9-5-11.9-1.1-2.8-2.7-5.7-3.5-6.4-.9-.7-2.7-3.7-3.9-6.6-3.3-7.4-7-11.8-13.1-15.9-2.9-1.9-5.5-4.3-5.7-5.2-.3-1-.5-.5-.6 1zm5.3 77.6c.4.7 2.8 2.4 5.3 3.9 4.2 2.4 5.3 2.6 15.2 2.5 5.8-.1 12.7-.3 15.4-.6 2.6-.3 4.7-.1 4.7.4 0 1.7-4.3 4.9-7.9 6-5.3 1.7-11.1 4.2-11.1 5 0 .3 3.7 1.9 8.3 3.4 4.5 1.6 9.3 3.6 10.7 4.6 4.4 3 5.6 3.2 2.5.5-1.6-1.5-5.3-3.7-8.2-5-2.8-1.3-5.4-2.8-5.7-3.3-.8-1.4 1.3-2.8 6.1-4.1 2.3-.6 4.9-1.8 5.8-2.7 1.8-1.8 2-5 .4-6-.7-.4-7.7-.7-15.8-.8-14.3-.1-15.4-.3-24.5-4.1-1.4-.6-1.7-.5-1.2.3zm2.1 23.2c-.3.5 1.4 1.4 3.7 2 6.2 1.5 10.9 4.1 12.1 6.7.6 1.3.8 2.6.4 2.9-.6.6-11.3-.9-13.9-2.1-1.2-.5-1.8-.3-1.8.7 0 2.3 6.6 4.8 12.5 4.8 5.1 0 5.5.2 5.5 2.4 0 5.2-.5 5.4-9.1 4.9-5.6-.4-7.9-.2-7.9.6 0 .6 1.3 1.1 2.9 1.1 4 0 9.1 1.1 9.1 2 0 .4-2.6 3.3-5.7 6.4-3.1 3.1-5.4 5.6-5.1 5.6 2.6 0 15.6-11.5 17.7-15.7 4.1-8.1-2.4-18.5-13.5-21.9-5.6-1.7-6.1-1.7-6.9-.4zm61.7 103.7c-.3 4.1-3.6 12.9-9.5 25.5-3.5 7.4-6.4 11.6-11.7 17.3-3.8 4.2-8.4 9.7-10.1 12.3-1.8 2.6-5.3 7.6-7.9 11.2-5.2 7.2-9 15-9 18.6 0 4.9 3 2.2 8.1-7.1 3.6-6.6 9.7-15.2 12.3-17.4.9-.8 2.3-2.9 3.2-4.7.9-1.8 3.4-5 5.7-7.1 10.4-9.7 12.2-12.5 17.1-26.3 2.3-6.4 2.6-8.8 2.3-16.5-.1-5-.4-7.5-.5-5.8zm-161.5 3.4c-37.6.6-44.1 1-46.2 2.3-3.4 2.3-5.8 6.2-5.7 9.4 0 1.5.1 4.3.2 6.2.1 1.9.5 7.5 1.1 12.5.8 8.6 2.3 29.5 3.5 53 .4 6 .7 20 .9 31 .2 22.4 1.3 49.8 2 53.2.3 1.2.7 11.1 1 22 .2 10.9.7 23.4 1.1 27.8.6 7.2.9 8.2 3.9 11.2s3.8 3.3 10.2 3.4c21.6.5 26 .4 28.3-.4 1.4-.5 6-.9 10.4-.8 5.1.1 8.4-.3 9.4-1.1 1-.9 5-1.3 11.6-1.4 5.6 0 12.6-.4 15.6-.8s13.8-.8 23.9-1l18.3-.4 3-2.9c2.4-2.5 3-3.9 3.3-8.9.2-3.2-.1-10.2-.7-15.4-.5-5.2-.9-11.9-.8-14.8.1-3.9-.5-6.3-2.1-8.8-3.6-5.9-4.8-6.3-18.9-5.2-6.9.6-17.9 1.1-24.5 1.2-6.6.1-14.7.6-18 1-5.8.7-6.1.7-8.7-2.1-2.5-2.7-2.8-3.9-3.8-15.8-.4-4.4 1.1-11.1 2.9-12.8 1.9-2 3.4-2.1 24.8-2.3 26.9-.3 32.3-.9 35.7-3.5 3.6-2.8 4-6.7 2.5-25.9-1-13.8-1.6-17.7-3.4-20.7l-2.1-3.8H731c-7.4.1-20.3.5-28.5.9-13.2.8-15.4.7-18.3-.8-1.7-.9-3.4-2.6-3.6-3.9-1-4.6-1.3-19.3-.4-21.7 1.6-4.9 3.7-5.3 27.3-6.1 32.5-1 37.2-1.6 39.4-4.8 1.7-2.4 1.8-3.7 1-14.6-.5-6.6-.7-12.5-.5-13.2.3-.6 0-2.8-.5-4.8-.7-2.5-.7-4.6 0-6.7 1.4-4-.6-7.4-5.4-9.4-3.8-1.6-4.2-1.6-75.8-.3zm154.8 107.3c-2.2.7-6.3 2.5-9.2 3.9-5.5 2.9-16.8 6.1-24.5 7.2-4.5.6-4.8.8-4.8 3.6 0 2.9.1 2.9 4.3 2.4 4.4-.6 14.5-3.5 23.7-6.7 3-1.1 8.3-2.9 11.8-4.1 5.6-1.9 6.2-2.4 6.2-4.9 0-3.2-1.2-3.4-7.5-1.4zm2 17.1c-.5.1-4.2 1.2-8.1 2.4-3.9 1.2-8.1 3.1-9.5 4.3-1.3 1.2-3.4 3-4.6 4.1-1.1 1-3.8 2.5-5.9 3.2-3.1 1-4.3 1-7-.1-4.4-1.9-4.6-1.8-4.2 1.3.2 2.1 1.2 2.9 4.4 4.1 6.1 2.2 10.4 1 16.8-4.8 3.3-3.1 6.3-5 7.8-5 1.3 0 3.1-.9 4-1.9 1-1.1 3.6-2.2 6.7-2.6 4.5-.6 5.1-1 5.1-3.1 0-1.8-.5-2.4-2.2-2.3-1.3 0-2.7.2-3.3.4zm-44.1 130.7c-.3.5 1.2 1.6 3.3 2.6 5.4 2.5 11.3 6.5 11.3 7.8 0 .6-1.1 2.1-2.4 3.3l-2.4 2.3-11.4-5.7c-6.2-3.2-12.6-6.6-14.1-7.8-2.7-1.8-3.8-1.9-18.5-1.3-19.2.9-22.6 1.5-23 4.1-1.1 7.6-2.9 8.5-5.5 3-3-6.2-4.3-4.5-5 6.2-.4 5.4-1 13.7-1.3 18.5l-.7 8.8h31.6c24.2 0 31.7-.3 32.1-1.3.5-.9.7-.9 1.2 0 .4 1 6.9 1.3 27.5 1.3H828v-13.9c0-13.6-.1-13.9-2.4-15.5-1.7-1-5.5-1.7-12-1.9-7.9-.3-10-.8-11.9-2.4-3.5-3.1-12.7-8.4-13.7-7.8-.5.3-1.2.1-1.5-.5-.7-1.2-7.4-1-8.1.2zm-210.6 9.3c-.2.2-12 .6-26.3 1s-26.7.9-27.6 1.1c-1.6.4-1.9 2-3.5 23.6l-.5 6.8h32.4c30.6 0 32.5-.1 32.9-1.8.3-1 2.2-2.6 4.2-3.6 5.3-2.5 11.2-1.4 13.5 2.5 1.1 2.1 2.4 2.9 4.4 2.9 1.5 0 2.7-.2 2.7-.4 0-1.4-5.5-15.6-7-18.1-1-1.7-2.6-5.6-3.5-8.7l-1.6-5.7H578c-5.4.1-10 .2-10.2.4zM464 963.1c-9.6.4-24.7 1-33.5 1.3-8.8.3-16.1.6-16.2.6-1.3.1.2 1.9 2.2 2.8 1.4.6 2.5 2 2.5 3s.9 3.7 2.1 6.1c1.8 3.7 1.9 4.9 1 9.2-.6 2.8-1.1 5.2-1.1 5.4 0 .3 14.8.5 32.9.5h32.9l1-2.8c.9-2.7.8-4.5-1.5-23-.4-3.5-.8-4.2-2.7-4-1.1 0-10 .4-19.6.9zm-116.5 5c-6 .4-15.4 1-20.8 1.2-5.3.2-10 .7-10.3 1-.4.3-.9 3.7-1.2 7.4-.3 4.4-1.1 7.6-2.3 9.2-4 5.1-3.8 5.1 22.6 5.1 21.3 0 24.4-.2 23.9-1.5-.8-2 3.9-2 5.6 0 .7.8 2.9 1.5 5 1.5h3.8l1.7-6.7c.9-3.8 1.8-9.4 2-12.6l.3-5.7-9.7.1c-5.3.1-14.5.5-20.6 1zM227 974.6c-10.2.7-22.8 1.3-28 1.4-5.2.1-10.4.5-11.5 1-2.2.9-1.7 1.1 4.5 1.5 14.4 1.1 36.4 3.7 38 4.5 2.7 1.5 12.5 1.2 16.4-.4 3.4-1.4 7.6-5.9 7.6-8.2 0-1.6-1.1-1.6-27 .2z"></path>
  </symbol>
</svg>