<?xml version="1.0" standalone="no"?>
<!DOCTYPE svg PUBLIC "-//W3C//DTD SVG 20010904//EN"
 "http://www.w3.org/TR/2001/REC-SVG-20010904/DTD/svg10.dtd">
<svg version="1.0" xmlns="http://www.w3.org/2000/svg"
 width="5014.000000pt" height="3343.000000pt" viewBox="0 0 5014.000000 3343.000000"
 preserveAspectRatio="xMidYMid meet">
<metadata>
Created by potrace 1.16, written by Peter Selinger 2001-2019
</metadata>
<g transform="translate(0.000000,3343.000000) scale(0.100000,-0.100000)"
fill="#000000" stroke="none">
<path d="M0 16715 l0 -16715 1063 0 1063 0 41 35 c24 21 44 31 48 25 11 -18
26 -10 36 20 7 18 18 30 29 30 10 0 23 12 30 29 6 16 21 31 32 34 11 3 17 10
13 16 -3 6 6 16 21 21 14 6 35 22 46 35 11 14 28 25 39 25 14 0 19 7 19 28 0
23 6 30 38 42 20 8 42 14 48 14 6 1 29 19 52 41 69 66 81 75 97 75 8 0 17 11
21 24 3 13 14 26 25 29 11 3 19 14 19 26 0 11 9 25 19 31 28 15 151 136 151
149 0 6 6 8 13 5 7 -2 31 15 53 39 22 24 55 50 72 58 18 8 32 20 32 26 0 7 8
13 18 13 11 0 24 11 30 25 6 14 18 25 26 25 20 0 31 21 16 30 -8 5 -2 10 19
15 25 5 31 11 26 26 -4 13 -2 19 9 19 9 0 16 5 16 10 0 6 6 10 13 10 7 0 18 9
25 20 7 11 19 20 27 20 8 0 15 8 15 18 0 9 17 28 38 42 20 13 52 37 70 52 18
15 42 28 52 28 12 0 20 7 20 18 0 9 5 24 10 32 8 13 13 13 31 2 19 -12 21 -12
16 2 -7 18 24 52 57 62 22 7 35 20 52 49 6 11 19 22 29 24 10 2 32 16 49 32
17 16 34 29 39 29 7 0 24 13 77 61 17 16 35 29 40 29 4 0 18 14 31 31 13 17
35 35 47 40 13 5 26 18 29 28 3 10 19 23 36 28 18 4 36 19 42 31 5 12 15 22
22 22 7 0 13 4 13 9 0 5 10 13 22 17 12 3 43 27 69 53 25 25 75 71 110 101 35
30 90 81 121 113 32 31 62 57 68 57 5 0 15 9 22 20 7 11 16 20 21 20 12 0 92
81 106 108 7 12 17 20 22 16 6 -3 13 3 16 14 3 12 15 22 27 24 11 2 25 13 31
25 5 12 18 27 30 33 26 13 83 55 115 83 14 12 41 33 60 46 39 27 100 89 100
102 0 4 8 10 18 13 9 3 55 42 102 86 47 44 93 80 102 80 9 0 20 9 23 20 7 21
64 80 77 80 9 0 45 28 67 53 9 10 41 32 71 49 30 17 69 44 85 59 34 32 132 99
146 99 5 0 9 4 9 9 0 5 13 14 29 21 16 6 38 22 50 36 11 13 28 24 36 24 13 0
95 77 186 176 43 45 56 56 90 74 13 7 28 19 32 27 5 7 12 11 18 8 5 -4 12 0
15 8 3 9 20 21 37 28 18 7 40 20 49 28 30 28 51 45 92 75 22 16 50 42 64 57
13 16 32 29 42 29 10 0 21 8 24 18 8 22 80 102 92 102 5 0 18 14 27 30 10 17
25 30 33 30 8 0 14 4 14 8 0 5 11 14 25 20 14 7 30 23 37 37 6 14 18 25 25 25
8 0 11 5 8 10 -3 6 3 10 15 10 11 0 31 11 44 25 13 14 28 25 34 25 12 0 61 41
144 120 130 125 153 145 161 142 5 -1 6 1 3 6 -5 8 27 42 40 42 10 0 33 27 28
33 -3 3 4 8 15 12 12 3 21 11 21 17 0 13 56 68 70 68 5 0 14 9 20 20 6 11 17
20 25 20 8 0 24 9 35 20 10 10 37 31 60 45 22 14 40 30 40 35 0 6 9 10 20 10
13 0 24 10 30 25 6 15 17 25 29 25 11 0 27 7 35 16 9 8 20 13 25 10 5 -3 30
15 55 41 45 45 67 61 114 82 12 6 22 18 22 27 0 10 3 15 6 12 7 -7 42 11 69
35 11 10 45 36 75 57 61 44 110 84 147 117 13 13 26 23 30 23 3 0 26 21 53 48
26 26 52 52 59 57 6 6 21 21 34 35 12 14 46 41 75 59 28 19 52 38 52 43 0 4 5
8 10 8 15 0 71 41 94 69 10 13 26 28 34 35 8 6 27 23 42 39 16 15 31 27 34 27
25 0 195 130 276 210 19 19 38 34 42 33 4 -2 10 7 13 18 4 11 32 36 63 57 31
20 72 49 90 64 18 15 37 28 43 28 10 0 35 22 140 122 36 35 79 70 95 78 16 8
52 30 79 49 28 19 65 45 84 58 18 12 55 42 81 65 75 68 126 106 260 197 89 60
99 68 125 102 48 61 105 121 119 123 8 1 32 18 53 37 21 18 78 54 126 78 48
24 94 55 102 68 9 12 20 23 27 23 9 0 113 82 128 101 3 4 23 19 45 33 35 24
125 99 176 148 10 9 32 24 49 33 18 9 56 40 85 68 29 29 63 59 75 67 78 52
152 111 201 159 68 66 88 83 152 120 62 36 183 141 259 226 37 41 55 55 71 55
8 0 20 7 27 15 7 8 18 15 24 15 6 0 21 15 32 33 12 18 42 44 68 57 25 14 46
30 46 35 0 16 33 41 84 64 25 11 70 42 99 69 28 27 63 56 77 65 13 9 51 42 83
74 57 56 85 77 120 89 9 3 17 10 17 14 0 4 17 19 37 33 21 13 70 53 109 88 94
85 122 108 159 133 17 12 58 47 91 79 32 31 64 57 70 57 6 0 21 11 34 25 13
14 29 25 35 25 18 0 120 81 141 112 10 15 21 25 24 23 4 -2 22 11 41 30 19 19
39 35 45 35 6 0 23 13 37 30 15 16 32 30 38 30 5 0 7 5 4 10 -3 6 1 10 9 10 9
0 16 4 16 8 0 5 16 17 35 28 19 10 37 25 40 34 3 8 22 26 41 40 20 14 55 41
78 60 22 20 55 42 71 50 34 17 35 18 90 65 22 19 43 35 48 35 4 0 7 7 7 15 0
9 11 21 25 27 14 6 32 22 40 35 9 12 24 23 34 23 10 0 41 21 69 48 28 26 64
58 82 71 18 13 29 29 26 37 -3 9 1 14 12 14 26 0 84 39 89 61 3 10 14 19 24
19 11 0 19 4 19 8 0 5 12 15 28 23 38 20 122 92 122 105 0 7 23 26 50 44 28
18 59 43 69 56 10 13 24 24 30 24 11 0 98 63 116 85 5 6 38 31 73 55 34 24 62
46 62 49 0 4 13 15 30 24 16 10 35 23 42 30 7 7 42 32 78 57 36 24 71 50 78
57 8 7 30 26 50 41 20 15 44 34 54 42 9 8 34 28 55 43 108 79 206 153 350 262
521 397 634 477 977 694 305 193 379 237 676 406 113 65 241 139 285 165 74
44 227 123 415 215 41 20 95 49 120 65 25 16 50 29 56 29 6 1 45 18 85 40 41
21 90 43 110 50 19 6 86 36 147 66 62 30 116 55 120 55 4 0 29 11 57 24 59 29
125 59 255 116 147 64 207 95 315 160 55 33 115 67 134 76 19 8 40 22 48 30 8
8 18 14 23 14 4 0 31 16 60 35 29 19 57 35 63 35 5 0 24 10 41 23 17 13 72 43
121 67 50 23 92 47 93 52 2 4 8 8 13 8 6 0 36 17 67 37 74 49 81 53 138 87 96
57 229 139 256 157 15 11 30 19 32 19 3 0 38 21 78 47 91 59 109 70 128 79 8
4 19 13 23 21 4 7 14 13 22 13 7 0 15 4 17 8 3 8 130 94 176 119 13 7 35 21
49 33 14 11 29 20 34 20 4 0 59 28 121 63 62 34 156 82 208 105 52 24 103 48
112 53 10 5 23 9 30 9 15 0 132 45 188 73 71 35 150 86 211 136 31 25 66 53
79 61 12 8 28 21 36 28 7 7 30 20 51 30 21 10 56 29 78 42 22 14 49 31 60 38
11 7 36 20 55 28 51 23 197 97 255 129 28 15 62 34 77 42 15 8 30 18 33 24 4
5 14 9 24 9 10 0 26 9 36 20 10 11 22 20 28 20 5 0 55 33 111 74 55 40 137 95
181 122 44 26 82 52 83 56 2 4 12 8 23 8 10 0 19 3 19 8 0 7 7 11 75 46 17 9
55 32 85 51 30 19 78 46 105 61 28 15 64 37 80 50 72 55 241 121 440 173 92
24 152 45 175 62 19 14 73 54 120 89 85 63 182 113 315 163 51 19 115 20 115
2 0 -8 8 -19 18 -25 12 -8 13 -13 5 -16 -7 -3 -13 -18 -13 -32 0 -17 -8 -32
-21 -40 -11 -7 -19 -18 -17 -24 5 -14 -49 -69 -122 -124 -103 -78 -280 -150
-280 -114 0 6 -9 10 -20 10 -11 0 -20 -4 -20 -9 0 -5 -12 -12 -27 -16 -37 -8
-53 -21 -98 -80 -46 -62 -109 -119 -155 -142 -19 -10 -37 -21 -40 -25 -8 -11
-133 -66 -165 -73 -16 -4 -39 -10 -50 -15 -11 -5 -38 -14 -60 -21 -22 -6 -65
-25 -95 -40 -30 -16 -59 -29 -65 -29 -5 0 -35 -16 -65 -35 -67 -43 -160 -147
-160 -179 0 -32 -26 -51 -69 -52 -34 -1 -248 -92 -281 -120 -8 -7 -49 -30 -90
-52 -125 -66 -193 -103 -232 -128 -21 -13 -40 -24 -44 -24 -3 0 -16 -9 -28
-20 -11 -11 -61 -49 -111 -85 -49 -36 -95 -69 -102 -75 -7 -5 -17 -10 -23 -10
-9 0 -96 -42 -255 -124 -22 -11 -41 -24 -43 -28 -2 -4 -10 -8 -19 -8 -8 0 -29
-11 -47 -25 -18 -14 -37 -25 -41 -25 -10 0 -82 -48 -104 -68 -8 -7 -26 -21
-40 -30 -23 -15 -76 -53 -191 -137 -19 -15 -57 -40 -85 -57 -27 -18 -75 -47
-105 -66 -30 -19 -75 -48 -100 -65 -56 -38 -150 -99 -171 -112 -43 -26 -386
-256 -402 -270 -7 -6 -28 -21 -47 -32 -19 -12 -48 -34 -64 -48 -16 -14 -33
-25 -38 -25 -5 0 -33 -15 -62 -34 -55 -35 -176 -105 -276 -159 -30 -17 -86
-49 -125 -72 -76 -46 -184 -101 -490 -250 -110 -54 -212 -106 -227 -117 -22
-15 -37 -18 -78 -12 -47 6 -52 5 -57 -15 -5 -20 -108 -91 -132 -91 -6 0 -42
-22 -81 -50 -39 -27 -73 -50 -76 -50 -3 0 -35 -21 -70 -46 -36 -25 -73 -48
-82 -52 -28 -10 -115 -64 -139 -85 -13 -11 -23 -17 -23 -13 0 4 -12 -2 -26
-13 -15 -12 -32 -21 -39 -21 -6 0 -22 -11 -35 -25 -13 -14 -30 -23 -37 -21 -7
3 -17 -3 -23 -13 -5 -10 -25 -22 -45 -25 -19 -4 -35 -11 -35 -15 0 -5 -29 -23
-65 -42 -60 -30 -70 -40 -66 -61 0 -5 -8 -8 -19 -8 -11 0 -20 -4 -20 -10 0 -5
-9 -10 -20 -10 -12 0 -20 -7 -20 -16 0 -10 -6 -14 -15 -10 -8 3 -15 2 -15 -3
0 -5 -10 -11 -23 -15 -13 -3 -29 -17 -35 -31 -6 -14 -18 -25 -26 -25 -7 0 -19
-7 -26 -15 -7 -8 -20 -14 -29 -13 -9 2 -16 -4 -16 -12 0 -13 -25 -31 -47 -34
-3 -1 -16 -14 -28 -29 -15 -19 -26 -25 -34 -18 -14 12 -41 -2 -32 -17 3 -6 1
-14 -5 -18 -6 -3 -14 -2 -18 4 -8 13 -25 3 -34 -21 -4 -10 -17 -17 -30 -17
-14 0 -30 -7 -37 -15 -10 -12 -9 -15 6 -15 18 -1 18 -1 2 -11 -10 -5 -24 -9
-32 -7 -7 2 -37 -17 -65 -41 -28 -24 -59 -49 -69 -55 -72 -44 -92 -60 -90 -74
2 -10 -7 -18 -27 -22 -46 -10 -75 -29 -75 -49 0 -14 -13 -23 -46 -32 -30 -9
-54 -25 -70 -46 -14 -18 -30 -33 -35 -33 -16 0 -79 -62 -79 -77 0 -7 -3 -13
-8 -13 -4 0 -22 -13 -40 -29 -17 -17 -45 -38 -62 -48 -16 -9 -30 -20 -30 -24
0 -3 -19 -19 -42 -34 -24 -16 -59 -45 -79 -64 -56 -55 -159 -145 -214 -187
-27 -20 -70 -57 -95 -82 -25 -25 -70 -63 -100 -85 -30 -22 -58 -46 -62 -52 -4
-7 -33 -32 -65 -56 -31 -24 -64 -51 -73 -59 -9 -8 -51 -42 -93 -75 -42 -33
-77 -63 -77 -67 0 -5 -6 -8 -12 -8 -7 0 -36 -22 -63 -48 -28 -26 -84 -73 -126
-104 -42 -31 -84 -66 -95 -79 -11 -13 -59 -60 -109 -104 -49 -44 -145 -136
-214 -203 -69 -68 -154 -149 -190 -180 -36 -32 -93 -85 -126 -118 -33 -34 -80
-76 -105 -93 -25 -18 -88 -74 -140 -125 -52 -51 -102 -97 -111 -102 -21 -12
-117 -94 -196 -168 -35 -33 -74 -66 -86 -75 -12 -8 -27 -20 -34 -26 -6 -5 -28
-21 -49 -35 -20 -14 -62 -50 -94 -80 -264 -253 -487 -457 -586 -537 -21 -18
-55 -46 -74 -63 -19 -17 -59 -47 -87 -67 -29 -20 -55 -44 -58 -55 -4 -10 -11
-18 -16 -18 -5 0 -27 -17 -48 -37 -45 -45 -118 -110 -152 -137 -13 -10 -58
-50 -101 -87 -42 -38 -78 -69 -80 -69 -5 0 -123 -106 -175 -157 -23 -24 -47
-43 -53 -43 -5 0 -10 -4 -10 -8 0 -5 -19 -22 -42 -39 -24 -17 -88 -75 -143
-128 -55 -54 -116 -110 -135 -124 -44 -33 -97 -78 -131 -113 -15 -16 -29 -28
-32 -28 -6 0 -92 -77 -143 -128 -18 -17 -35 -32 -39 -32 -7 0 -78 -65 -200
-185 -51 -49 -131 -121 -180 -160 -48 -38 -104 -86 -125 -105 -60 -56 -87 -80
-93 -80 -3 0 -20 -13 -39 -30 -76 -69 -89 -79 -93 -80 -5 0 -50 -40 -155 -138
-31 -28 -61 -52 -65 -52 -5 0 -20 -12 -34 -28 -24 -25 -47 -45 -138 -120 -18
-15 -57 -49 -86 -77 -29 -27 -73 -66 -97 -85 -42 -33 -79 -64 -138 -118 -14
-12 -28 -22 -32 -22 -3 0 -34 -26 -68 -58 -33 -31 -85 -77 -113 -102 -29 -25
-60 -52 -69 -60 -9 -8 -32 -26 -51 -39 -36 -26 -53 -41 -136 -118 -114 -106
-163 -155 -163 -163 0 -5 -12 -16 -27 -24 -16 -8 -58 -43 -94 -78 -37 -35 -82
-75 -100 -90 -34 -28 -107 -95 -230 -211 -186 -174 -272 -252 -283 -257 -15
-6 -40 -27 -73 -62 -14 -15 -56 -48 -92 -73 -36 -25 -95 -72 -131 -105 -36
-33 -69 -60 -74 -60 -5 0 -27 -16 -50 -36 -57 -49 -88 -75 -127 -104 -32 -24
-120 -100 -147 -127 -7 -7 -18 -13 -23 -13 -5 0 -9 -5 -9 -11 0 -6 -13 -27
-30 -46 -16 -18 -30 -31 -30 -28 0 11 -86 -58 -173 -139 -15 -14 -31 -26 -35
-26 -4 0 -30 -21 -57 -46 -59 -54 -243 -204 -250 -204 -3 0 -28 -21 -56 -48
-28 -26 -71 -66 -95 -89 -25 -23 -54 -45 -65 -48 -10 -4 -19 -12 -19 -18 0 -7
-10 -18 -23 -26 -25 -16 -87 -67 -153 -128 -26 -24 -49 -43 -53 -43 -4 0 -20
-14 -36 -30 -16 -17 -34 -30 -41 -30 -7 0 -14 -3 -16 -7 -4 -11 -128 -116
-128 -110 0 3 -26 -20 -59 -51 -63 -62 -99 -92 -106 -92 -2 0 -25 -20 -51 -45
-25 -25 -50 -45 -55 -45 -4 0 -24 -15 -42 -32 -92 -88 -116 -108 -129 -108
-16 0 -36 -18 -37 -33 0 -8 -125 -112 -175 -147 -12 -8 -31 -24 -42 -35 -12
-11 -45 -40 -74 -65 -29 -25 -71 -62 -94 -82 -22 -21 -43 -38 -46 -38 -3 0
-28 -20 -55 -45 -28 -25 -56 -45 -62 -45 -7 0 -13 -6 -13 -12 0 -12 -16 -24
-82 -64 -10 -6 -44 -34 -76 -61 -62 -56 -149 -123 -157 -123 -3 0 -23 -17 -45
-38 -21 -20 -55 -50 -75 -67 -20 -16 -46 -40 -57 -52 -11 -12 -31 -24 -44 -27
-13 -4 -24 -14 -24 -23 0 -17 -15 -36 -60 -76 -13 -12 -37 -34 -53 -49 -16
-16 -30 -28 -32 -28 -2 0 -15 -10 -28 -22 -14 -13 -41 -36 -61 -53 -20 -16
-49 -42 -64 -56 -15 -14 -61 -50 -102 -80 -41 -29 -80 -58 -86 -64 -7 -5 -26
-21 -44 -35 -68 -53 -129 -105 -230 -201 -58 -54 -134 -126 -169 -159 -36 -33
-68 -60 -72 -60 -5 0 -32 -22 -61 -49 -78 -72 -115 -101 -127 -101 -6 0 -11
-4 -11 -9 0 -5 -32 -35 -71 -66 -40 -32 -84 -70 -98 -85 -14 -15 -42 -37 -61
-49 l-35 -21 21840 0 21840 1 -50 44 c-27 25 -54 45 -58 45 -5 0 -47 26 -94
58 -46 31 -104 68 -127 82 -23 14 -61 40 -83 57 -22 18 -43 30 -47 26 -3 -3
-6 -2 -6 4 0 6 -20 23 -45 38 -25 14 -43 30 -40 36 4 5 -3 13 -15 17 -21 8
-72 49 -137 110 -19 17 -37 32 -40 32 -8 0 -107 83 -121 102 -7 10 -19 18 -26
18 -7 0 -22 10 -33 22 -12 13 -34 34 -49 47 -120 103 -172 145 -191 154 -13 6
-23 14 -23 18 0 4 -42 39 -93 77 -50 39 -100 77 -109 86 -10 9 -22 16 -27 16
-5 0 -20 13 -33 28 -13 15 -40 36 -60 47 -20 10 -35 22 -32 26 2 4 -9 12 -25
17 -16 6 -42 22 -57 35 -63 55 -102 87 -108 87 -9 0 -70 43 -74 53 -2 4 -35
28 -74 53 -38 25 -72 52 -75 60 -3 8 -12 14 -21 14 -8 0 -24 9 -36 20 -50 48
-270 220 -282 220 -5 0 -121 86 -160 118 -5 5 -20 15 -33 21 -25 14 -55 37
-81 64 -27 28 -123 97 -134 97 -6 0 -24 14 -41 31 -16 17 -48 43 -70 57 -51
32 -247 198 -334 282 -37 36 -94 87 -127 115 -32 27 -63 55 -69 61 -5 6 -18
16 -27 20 -10 5 -39 30 -65 55 -26 25 -72 62 -102 83 -30 20 -64 47 -77 59
-12 12 -38 33 -59 47 -20 14 -45 32 -54 40 -9 8 -46 35 -81 59 -36 25 -87 63
-115 86 -27 23 -63 49 -80 59 -16 10 -39 27 -50 38 -11 11 -99 79 -196 151
-259 195 -316 238 -365 280 -25 20 -48 37 -52 37 -4 0 -23 15 -43 33 -20 17
-60 52 -90 77 -29 25 -65 56 -80 70 -33 31 -55 49 -99 80 -40 28 -54 39 -121
95 -26 22 -67 54 -91 72 -24 18 -72 54 -107 80 -35 26 -71 53 -80 58 -9 6 -35
25 -58 43 -23 17 -43 32 -46 32 -5 0 -69 55 -118 103 -21 20 -42 37 -45 37 -3
0 -23 14 -44 30 -21 17 -42 30 -47 30 -5 0 -20 12 -34 26 -13 14 -39 35 -59
46 -19 12 -53 38 -76 57 -58 51 -83 71 -90 71 -7 0 -51 35 -105 83 -20 18 -48
41 -63 52 -15 11 -36 28 -47 37 -10 10 -22 18 -26 18 -5 0 -24 17 -44 38 -20
20 -64 57 -99 82 -35 25 -84 64 -109 87 -25 24 -49 43 -54 43 -4 0 -22 14 -40
31 -18 17 -68 58 -112 90 -44 32 -107 80 -141 106 -33 26 -105 82 -160 123
-124 94 -134 102 -148 118 -9 10 -156 133 -230 192 -10 8 -28 24 -40 35 -11
11 -59 50 -106 87 -47 36 -96 77 -110 90 -14 12 -27 23 -30 23 -10 1 -65 40
-90 65 -14 14 -48 41 -74 60 -27 19 -74 58 -105 86 -31 27 -92 77 -136 109
-66 48 -145 113 -221 180 -6 6 -38 33 -70 61 -33 29 -73 65 -90 80 -17 16 -59
52 -93 79 -109 88 -195 161 -248 211 -90 85 -183 167 -206 183 -12 8 -24 17
-27 21 -3 3 -40 32 -83 64 -43 32 -122 103 -176 157 -54 54 -101 99 -104 99
-3 0 -18 12 -34 28 -28 26 -80 71 -171 146 -24 20 -49 36 -55 36 -12 0 -49 32
-105 94 -9 10 -27 22 -39 27 -13 5 -23 15 -23 24 0 8 -6 15 -13 15 -21 0 -237
201 -237 220 0 5 -4 10 -10 10 -9 0 -45 30 -175 148 -27 25 -61 50 -75 56 -52
23 -144 89 -200 144 -77 74 -148 136 -163 141 -7 2 -14 7 -17 10 -8 10 -44 31
-62 37 -10 4 -18 13 -18 21 0 9 -6 13 -15 9 -8 -3 -15 -1 -15 5 0 6 -5 7 -11
4 -5 -4 -27 11 -47 32 -21 22 -46 42 -55 46 -10 4 -15 11 -12 17 3 6 -1 7 -9
4 -11 -4 -16 0 -16 10 0 9 -8 19 -17 23 -30 10 -52 34 -46 49 3 9 -2 14 -15
14 -11 0 -35 14 -53 31 -30 28 -61 47 -145 92 -19 9 -34 22 -34 27 0 5 -13 16
-28 24 -35 18 -97 73 -229 200 -56 55 -106 102 -111 105 -22 14 -172 150 -232
211 -36 37 -92 85 -125 107 -34 23 -102 85 -152 139 -50 55 -119 119 -152 144
-34 25 -97 80 -141 123 -44 42 -98 87 -119 98 -21 11 -47 29 -56 39 -10 11
-24 20 -32 20 -7 0 -13 6 -13 13 0 6 -11 25 -25 41 -14 16 -25 37 -25 48 0 10
-4 18 -8 18 -5 0 -26 16 -48 35 -21 19 -44 35 -51 35 -18 0 -92 90 -101 122
-4 17 -20 36 -37 46 -17 9 -34 23 -38 30 -4 6 -15 12 -23 12 -8 0 -17 6 -20
14 -3 8 -16 17 -30 20 -13 4 -24 11 -24 17 0 6 -4 7 -10 4 -5 -3 -7 0 -4 8 3
8 1 18 -5 21 -6 4 -8 12 -5 20 3 7 -5 18 -18 24 -13 6 -17 11 -9 11 22 1 -59
57 -93 65 -24 6 -27 9 -15 18 10 7 5 8 -18 4 -36 -6 -88 16 -103 44 -12 22 7
40 21 19 4 -7 11 -10 16 -5 4 4 0 12 -10 17 -9 6 -17 19 -17 30 0 12 -10 23
-25 29 -14 5 -29 18 -33 27 -11 27 -29 25 -36 -2 -9 -34 -28 -31 -73 12 -21
20 -57 51 -80 70 -48 37 -163 154 -163 165 0 5 -6 8 -14 8 -18 0 -37 23 -39
48 0 11 -6 18 -12 15 -12 -4 -148 112 -172 147 -7 10 -10 25 -7 34 5 13 -1 16
-30 16 -20 0 -36 4 -36 10 0 5 -45 49 -100 96 -56 49 -100 95 -100 105 0 10
-10 21 -22 24 -13 4 -35 19 -49 34 -14 14 -35 34 -47 43 -33 27 -29 49 8 42
26 -6 30 -4 30 15 0 16 -6 21 -25 21 -14 0 -25 4 -25 10 0 5 -7 7 -15 4 -9 -4
-18 1 -22 12 -3 11 -11 22 -17 26 -6 4 -3 14 8 27 17 18 17 21 3 21 -9 0 -19
-5 -22 -10 -5 -8 -11 -7 -21 1 -11 9 -15 8 -20 -5 -3 -9 -15 -16 -27 -16 -11
0 -18 3 -14 6 8 8 -47 54 -65 54 -20 0 -108 57 -108 70 0 6 11 15 25 22 13 6
22 15 19 19 -8 13 -54 11 -54 -2 0 -18 -54 -3 -97 26 -21 13 -59 39 -85 57
-25 18 -92 63 -147 100 -96 64 -101 69 -99 100 l3 33 -50 0 c-38 0 -59 6 -80
23 -17 12 -55 38 -85 56 -127 78 -200 147 -297 278 -36 48 -69 88 -74 88 -12
0 -69 51 -69 61 0 5 -17 34 -39 66 -21 32 -52 78 -68 103 -60 90 -85 126 -114
158 -17 18 -40 47 -52 65 -12 17 -33 44 -47 59 -14 14 -36 41 -50 59 -32 42
-110 133 -156 184 -20 22 -80 87 -132 143 -75 83 -310 328 -349 365 -37 34
-223 222 -243 244 -25 27 -49 61 -123 173 -30 47 -35 62 -31 92 4 24 -2 58
-19 109 -14 41 -28 86 -31 101 -3 14 -17 39 -30 55 -27 32 -54 89 -103 217
-47 123 -116 258 -161 317 -20 26 -40 48 -44 49 -6 0 -36 30 -128 131 -63 69
-160 189 -160 199 0 5 -16 35 -35 67 -49 81 -47 111 11 168 53 52 83 57 151
24 66 -32 253 -252 288 -340 18 -44 74 -101 170 -174 110 -82 212 -218 268
-359 85 -209 92 -231 90 -287 -2 -47 1 -60 20 -76 40 -36 171 -119 212 -134
42 -15 59 -49 36 -72 -15 -15 -14 -39 4 -73 8 -16 12 -37 9 -46 -5 -17 14 -55
47 -93 50 -58 118 -124 149 -146 19 -13 49 -36 65 -51 17 -15 35 -28 40 -28 6
0 18 -8 26 -17 9 -10 35 -34 60 -55 24 -20 94 -93 154 -163 61 -70 133 -153
160 -184 28 -31 77 -87 110 -125 96 -109 104 -118 163 -182 31 -33 93 -98 136
-145 44 -46 102 -112 129 -146 28 -35 55 -63 60 -63 5 0 77 -69 160 -153 84
-84 179 -175 211 -202 68 -57 149 -127 156 -136 3 -3 29 -15 59 -28 145 -62
379 -193 571 -321 47 -31 138 -90 203 -129 65 -40 123 -81 129 -91 7 -10 16
-16 22 -14 6 2 43 -22 82 -53 39 -32 86 -69 104 -83 18 -14 45 -34 59 -46 14
-12 71 -56 126 -99 104 -81 132 -104 299 -245 56 -47 115 -97 132 -110 18 -14
85 -70 150 -125 66 -55 139 -116 164 -135 25 -19 86 -68 135 -110 50 -42 101
-85 114 -96 13 -10 65 -55 115 -100 50 -44 107 -91 126 -105 19 -13 59 -45 88
-71 29 -27 56 -48 60 -48 4 0 24 -16 45 -35 21 -19 42 -35 48 -35 5 0 9 -6 9
-13 0 -7 18 -26 41 -43 22 -16 56 -41 74 -56 18 -16 38 -28 44 -28 6 0 11 -6
11 -13 0 -15 72 -77 89 -77 6 0 11 -6 11 -13 0 -7 23 -21 50 -31 56 -20 81
-43 34 -32 -28 7 -28 7 -10 -13 11 -12 23 -21 28 -21 5 0 26 -18 47 -40 20
-22 41 -40 45 -40 5 0 16 -11 27 -24 10 -13 32 -29 48 -36 17 -7 29 -16 28
-20 -2 -8 131 -130 143 -130 8 0 61 -44 139 -117 102 -95 126 -115 156 -130
46 -24 86 -55 117 -89 15 -17 41 -37 58 -44 16 -7 32 -20 35 -31 7 -21 105
-110 168 -152 23 -15 89 -67 146 -115 57 -48 120 -99 140 -114 20 -15 43 -33
51 -41 8 -8 40 -31 70 -52 86 -60 124 -88 143 -107 10 -10 21 -18 25 -18 4 0
23 -15 42 -33 33 -30 95 -77 102 -77 2 0 32 -27 68 -61 36 -34 88 -76 115 -95
28 -18 72 -53 99 -78 26 -25 80 -66 120 -92 39 -27 106 -80 149 -118 43 -39
83 -73 90 -75 7 -2 17 -9 22 -15 6 -7 28 -25 50 -41 71 -53 239 -185 261 -205
12 -11 27 -20 33 -20 6 0 11 -4 11 -8 0 -4 12 -15 28 -25 15 -9 50 -37 77 -63
46 -42 152 -117 217 -154 15 -8 69 -50 120 -92 51 -42 111 -89 133 -103 22
-15 51 -37 65 -50 22 -20 84 -64 185 -132 17 -11 46 -35 63 -52 17 -17 34 -31
38 -31 4 0 20 -12 35 -26 16 -15 57 -47 93 -73 35 -25 97 -73 138 -106 40 -34
105 -83 143 -109 39 -27 72 -52 75 -56 3 -4 36 -28 73 -54 153 -104 269 -190
280 -208 7 -10 15 -18 20 -18 4 0 41 -24 82 -54 40 -30 97 -67 126 -82 30 -15
58 -32 64 -39 17 -20 96 -78 156 -115 31 -19 88 -63 126 -98 64 -57 174 -132
194 -132 12 0 139 -98 183 -141 21 -22 43 -39 48 -39 6 0 23 -10 38 -22 15
-13 42 -34 60 -48 18 -14 37 -30 44 -35 39 -35 120 -95 128 -95 5 0 33 -18 62
-40 29 -22 57 -40 63 -40 6 0 22 -9 37 -21 15 -11 48 -32 74 -46 26 -14 76
-53 112 -89 71 -69 110 -100 210 -168 138 -94 219 -152 252 -181 51 -47 121
-95 136 -95 7 0 37 -22 65 -48 29 -27 72 -58 97 -69 25 -12 63 -37 85 -56 61
-54 97 -83 125 -97 28 -15 101 -70 111 -84 4 -5 34 -25 66 -45 68 -41 216
-151 253 -188 14 -14 48 -40 77 -59 28 -18 69 -48 90 -67 52 -47 239 -184 309
-227 31 -19 62 -39 68 -45 11 -10 42 -28 106 -62 19 -10 37 -21 40 -24 6 -7
108 -64 165 -92 38 -19 99 -65 154 -116 73 -67 210 -165 301 -214 30 -17 71
-43 90 -59 19 -15 42 -28 51 -28 9 0 22 -7 29 -15 7 -8 19 -15 26 -15 8 0 22
-9 31 -20 10 -11 21 -20 26 -20 5 0 32 -19 60 -43 29 -24 90 -65 137 -92 92
-53 187 -120 236 -169 18 -17 46 -44 63 -61 17 -16 55 -54 83 -82 29 -29 56
-53 60 -53 5 0 45 -25 89 -55 44 -30 82 -55 84 -55 10 0 149 -93 174 -116 14
-14 47 -39 73 -56 26 -17 49 -37 52 -44 3 -7 20 -20 38 -29 43 -20 131 -75
160 -100 25 -22 185 -105 209 -108 18 -3 91 -58 85 -65 -3 -2 14 -20 37 -39
23 -20 74 -66 113 -104 64 -63 270 -209 294 -209 5 0 10 -5 10 -10 0 -6 12
-16 28 -22 15 -7 50 -35 77 -63 50 -51 155 -131 155 -119 0 4 9 -5 21 -20 11
-14 27 -26 34 -26 8 0 16 -8 20 -17 6 -18 77 -73 94 -73 4 0 20 -9 35 -21 15
-11 33 -22 40 -23 7 -1 20 -9 29 -17 8 -9 41 -29 74 -44 32 -16 60 -32 63 -36
3 -5 25 -15 49 -23 41 -15 88 -44 122 -76 9 -8 25 -22 35 -31 10 -9 39 -39 64
-65 25 -27 48 -48 53 -46 4 1 7 -4 8 -11 1 -23 114 -119 222 -188 59 -38 107
-73 107 -78 0 -5 13 -14 30 -21 16 -7 27 -16 24 -21 -3 -5 -1 -9 4 -9 5 0 26
-12 47 -26 21 -14 61 -37 89 -52 28 -14 54 -31 58 -36 4 -6 8 -7 8 -2 0 5 10
0 23 -11 12 -11 40 -30 62 -42 22 -12 58 -35 80 -51 22 -15 44 -28 50 -27 5 1
14 -8 19 -19 5 -12 21 -29 35 -37 14 -9 43 -32 65 -51 21 -20 45 -36 52 -36 8
0 14 -4 14 -10 0 -5 7 -10 14 -10 19 0 106 -58 106 -71 0 -5 6 -9 14 -9 7 0
19 -6 25 -14 13 -16 86 -56 100 -56 5 0 37 -16 71 -35 34 -19 68 -35 75 -35 7
0 16 -7 19 -16 3 -8 10 -12 16 -9 5 3 31 -9 57 -27 27 -18 64 -41 83 -52 19
-10 56 -34 83 -52 26 -19 52 -34 57 -34 6 0 20 -9 32 -20 19 -17 36 -20 125
-20 l103 0 0 14066 0 14065 -61 60 -62 61 -61 -6 c-58 -5 -143 -17 -214 -32
-21 -4 -37 -15 -44 -29 -6 -13 -23 -32 -39 -44 l-29 -21 -42 37 c-50 44 -66
61 -128 133 -180 209 -277 256 -428 206 -58 -20 -52 -15 -142 -117 -36 -40
-78 -85 -93 -99 -125 -112 -148 -124 -202 -114 -22 4 -44 -1 -71 -15 -21 -12
-57 -21 -78 -21 -29 0 -47 -7 -67 -26 -15 -14 -65 -43 -110 -65 -46 -21 -85
-43 -87 -49 -2 -5 -9 -10 -17 -10 -7 0 -19 -9 -26 -21 -12 -17 -28 -22 -81
-26 -38 -3 -80 -1 -98 6 -21 7 -77 9 -166 4 -134 -6 -134 -6 -192 -44 -32 -21
-70 -49 -83 -62 -36 -35 -116 -87 -123 -80 -3 4 -6 1 -6 -5 0 -7 -6 -12 -13
-12 -8 0 -22 -9 -32 -20 -10 -11 -27 -22 -38 -26 -11 -4 -29 -14 -39 -24 -13
-12 -44 -20 -91 -25 -48 -5 -88 -16 -122 -33 -44 -25 -51 -32 -66 -82 -10 -33
-23 -56 -32 -58 -9 -2 -26 -24 -38 -50 -12 -26 -32 -68 -45 -94 -13 -27 -23
-51 -23 -55 5 -32 -4 -54 -28 -67 -16 -8 -24 -15 -18 -16 5 0 -1 -7 -13 -16
-12 -8 -22 -21 -22 -28 0 -19 -69 -86 -104 -102 -17 -7 -49 -29 -70 -48 -22
-20 -46 -36 -53 -36 -8 0 -12 -4 -8 -9 3 -5 -3 -12 -13 -15 -10 -3 -47 -33
-82 -66 -36 -34 -76 -63 -90 -66 -14 -3 -39 -12 -56 -20 -17 -9 -42 -17 -55
-18 -13 -2 -37 -11 -54 -20 -16 -9 -35 -16 -41 -16 -5 0 -29 -9 -52 -20 -22
-11 -47 -20 -55 -20 -7 0 -17 -4 -23 -8 -5 -5 -29 -17 -54 -26 -68 -26 -130
-59 -130 -68 0 -5 -11 -13 -25 -18 -14 -5 -25 -14 -25 -18 0 -5 -21 -17 -47
-27 -27 -10 -61 -30 -77 -44 -49 -45 -106 -106 -106 -113 0 -5 -7 -8 -15 -8
-8 0 -15 -4 -15 -9 0 -5 -8 -11 -17 -15 -25 -8 -57 -29 -66 -43 -4 -6 -25 -31
-48 -55 -22 -24 -49 -59 -59 -78 -25 -48 -86 -110 -108 -110 -10 0 -33 -11
-52 -25 -26 -19 -34 -33 -35 -58 -1 -19 -9 -49 -18 -67 -10 -18 -17 -41 -17
-52 0 -25 -17 -53 -67 -113 -48 -55 -50 -67 -27 -114 9 -18 14 -41 11 -51 -3
-11 2 -42 10 -69 14 -48 13 -51 -11 -89 -14 -22 -35 -47 -47 -56 -16 -11 -25
-31 -32 -78 -5 -35 -9 -70 -9 -78 0 -8 1 -44 3 -80 2 -56 -2 -72 -25 -108 -14
-23 -26 -48 -26 -55 0 -7 -22 -37 -50 -66 -27 -29 -50 -58 -50 -66 0 -17 -71
-65 -96 -65 -12 0 -24 -3 -28 -7 -4 -5 -11 -8 -14 -8 -29 -3 -50 -23 -71 -68
-23 -48 -51 -88 -51 -71 0 14 -49 -46 -55 -68 -4 -13 -13 -32 -20 -43 -7 -11
-15 -73 -19 -142 -5 -101 -4 -124 9 -136 17 -17 20 -37 5 -37 -18 0 -49 -143
-56 -255 -2 -33 -11 -79 -20 -102 -9 -26 -13 -55 -9 -72 4 -20 0 -39 -14 -62
-12 -19 -21 -44 -21 -56 0 -12 -3 -23 -7 -25 -20 -8 -54 -72 -59 -110 -3 -24
-16 -65 -29 -93 -13 -27 -30 -66 -39 -86 -9 -20 -22 -42 -31 -49 -8 -7 -15
-22 -15 -33 0 -23 -103 -127 -125 -127 -8 0 -15 -5 -15 -12 0 -21 -52 -79 -68
-76 -10 1 -33 -3 -52 -10 -46 -15 -138 -17 -173 -3 -28 11 -77 43 -111 74 -11
10 -43 29 -71 43 -81 41 -98 52 -107 68 -5 9 -15 16 -22 16 -31 0 -124 62
-192 128 -7 6 -21 12 -31 12 -24 0 -113 28 -127 39 -7 6 -27 13 -45 16 -18 3
-42 14 -54 25 -11 11 -27 20 -35 20 -8 0 -31 17 -51 38 -39 41 -113 75 -201
93 -30 6 -81 24 -114 40 -32 16 -63 29 -70 29 -6 0 -24 7 -41 16 -39 22 -303
21 -394 0 -67 -16 -139 -56 -188 -105 -23 -22 -41 -31 -65 -31 -18 0 -46 -7
-61 -15 -16 -8 -47 -20 -70 -26 -53 -14 -156 -65 -183 -90 -11 -10 -30 -19
-41 -19 -11 0 -26 -7 -33 -15 -7 -8 -25 -15 -40 -15 -55 0 -161 -146 -187
-260 -4 -14 -30 -47 -59 -75 -28 -27 -62 -70 -74 -95 -13 -25 -31 -51 -41 -58
-10 -7 -19 -22 -21 -34 -2 -12 -11 -22 -20 -24 -10 -1 -25 -10 -34 -19 -37
-37 -121 -93 -157 -105 -22 -6 -60 -32 -85 -56 -25 -24 -48 -44 -51 -44 -3 0
-35 -41 -71 -90 -36 -50 -82 -109 -102 -133 -34 -38 -54 -86 -47 -112 2 -6 -1
-36 -5 -69 -9 -72 -42 -133 -87 -164 -21 -14 -34 -32 -35 -45 0 -12 -4 -23 -9
-24 -4 0 -12 -8 -17 -16 -14 -26 -77 -1 -117 45 -28 32 -39 39 -65 36 -37 -3
-99 11 -107 24 -10 15 -157 29 -198 19 -51 -13 -252 -96 -341 -141 -41 -21
-97 -41 -125 -45 -27 -4 -53 -13 -57 -19 -6 -7 -10 -8 -15 -1 -5 6 -53 19
-108 29 -55 10 -111 22 -125 26 -14 4 -65 16 -115 26 -49 9 -94 23 -98 31 -4
7 -14 13 -22 13 -8 0 -18 6 -22 13 -12 20 -65 53 -97 61 -15 4 -47 16 -70 26
-22 11 -70 26 -106 35 -126 31 -142 36 -179 54 -31 17 -42 18 -82 8 -25 -7
-57 -20 -72 -30 -14 -9 -50 -22 -79 -28 -29 -7 -62 -18 -73 -25 -11 -7 -32
-14 -46 -16 -15 -2 -33 -9 -40 -15 -8 -5 -54 -23 -104 -38 -49 -16 -95 -32
-101 -37 -12 -8 -119 -13 -564 -23 -140 -3 -322 -9 -405 -13 -220 -10 -279 -6
-350 26 -33 15 -71 37 -85 49 -14 13 -32 23 -40 23 -16 0 -122 66 -158 99 -12
12 -27 21 -32 21 -5 0 -13 6 -17 14 -4 8 -24 25 -43 38 -111 75 -185 87 -448
77 -78 -3 -96 -1 -106 13 -6 9 -23 18 -36 20 -18 2 -26 10 -28 29 -2 15 -16
39 -33 55 -16 15 -29 32 -29 38 0 5 -15 22 -32 37 -28 23 -33 33 -33 71 0 42
20 78 42 78 8 0 63 81 63 94 0 4 20 41 44 84 24 42 49 95 56 116 7 22 21 54
32 71 20 35 58 153 89 279 20 82 27 213 15 306 -7 56 -11 70 -46 177 -16 47
-20 82 -18 145 l3 83 60 2 c75 2 125 11 125 22 0 5 24 19 53 31 64 28 167 98
167 115 0 7 8 23 19 36 17 22 22 46 36 162 3 20 1 37 -3 37 -4 0 -8 15 -8 34
0 34 -61 186 -74 186 -4 0 -23 30 -41 68 -18 37 -36 69 -39 72 -8 7 -105 205
-125 255 -8 22 -22 53 -30 68 -8 16 -15 35 -15 43 0 7 -13 42 -28 76 -16 35
-35 84 -43 111 -7 26 -17 47 -21 47 -4 0 -8 8 -8 18 0 10 -6 27 -14 37 -8 11
-12 25 -9 32 3 7 -2 15 -10 19 -8 3 -18 20 -21 39 -4 18 -13 38 -21 45 -18 15
-65 116 -65 141 0 10 -8 23 -19 28 -10 6 -21 21 -25 34 -3 13 -15 34 -26 47
-23 27 -25 97 -3 92 8 -1 13 9 13 26 0 16 8 32 20 40 11 7 20 23 20 37 0 14 4
25 10 25 5 0 13 12 16 27 4 15 13 33 20 40 6 7 15 50 19 95 4 46 10 88 14 93
10 15 58 145 66 180 6 27 14 49 48 125 17 37 107 191 131 222 26 34 76 107
119 173 17 28 41 60 51 73 11 12 21 29 22 37 1 8 20 36 42 62 48 58 92 151 92
193 0 31 -49 139 -94 205 -38 55 -170 165 -199 165 -8 0 -20 7 -27 15 -7 8
-21 15 -30 15 -10 0 -20 6 -23 13 -6 18 -211 14 -255 -5 -47 -21 -139 -99
-146 -125 -3 -12 -12 -28 -19 -35 -7 -7 -31 -44 -52 -83 -45 -82 -80 -131
-101 -139 -19 -7 -64 14 -64 31 0 7 -5 13 -11 13 -7 0 -21 11 -33 24 -11 13
-48 53 -80 90 -89 99 -182 145 -261 130 -44 -8 -155 -80 -155 -100 0 -8 -11
-19 -24 -25 -13 -6 -32 -29 -42 -50 -15 -36 -20 -39 -56 -39 -21 0 -38 5 -38
10 0 6 -8 10 -17 10 -24 0 -60 40 -88 97 -25 51 -97 133 -116 133 -6 0 -23 9
-39 20 -15 10 -47 22 -71 26 -35 6 -52 16 -86 53 -47 52 -42 47 -107 104 -45
40 -49 46 -62 117 -16 93 -18 368 -3 407 6 15 15 37 20 48 35 83 41 121 35
229 -4 61 -9 257 -11 436 -2 179 -7 397 -10 485 -3 88 -8 279 -10 425 -8 503
-25 1175 -31 1240 -4 46 -1 83 10 125 9 33 19 70 22 83 10 51 43 121 81 178
73 107 93 156 93 227 0 82 -12 115 -76 209 -29 43 -62 104 -73 135 -11 32 -28
71 -36 86 -8 16 -15 34 -15 41 0 7 -7 27 -16 44 -8 18 -13 36 -9 42 3 5 3 16
-2 23 -4 6 -8 158 -8 337 0 290 -2 329 -18 363 -17 36 -31 43 -79 39 -11 -1
-18 5 -19 16 0 12 -4 10 -12 -8 -7 -14 -20 -36 -29 -50 -13 -18 -18 -44 -18
-98 0 -40 -5 -82 -10 -93 -8 -13 -7 -19 0 -19 8 0 10 -80 8 -274 l-3 -273 -31
-26 c-17 -14 -44 -45 -60 -69 -41 -62 -98 -115 -140 -133 -35 -14 -73 -19
-243 -30 -46 -3 -94 -7 -105 -10 -12 -2 -57 -6 -102 -9 -44 -3 -102 -10 -130
-15 -27 -5 -89 -13 -137 -17 -79 -6 -95 -11 -146 -44 -47 -30 -62 -47 -81 -91
-29 -67 -35 -154 -13 -189 27 -45 87 -90 138 -105 39 -12 61 -13 109 -4 57 10
95 24 106 39 3 3 22 16 42 28 44 27 95 27 183 0 33 -11 101 -30 150 -44 50
-14 110 -31 134 -38 61 -17 154 -96 192 -162 17 -31 47 -76 66 -101 33 -44 35
-49 34 -127 -1 -45 -5 -104 -10 -131 -5 -27 -7 -54 -4 -61 2 -6 0 -15 -6 -19
-8 -4 -8 -12 0 -26 7 -13 7 -25 1 -32 -5 -7 -10 -59 -11 -116 -1 -58 -4 -108
-7 -112 -2 -4 -6 -179 -10 -390 -3 -211 -9 -544 -14 -739 -10 -462 -15 -756
-15 -960 0 -136 3 -171 18 -199 9 -19 17 -38 17 -42 0 -4 5 -20 12 -36 6 -15
10 -34 9 -42 -1 -8 3 -17 10 -21 7 -5 13 -20 15 -35 2 -15 9 -35 18 -44 15
-16 33 -88 27 -106 -2 -5 -3 -20 -3 -32 1 -11 -5 -24 -13 -27 -16 -6 -45 -68
-45 -98 0 -18 -31 -82 -70 -143 -22 -35 -27 -58 -41 -185 -29 -280 -31 -354
-9 -530 29 -236 37 -485 19 -571 -6 -30 -12 -63 -13 -75 -1 -11 -5 -24 -8 -30
-3 -5 -13 -36 -23 -69 -10 -33 -22 -64 -27 -70 -4 -5 -8 -16 -8 -25 0 -10 -13
-35 -29 -57 -16 -23 -28 -43 -25 -46 2 -2 -2 -17 -11 -33 -8 -16 -15 -35 -15
-41 0 -7 -6 -13 -14 -13 -12 0 -13 -11 -9 -55 5 -51 4 -55 -16 -55 -19 0 -21
6 -21 48 0 37 -5 54 -21 68 -14 12 -22 15 -27 7 -5 -8 -15 -7 -37 2 -27 12
-28 13 -7 14 13 1 20 5 17 11 -8 12 -84 10 -91 -2 -9 -15 -158 -9 -181 7 -19
14 -22 13 -25 -1 -3 -13 -8 -12 -37 8 -33 23 -61 79 -61 123 0 11 -6 29 -14
40 -7 11 -13 27 -14 35 -1 16 -13 88 -33 200 -6 36 -11 70 -10 75 0 6 3 57 4
115 2 58 13 193 23 300 22 223 23 387 6 545 -7 61 -15 130 -18 155 -7 65 -31
103 -80 130 -36 19 -54 22 -99 17 -62 -6 -199 -67 -214 -95 -5 -9 -11 -38 -14
-64 -3 -26 -8 -51 -11 -56 -2 -4 -7 -32 -11 -62 -3 -30 -10 -93 -16 -140 -13
-99 -12 -180 0 -264 6 -34 13 -151 16 -261 4 -110 8 -202 10 -205 6 -12 -16
-221 -31 -285 -27 -116 -38 -149 -57 -168 -10 -10 -15 -22 -12 -27 3 -5 0 -12
-5 -15 -6 -4 -15 -17 -20 -30 -5 -14 -17 -23 -27 -23 -10 1 -30 -2 -45 -5 -16
-4 -28 -4 -28 0 0 5 -20 9 -44 9 -24 1 -54 8 -67 15 -13 7 -40 13 -59 14 -89
3 -109 6 -122 18 -19 20 -101 39 -109 25 -4 -7 -8 -6 -11 2 -2 8 -29 14 -73
16 -39 2 -71 8 -73 14 -2 5 -16 10 -32 10 -46 0 -77 75 -54 134 7 18 91 59
104 51 5 -3 11 -1 15 5 3 5 15 10 26 10 10 0 19 5 19 10 0 6 7 10 15 10 8 0
15 5 15 10 0 6 10 15 23 21 22 10 68 68 97 124 9 16 31 56 49 89 l32 58 -12
76 c-9 56 -19 83 -36 100 -13 12 -23 27 -23 32 0 5 -10 15 -22 21 -13 7 -30
22 -40 34 -22 28 -108 47 -209 46 -78 -1 -81 0 -129 38 -49 39 -100 58 -120
46 -5 -3 -10 0 -10 8 0 8 -7 17 -14 20 -8 3 -18 22 -22 42 -11 63 -74 103 -74
47 0 -16 -8 -32 -20 -40 -11 -7 -20 -19 -20 -28 0 -8 -7 -23 -16 -31 -13 -14
-17 -14 -26 -2 -7 10 -8 5 -4 -18 4 -26 2 -33 -10 -33 -10 0 -14 -6 -10 -15 8
-21 -3 -45 -20 -45 -8 0 -14 -3 -14 -8 0 -4 -23 -25 -51 -47 -51 -40 -109
-115 -109 -140 0 -7 -10 -22 -23 -32 -12 -10 -29 -33 -36 -50 -7 -18 -18 -33
-23 -33 -6 0 -5 -7 2 -15 9 -10 9 -15 1 -15 -6 0 -11 -7 -11 -16 0 -8 -7 -22
-15 -30 -8 -9 -16 -24 -16 -35 -1 -10 -3 -22 -4 -26 -2 -5 -6 -18 -10 -30 -4
-13 -11 -23 -15 -23 -8 0 -26 -58 -22 -72 1 -5 -7 -8 -19 -8 -12 0 -19 -5 -16
-12 2 -7 -4 -35 -14 -61 -11 -26 -19 -57 -19 -67 0 -11 -4 -20 -8 -20 -5 0
-15 -18 -22 -40 -7 -22 -17 -40 -22 -40 -5 0 -7 -4 -4 -8 3 -5 -1 -9 -9 -9 -8
0 -12 4 -9 9 4 5 -2 5 -12 0 -60 -31 -161 -51 -148 -30 3 4 -2 8 -11 8 -9 0
-13 -4 -10 -10 4 -6 -12 -10 -39 -10 -30 0 -46 4 -46 13 0 9 -2 9 -9 -1 -4 -8
-10 -13 -12 -11 -2 1 -29 -2 -59 -6 -30 -5 -86 -9 -125 -10 -38 -1 -98 -3
-133 -4 -43 -1 -61 -5 -56 -12 4 -7 -5 -9 -30 -6 -20 3 -33 1 -30 -4 3 -5 -4
-9 -16 -9 -14 0 -19 4 -14 12 5 8 2 9 -10 5 -10 -4 -20 -7 -22 -7 -3 0 -2 -5
1 -10 4 -6 -5 -10 -22 -10 -15 0 -67 0 -115 1 -51 0 -88 -4 -88 -9 0 -11 -18
-11 -37 1 -7 4 -277 10 -601 12 -323 3 -619 9 -657 15 -39 5 -125 10 -192 10
-88 0 -122 3 -126 13 -3 9 -7 9 -20 -2 -14 -11 -20 -11 -34 0 -12 10 -59 15
-177 17 -89 2 -170 3 -181 3 -207 -8 -377 -17 -385 -21 -3 -1 -16 -3 -30 -5
-14 -1 -54 -5 -89 -9 -109 -11 -215 -27 -226 -34 -5 -3 -22 -5 -37 -3 -15 1
-60 -2 -100 -8 -119 -18 -157 -19 -161 -7 -3 8 -8 8 -18 -1 -11 -9 -133 -13
-462 -15 -246 -2 -447 -6 -447 -10 0 -3 3 -8 8 -11 4 -2 0 -2 -8 1 -23 8 -320
10 -316 3 3 -4 -10 -6 -27 -4 -86 7 -175 8 -171 1 3 -5 -100 -8 -228 -9 -378
-2 -412 -1 -441 10 -16 6 -61 11 -102 11 -43 0 -75 4 -77 11 -2 7 -12 7 -31 0
-42 -16 -230 -16 -256 1 -18 11 -23 11 -30 0 -8 -14 -31 -11 -109 14 -23 8
-65 14 -92 14 -27 0 -61 5 -77 12 -69 28 -371 56 -411 39 -18 -9 -28 -9 -30
-2 -5 14 -109 15 -114 1 -1 -5 -31 -11 -65 -12 -35 -2 -63 -6 -63 -10 0 -5
-18 -8 -41 -8 -24 0 -38 4 -34 10 4 6 -10 10 -34 10 -21 0 -46 3 -55 6 -10 4
-16 1 -16 -8 0 -11 -23 -15 -107 -17 -60 -1 -109 -6 -111 -11 -5 -14 -80 -32
-103 -25 -11 4 -18 12 -16 19 3 8 -9 13 -37 14 -27 2 -47 9 -58 22 -9 11 -26
20 -37 20 -12 0 -32 6 -44 14 -23 16 -167 64 -252 86 -27 7 -56 17 -63 23 -7
5 -40 13 -75 18 -115 14 -136 21 -216 71 -25 16 -52 28 -60 28 -9 0 -45 19
-81 42 -36 23 -73 43 -83 45 -10 2 -29 10 -43 19 -14 9 -39 18 -57 20 -18 2
-45 7 -62 10 -16 3 -74 8 -127 11 l-98 5 -82 -43 c-46 -24 -98 -50 -115 -59
-18 -8 -35 -23 -38 -33 -4 -9 -11 -15 -16 -12 -16 11 -159 -111 -159 -136 0
-12 -38 -49 -50 -49 -5 0 -10 -9 -10 -20 0 -11 -4 -20 -9 -20 -5 0 -13 -9 -16
-20 -3 -11 -12 -20 -20 -20 -11 0 -21 -13 -30 -40 -11 -30 -21 -40 -43 -40
-35 0 -65 -28 -49 -46 7 -7 18 -20 25 -28 19 -23 20 -145 1 -160 -8 -6 -23
-28 -32 -48 -10 -21 -24 -38 -32 -38 -8 0 -15 -4 -15 -9 0 -17 -54 -71 -71
-71 -9 0 -19 -9 -22 -20 -3 -11 -13 -20 -22 -20 -25 0 -52 -30 -36 -40 10 -6
10 -14 -3 -37 -11 -22 -13 -39 -6 -64 5 -19 11 -63 14 -98 8 -79 15 -112 31
-131 24 -28 65 -161 65 -208 -1 -26 -7 -74 -15 -107 -8 -33 -15 -75 -15 -93 0
-44 -24 -88 -74 -137 -39 -37 -66 -77 -66 -96 0 -4 -13 -27 -29 -51 -16 -24
-30 -52 -32 -63 -3 -11 -14 -24 -26 -30 -11 -6 -51 -38 -88 -70 -37 -33 -74
-63 -84 -66 -9 -4 -32 -30 -51 -58 -19 -28 -41 -51 -48 -51 -7 0 -11 -4 -8 -9
3 -4 -3 -16 -14 -26 -11 -10 -20 -26 -20 -35 0 -12 -16 -20 -57 -30 -32 -8
-62 -13 -66 -12 -13 4 -46 -41 -47 -63 -1 -22 -33 -65 -48 -65 -6 0 -24 -17
-41 -39 -22 -28 -45 -43 -84 -55 -30 -9 -65 -28 -78 -42 -12 -13 -28 -24 -35
-24 -7 0 -16 -10 -19 -22 -7 -23 -63 -88 -76 -88 -3 0 -27 16 -51 35 -55 41
-77 38 -154 -20 -55 -42 -69 -82 -51 -141 8 -25 7 -40 -2 -58 -9 -16 -12 -49
-8 -104 3 -49 2 -82 -4 -84 -15 -5 -19 -155 -6 -211 9 -38 8 -59 -5 -105 -8
-32 -20 -56 -26 -55 -7 2 -12 -6 -12 -16 0 -11 -11 -33 -25 -49 -29 -34 -45
-73 -45 -108 0 -14 -10 -46 -23 -72 -13 -26 -22 -55 -19 -65 2 -10 -4 -20 -15
-24 -10 -4 -24 -13 -31 -20 -7 -7 -19 -13 -26 -13 -6 0 -21 -19 -33 -43 -17
-35 -20 -58 -18 -131 2 -60 -2 -104 -13 -134 -11 -34 -13 -69 -9 -145 6 -91 4
-104 -15 -136 -58 -98 -147 -151 -242 -145 -38 3 -61 13 -110 48 -67 49 -113
95 -141 141 -10 17 -28 39 -40 50 -34 33 -58 78 -67 125 -5 25 -13 68 -18 95
-21 111 -28 132 -54 174 -31 48 -57 120 -58 161 0 8 -4 20 -9 25 -4 6 -9 28
-11 48 -1 20 -6 37 -10 37 -4 0 -8 9 -8 19 0 11 -4 21 -8 23 -4 2 -18 18 -31
36 -21 30 -51 44 -51 23 0 -5 -16 -11 -35 -13 -19 -2 -35 0 -35 4 0 4 -5 8
-11 8 -6 0 -41 32 -77 71 -41 43 -76 71 -89 72 -13 1 -23 4 -23 8 0 17 -86 30
-163 24 l-82 -7 -37 40 c-20 21 -40 51 -44 66 -3 14 -10 26 -15 26 -6 0 -6 8
0 19 15 28 -5 90 -33 101 -24 9 -40 35 -31 50 2 4 -6 38 -19 76 -17 52 -25
102 -30 208 -4 93 -11 147 -22 165 -8 14 -29 52 -47 84 -18 31 -45 70 -60 86
-15 16 -27 33 -27 38 0 6 -15 23 -33 40 -31 28 -131 63 -180 63 -21 0 -87 -31
-87 -41 0 -12 -72 2 -100 20 -14 9 -31 24 -38 33 -7 10 -23 18 -35 18 -13 0
-33 7 -45 16 -12 8 -22 12 -22 8 0 -5 -5 -3 -12 4 -7 7 -17 12 -24 12 -13 0
-47 26 -103 79 -36 34 -69 57 -129 88 -21 11 -42 35 -59 70 -15 29 -30 53 -34
53 -4 0 -15 26 -24 58 -9 31 -21 66 -25 78 -12 30 4 200 20 221 8 10 31 34 52
53 28 25 39 45 42 72 6 53 19 71 121 174 52 51 101 104 111 118 9 15 22 26 29
26 8 0 27 13 42 29 16 16 52 36 78 46 27 9 54 20 60 24 22 17 60 19 93 5 19
-7 44 -14 56 -14 12 0 38 -9 58 -20 21 -11 44 -17 53 -14 11 5 18 0 22 -15 3
-12 13 -21 25 -21 12 0 18 5 15 13 -3 9 18 11 93 9 84 -3 101 -1 131 17 19 12
28 21 22 21 -18 0 -16 36 3 55 22 22 26 67 26 265 0 220 -18 432 -38 443 -7 4
-14 12 -14 18 0 5 -11 20 -25 33 -13 13 -22 25 -19 28 3 3 -9 10 -25 16 -21 7
-31 18 -31 31 0 11 -4 22 -9 26 -12 7 -2 118 11 126 6 4 3 30 -7 65 -10 33
-17 73 -17 91 0 18 -5 34 -14 37 -8 3 -14 16 -14 28 0 13 -6 32 -14 43 -25 37
-26 71 -6 131 11 33 20 66 20 75 0 9 7 30 15 45 10 19 15 58 15 112 0 68 -4
91 -25 131 -33 66 -76 101 -125 101 -58 0 -200 -36 -222 -57 -30 -27 -168 -25
-223 3 -86 43 -112 64 -140 118 -47 90 -24 157 76 221 35 23 167 55 224 55 47
-1 145 -8 198 -16 32 -4 56 -2 72 6 13 7 30 10 38 7 9 -3 17 2 20 14 3 11 9
18 14 17 16 -6 58 47 78 97 21 53 27 190 12 249 -11 41 -154 177 -219 209 -95
47 -235 54 -329 17 -58 -23 -65 -25 -149 -39 -146 -23 -230 -20 -320 15 l-75
29 -22 65 c-18 56 -20 76 -13 133 9 77 26 108 75 140 21 13 40 38 50 63 8 23
27 51 40 64 14 13 25 28 25 34 0 6 9 17 20 24 11 6 32 34 47 61 16 27 51 67
79 89 79 62 174 186 174 226 0 3 7 14 15 24 75 86 116 139 121 158 9 35 -13
96 -58 165 -24 35 -45 69 -48 76 -3 6 -23 25 -44 42 -41 33 -42 33 -161 17
-11 -1 -38 5 -60 15 -22 9 -77 20 -122 23 -45 3 -101 12 -125 21 -24 8 -50 15
-59 15 -9 0 -37 12 -63 26 -51 28 -136 35 -188 15 -44 -16 -58 -7 -145 94 -18
21 -34 46 -34 57 -5 68 -2 82 19 105 16 17 22 36 22 69 0 41 6 50 33 45 30 -5
86 79 101 152 4 15 11 27 17 27 16 0 59 51 75 89 8 18 14 56 14 83 0 36 8 63
27 96 15 26 31 49 35 50 25 11 68 56 82 87 21 43 24 148 6 170 -7 8 -9 15 -5
15 12 0 -77 64 -107 77 -33 15 -114 24 -243 27 -83 2 -112 7 -170 31 -65 26
-71 27 -96 12 -16 -8 -36 -13 -46 -11 -21 6 -53 46 -58 74 -2 11 -6 24 -9 29
-7 11 30 45 41 38 20 -12 71 23 92 64 29 54 22 98 -23 142 -46 47 -48 60 -17
103 16 22 36 64 46 94 10 30 33 76 51 103 19 26 34 51 34 57 0 5 16 22 35 37
19 15 50 48 67 73 18 25 38 51 45 58 7 7 13 20 13 27 0 8 6 18 13 22 6 4 18
18 25 31 16 28 29 152 16 152 -5 0 -20 17 -33 38 -21 35 -59 62 -87 62 -6 0
-17 7 -24 15 -32 39 -148 4 -281 -83 -50 -32 -111 -49 -219 -58 -41 -4 -82
-10 -91 -15 -8 -4 -56 -9 -105 -11 -87 -2 -91 -1 -179 41 -67 32 -109 45 -170
53 -157 20 -305 5 -370 -38 -20 -13 -63 -18 -134 -15 -14 1 -39 18 -63 44 -53
56 -61 78 -37 97 17 14 18 19 4 85 -8 38 -15 80 -15 92 0 33 58 73 107 73 32
0 47 6 72 32 17 17 31 35 31 39 0 3 16 24 36 45 20 22 42 52 51 68 8 16 35 50
60 75 25 25 52 62 60 81 8 19 24 45 34 59 10 13 19 36 19 52 0 27 87 156 145
216 33 34 85 140 85 172 0 18 8 34 23 44 20 15 -625 16 -7085 16 l-7108 1 0
-16715z m33970 9605 c0 -15 7 -33 16 -41 11 -9 14 -22 9 -46 -3 -18 -2 -33 3
-33 10 0 23 -37 27 -73 1 -11 6 -22 11 -25 5 -4 17 -23 27 -42 26 -50 41 -75
57 -95 10 -13 15 -42 15 -97 0 -65 -3 -81 -17 -89 -10 -6 -18 -18 -18 -29 0
-20 -84 -186 -106 -210 -23 -24 -36 2 -37 72 0 35 3 163 8 284 4 122 6 228 3
235 -3 8 -6 17 -7 21 -1 4 -8 25 -16 47 -7 22 -11 42 -8 45 3 3 -1 8 -10 12
-13 4 -14 10 -7 24 13 24 13 40 0 20 -8 -12 -10 -11 -10 8 0 13 6 22 15 22 9
0 15 9 15 21 0 18 2 19 15 9 8 -7 15 -25 15 -40z m-770 -381 c0 -12 7 -27 15
-33 11 -8 18 -44 25 -131 6 -66 13 -147 15 -180 3 -32 9 -62 13 -65 4 -3 8
-16 10 -29 2 -13 12 -37 23 -55 10 -17 23 -42 29 -56 6 -14 14 -34 19 -45 10
-23 28 -102 36 -159 3 -21 8 -42 10 -47 3 -4 8 -62 10 -128 4 -87 0 -141 -11
-193 -12 -57 -14 -99 -8 -193 13 -188 8 -329 -14 -465 -12 -69 -24 -145 -27
-170 -8 -66 -23 -104 -54 -144 -16 -19 -34 -49 -41 -66 -12 -30 -33 -39 -45
-20 -3 6 -24 10 -45 10 -21 0 -40 5 -42 11 -3 8 -33 8 -108 0 -136 -14 -140
-15 -150 -31 -9 -14 -16 -16 -82 -27 -37 -5 -37 -5 -62 48 -61 133 -64 143
-75 284 -6 77 -13 154 -16 170 -3 17 -9 109 -14 205 -7 154 -5 199 13 255 2 6
4 14 4 19 0 5 7 13 16 18 9 5 16 15 16 23 0 8 29 44 65 81 36 37 65 75 65 85
0 10 6 24 13 31 29 29 38 199 17 347 0 2 -7 1 -14 -2 -9 -4 -17 1 -21 12 -3
11 -15 21 -25 24 -13 3 -20 14 -20 30 0 14 -6 27 -12 30 -17 5 -16 149 1 200
7 20 22 42 32 48 20 10 20 11 0 28 -28 25 -26 31 9 31 17 0 30 -4 30 -10 0 -5
18 -10 40 -10 29 0 40 4 40 15 0 11 11 15 40 15 43 0 120 26 120 41 0 5 -18 9
-40 9 -30 0 -40 4 -40 16 0 11 5 14 16 10 45 -17 64 -18 64 -3 0 11 -12 17
-42 19 l-43 3 39 14 c25 9 40 10 45 3 13 -21 51 25 51 62 0 50 27 49 33 -1 2
-21 3 -10 0 25 l-4 62 41 0 c34 0 40 -3 40 -21z m-3071 -190 c66 2 106 -1 110
-8 4 -6 29 -12 55 -13 26 0 54 -7 61 -14 7 -7 24 -16 39 -20 14 -3 26 -10 26
-15 0 -5 10 -9 22 -9 12 0 19 -3 15 -6 -3 -3 1 -23 8 -44 7 -21 16 -51 18 -67
8 -48 34 -90 71 -112 19 -12 38 -20 43 -19 4 1 18 -3 30 -10 12 -7 49 -15 82
-18 40 -5 66 -13 77 -25 10 -11 22 -19 28 -19 13 0 31 -23 62 -78 24 -44 76
-74 108 -63 11 5 22 13 22 20 1 6 3 14 4 19 2 4 4 12 4 17 1 6 11 21 23 34 17
18 35 23 97 28 42 3 76 10 76 14 0 5 8 9 18 9 37 0 145 122 157 178 4 18 9 31
12 28 3 -3 14 -1 25 5 15 8 17 14 8 24 -8 9 -8 15 0 20 5 3 10 1 10 -4 0 -13
24 -14 48 -2 26 13 104 32 130 32 15 -1 22 5 22 19 0 11 7 20 15 20 8 0 15 -7
15 -15 0 -17 25 -20 35 -5 4 6 16 10 28 9 43 -4 78 1 73 10 -3 5 1 11 9 15 8
3 17 0 21 -5 4 -7 43 -10 103 -9 53 2 104 2 113 1 17 -1 54 -67 62 -113 3 -13
5 -24 5 -25 1 -2 1 -5 1 -8 0 -3 7 -20 17 -38 37 -69 42 -100 42 -270 0 -132
-4 -192 -20 -271 -18 -89 -27 -170 -44 -426 -6 -77 -34 -209 -49 -229 -8 -11
-8 -13 2 -7 17 10 15 -9 -3 -24 -9 -7 -14 -19 -11 -27 3 -8 -1 -16 -9 -18 -49
-16 -51 -18 -25 -25 l25 -7 -27 -11 c-35 -15 -39 -23 -44 -98 -3 -44 0 -64 8
-64 6 0 9 -3 5 -6 -3 -4 0 -21 8 -39 7 -19 11 -36 8 -38 -2 -3 5 -11 17 -17
12 -6 19 -14 16 -17 -3 -4 -1 -13 6 -20 7 -8 13 -22 13 -31 4 -33 15 -94 20
-101 2 -4 6 -18 9 -32 3 -13 12 -49 21 -79 23 -81 44 -251 45 -365 0 -101 -26
-257 -54 -320 -7 -16 -12 -48 -11 -70 1 -22 -2 -45 -7 -52 -5 -6 -5 -14 0 -17
4 -2 6 -21 4 -40 -4 -36 -27 -53 -62 -48 -23 4 -94 35 -105 47 -15 16 -35 48
-41 67 -9 26 -62 44 -86 29 -16 -10 -22 -10 -28 -1 -4 7 -13 9 -19 6 -6 -4 -9
-12 -5 -17 7 -12 -36 -59 -53 -59 -7 0 -13 -5 -13 -11 0 -5 -5 -7 -10 -4 -6 3
-13 -1 -16 -9 -3 -8 -13 -18 -22 -21 -10 -3 -25 -18 -34 -35 -13 -23 -24 -30
-48 -30 -16 0 -30 4 -30 10 0 5 -16 12 -35 16 -19 3 -35 10 -35 15 0 5 -12 14
-26 19 -18 7 -24 15 -20 28 24 81 25 195 3 220 -10 10 -17 24 -17 30 0 7 -9
12 -19 12 -10 0 -33 13 -50 29 -31 29 -93 46 -128 35 -15 -5 -16 -4 -3 6 12 9
6 10 -26 5 -63 -10 -64 -6 -68 170 -3 149 -1 158 35 150 37 -8 139 4 139 17 0
6 -7 7 -16 4 -8 -3 -13 -2 -10 3 3 5 20 11 37 15 26 5 92 56 73 56 -3 0 5 14
17 31 12 17 26 48 30 68 4 20 16 61 25 91 9 30 19 76 21 103 3 26 9 47 14 47
5 0 8 3 7 8 -1 4 2 21 6 38 6 26 11 31 28 26 16 -4 20 -2 15 10 -3 9 0 21 6
28 9 10 8 12 -5 7 -10 -3 -20 -2 -23 3 -4 6 -1 10 4 10 6 0 11 9 11 21 0 12 4
17 11 14 6 -4 8 -13 5 -21 -4 -11 5 -14 39 -14 38 0 45 3 45 20 0 17 7 20 40
20 33 0 40 3 40 19 0 11 6 21 13 24 6 2 -12 2 -40 -1 -36 -3 -53 -1 -53 7 0 7
-22 11 -61 11 -52 0 -62 3 -66 20 -3 11 -12 20 -20 20 -9 0 -13 6 -10 14 3 8
-1 20 -8 26 -8 7 -12 16 -9 21 3 5 0 17 -6 28 -5 11 -12 35 -14 53 -3 18 -12
69 -20 113 -20 106 -26 150 -32 210 -2 28 -6 59 -8 70 -3 11 -5 25 -5 32 -1
16 -68 83 -75 76 -3 -4 -6 -1 -6 6 0 7 -4 10 -9 7 -5 -4 -11 -1 -13 6 -3 8
-32 14 -81 16 -71 4 -78 6 -107 38 -16 19 -36 45 -42 59 -6 14 -20 25 -30 25
-31 0 -78 -29 -78 -49 0 -18 -62 -80 -110 -112 -14 -9 -43 -19 -65 -22 -87
-15 -110 -20 -115 -26 -3 -4 -19 -17 -36 -28 -17 -12 -31 -28 -32 -35 -1 -7
-4 -40 -7 -73 -11 -132 -36 -247 -68 -312 -9 -20 -18 -23 -69 -23 -38 0 -57 4
-53 10 8 13 -17 9 -27 -4 -4 -6 -13 -4 -22 3 -9 8 -16 10 -16 5 0 -5 -4 -4 -8
2 -7 11 -146 27 -337 40 -51 3 -93 11 -97 18 -5 7 -34 10 -80 9 -87 -3 -108 2
-108 27 0 17 -4 18 -26 10 -34 -13 -74 -13 -74 1 0 5 5 7 12 3 7 -4 8 -3 4 4
-8 13 -46 16 -46 4 0 -7 -28 -11 -99 -13 -13 -1 -27 4 -31 11 -11 17 -18 17
-32 -1 -7 -9 -30 -19 -50 -22 -32 -5 -38 -2 -44 16 l-7 21 -17 -22 c-11 -14
-20 -18 -22 -10 -6 17 -109 17 -115 0 -4 -9 -10 -7 -21 9 -9 13 -17 17 -21 10
-11 -17 -335 -21 -367 -4 -30 15 -54 17 -54 4 0 -5 -120 -12 -267 -15 -372 -8
-449 -14 -490 -37 -25 -14 -35 -16 -38 -7 -7 17 -108 17 -128 0 -8 -7 -18 -9
-21 -4 -3 6 -22 5 -46 -2 -34 -8 -43 -8 -51 4 -6 11 -11 12 -16 4 -5 -6 -46
-14 -93 -18 -47 -3 -101 -9 -120 -12 -33 -5 -52 -6 -82 -4 -7 1 -142 -1 -300
-3 -244 -5 -288 -3 -288 9 0 9 -11 14 -30 14 -16 0 -30 -4 -30 -10 0 -6 -33
-10 -80 -10 -44 0 -80 4 -80 9 0 6 -83 10 -196 10 -108 1 -200 4 -205 7 -17
10 -159 -8 -159 -20 0 -7 -17 -12 -44 -12 -25 0 -42 4 -40 8 3 5 -37 8 -89 8
-52 0 -128 3 -170 6 -47 4 -77 3 -77 -3 0 -5 17 -9 38 -10 75 -1 88 -3 74 -12
-8 -4 -67 -9 -133 -9 -98 -1 -119 2 -119 13 0 11 -12 15 -40 15 -27 0 -40 -4
-40 -14 0 -17 -94 -16 -127 2 -28 16 -33 15 -33 -3 0 -11 -11 -15 -39 -15 -22
0 -41 4 -43 10 -1 5 -46 9 -98 9 -178 -1 -275 2 -339 11 -51 7 -66 6 -78 -6
-10 -10 -39 -14 -101 -14 -48 -1 -107 -5 -132 -9 -24 -5 -67 -6 -94 -1 -27 4
-61 4 -75 0 -24 -8 -24 -8 -3 -9 12 -1 22 -7 22 -15 0 -11 -19 -17 -70 -22
-38 -3 -67 -10 -64 -15 3 -5 0 -9 -6 -9 -6 0 -9 -4 -6 -9 3 -5 -8 -7 -24 -6
-16 1 -27 -1 -24 -6 3 -5 -13 -9 -35 -9 -23 0 -42 -3 -42 -7 -7 -43 -5 -51 12
-48 32 6 21 -3 -31 -27 -55 -25 -63 -38 -24 -38 19 0 28 -7 37 -30 8 -21 18
-30 34 -30 14 0 23 -6 23 -15 0 -11 -11 -15 -40 -15 -22 0 -40 4 -40 9 0 4
-11 6 -25 3 -21 -4 -25 -1 -23 18 2 18 -4 25 -32 35 -19 7 -34 18 -32 24 1 6
-5 14 -13 17 -8 4 -15 13 -15 21 0 9 -6 13 -14 10 -18 -7 -56 20 -56 40 0 10
-6 14 -19 10 -22 -5 -54 11 -46 24 6 8 -2 11 -21 8 -4 0 -10 3 -13 8 -3 5 -16
13 -27 18 -25 11 -76 49 -112 84 -23 22 -95 66 -117 72 -5 1 -28 10 -50 20
-21 10 -42 16 -46 13 -8 -5 -49 34 -103 100 -21 25 -49 49 -62 52 -13 4 -24 9
-24 14 0 4 -18 12 -40 19 -22 6 -40 16 -40 21 0 6 -7 10 -15 10 -8 0 -15 7
-15 15 0 7 -8 18 -17 23 -9 6 -18 18 -19 28 -1 11 -6 36 -9 56 -5 24 -3 43 4
51 7 9 8 24 1 48 -6 18 -10 51 -10 71 0 23 -9 51 -25 74 -26 38 -28 90 -5 104
7 4 10 12 7 17 -4 6 5 25 19 44 27 37 29 83 4 85 -30 2 -80 26 -80 38 0 16
-61 62 -77 58 -8 -2 -10 7 -7 24 3 16 1 23 -6 19 -15 -9 -12 27 5 49 10 13 11
24 4 37 -6 13 -6 25 1 39 7 13 7 20 1 20 -6 0 -8 7 -5 15 4 8 -1 17 -10 21
-21 8 -20 13 14 53 27 32 32 33 114 38 70 4 88 2 101 -11 9 -9 30 -16 46 -16
16 0 29 -4 29 -9 0 -5 26 -15 58 -21 68 -15 79 -20 61 -31 -10 -6 -6 -9 14 -9
18 0 27 5 27 16 0 11 5 14 16 10 9 -3 21 -6 27 -6 8 0 7 -4 -2 -9 -23 -15 42
-23 124 -16 55 5 75 11 75 22 0 11 4 11 20 3 16 -8 22 -7 32 10 9 13 24 20 45
20 17 0 35 5 38 10 4 6 15 8 25 5 10 -3 24 1 32 8 27 27 60 40 68 27 5 -9 9
-9 14 -1 4 6 2 11 -3 11 -22 0 -10 16 32 43 37 25 49 28 110 25 59 -3 67 -2
67 14 0 10 7 18 15 18 8 0 15 -4 15 -9 0 -5 12 -14 28 -19 l27 -10 -25 -2
c-22 0 -23 -2 -7 -11 10 -6 30 -8 46 -4 19 4 35 0 52 -13 13 -11 50 -22 82
-26 37 -5 60 -13 64 -22 3 -8 12 -13 20 -10 20 8 99 -13 148 -38 22 -11 48
-19 59 -17 29 4 91 -9 78 -18 -7 -4 2 -12 24 -20 30 -11 38 -11 45 0 5 8 9 9
9 3 0 -25 97 -45 393 -81 26 -3 47 -9 47 -14 0 -5 54 -9 120 -9 73 0 120 -4
120 -10 0 -14 77 -13 82 1 3 8 10 9 23 2 11 -6 61 -11 110 -12 50 -1 146 -4
215 -7 131 -7 158 -7 305 -4 50 1 99 0 110 -3 11 -2 23 0 26 5 3 5 98 9 215 9
188 0 290 0 549 1 44 1 143 -3 220 -7 77 -5 176 -7 220 -6 90 3 548 5 610 3
40 -2 102 2 213 14 55 6 186 7 322 4 81 -3 191 9 207 22 7 5 37 11 67 13 30 2
60 7 67 11 7 4 36 6 65 5 32 -1 54 3 54 9 0 5 22 10 48 10 50 0 102 18 102 35
0 6 4 4 9 -4 7 -11 15 -11 45 0 20 7 36 18 36 24 0 13 69 37 82 29 4 -3 8 0 8
5 0 6 -7 11 -16 11 -31 0 -3 17 37 23 23 3 45 10 48 15 3 5 23 15 44 21 20 7
37 17 37 22 0 5 6 9 13 9 7 0 31 9 52 20 22 12 48 19 58 16 9 -2 20 1 25 7 4
7 21 13 37 14 94 7 127 12 133 18 4 4 84 4 177 0 94 -5 217 -7 274 -6z m4286
-1249 c4 -6 14 -8 23 -6 10 3 30 -1 46 -9 15 -8 38 -12 50 -9 20 5 21 2 19
-33 -6 -101 -24 -158 -63 -193 -3 -3 -12 -18 -20 -34 -8 -16 -42 -57 -75 -91
-56 -57 -64 -61 -98 -57 -31 3 -39 10 -57 46 -23 49 -25 103 -6 168 32 104
102 216 132 210 8 -2 14 2 14 8 0 13 27 13 35 0z m787 -140 c63 -118 64 -127
22 -167 -42 -40 -54 -41 -82 -8 -12 14 -26 25 -32 25 -5 0 -10 7 -10 15 0 9
-7 18 -15 21 -8 3 -25 28 -39 56 l-25 50 23 25 c33 35 78 62 100 60 12 -1 32
-28 58 -77z m-1158 -355 c11 -8 16 -15 10 -15 -5 0 0 -7 11 -15 16 -13 19 -28
19 -98 0 -131 -10 -173 -54 -218 -24 -24 -46 -39 -61 -38 -41 1 -111 34 -125
60 -18 33 -18 124 1 143 8 8 15 19 15 25 0 6 15 26 33 45 17 19 49 55 70 80
41 50 51 53 81 31z m-9839 -305 c17 -7 16 -9 -10 -10 -29 -2 -29 -3 -5 -9 14
-3 25 -13 25 -21 0 -8 9 -15 20 -16 32 -2 68 -15 94 -35 13 -10 27 -16 31 -14
5 3 12 0 16 -6 4 -8 3 -9 -4 -5 -7 4 -12 3 -12 -3 0 -6 18 -15 40 -21 21 -6
42 -15 45 -20 3 -6 15 -15 25 -20 16 -9 18 -8 13 6 -4 12 0 15 18 12 16 -2 24
-9 23 -21 -1 -10 5 -17 16 -17 10 0 26 -7 34 -16 9 -8 16 -12 16 -8 0 3 8 0
17 -7 15 -12 16 -12 8 1 -8 13 -7 13 8 1 10 -8 20 -11 24 -8 3 4 13 1 21 -6
13 -10 15 -9 8 3 -4 9 -1 8 7 -2 8 -10 28 -18 45 -18 17 0 42 -4 56 -10 28
-10 284 -32 359 -30 27 0 47 -3 47 -10 0 -5 20 -10 46 -10 25 0 43 4 40 8 -3
5 20 5 51 1 31 -4 64 -4 72 0 9 4 77 7 153 7 77 -1 134 3 131 8 -3 5 6 7 21 4
14 -3 26 -2 26 3 0 4 22 5 49 2 62 -7 144 4 135 19 -4 7 -2 8 5 4 7 -5 82 -7
167 -7 102 1 154 -2 154 -9 0 -6 7 -6 20 2 16 10 24 10 40 0 11 -7 20 -8 20
-3 0 8 82 19 200 26 36 3 85 8 110 11 25 4 48 7 53 6 4 -1 7 2 7 8 0 5 17 9
38 9 20 -1 66 6 102 16 36 9 74 18 85 20 11 1 27 5 35 8 8 3 56 9 105 12 50 4
104 8 120 10 30 3 96 9 250 20 44 3 107 8 140 10 33 3 130 9 215 15 85 5 200
14 255 20 65 8 231 9 475 5 580 -9 614 -8 770 25 34 8 85 9 135 5 104 -9 325
-6 406 6 35 5 82 11 104 12 22 1 46 7 54 12 9 5 16 5 18 -1 4 -11 92 1 123 15
8 4 54 7 103 6 55 -1 87 3 87 9 0 7 3 8 8 1 10 -14 82 -16 82 -2 0 7 4 7 12
-1 7 -7 24 -12 38 -12 22 0 80 -49 80 -67 0 -13 71 -74 80 -68 5 3 10 -1 10
-9 0 -16 11 -20 38 -17 8 1 19 -3 26 -9 8 -5 22 -7 31 -3 12 4 16 3 12 -4 -9
-14 63 -25 79 -12 8 7 20 -1 41 -28 23 -29 33 -57 42 -115 20 -124 9 -267 -23
-289 -4 -4 -29 -9 -54 -13 -25 -3 -51 -11 -58 -17 -11 -9 -18 -8 -31 2 -13 11
-17 11 -20 2 -3 -7 -18 -13 -34 -13 -17 0 -28 -5 -27 -12 2 -6 -14 -21 -35
-33 -20 -12 -34 -25 -30 -28 3 -4 2 -7 -3 -7 -5 0 -9 -13 -9 -29 -1 -16 3 -27
7 -25 4 3 8 -2 8 -10 0 -9 7 -16 15 -16 8 0 15 -4 15 -10 0 -5 7 -10 15 -10 8
0 15 -6 15 -13 0 -29 145 -59 179 -38 18 11 61 -7 61 -26 0 -7 5 -13 11 -13 5
0 8 -4 5 -8 -3 -5 6 -19 19 -30 14 -12 25 -30 25 -41 0 -10 7 -24 15 -31 9 -7
14 -19 11 -25 -2 -7 1 -18 7 -24 8 -8 8 -11 -2 -11 -9 0 -11 -8 -6 -27 18 -70
11 -128 -22 -198 -17 -35 -88 -89 -104 -80 -5 4 -18 0 -27 -8 -23 -21 -70 -40
-110 -43 -19 -2 -40 -8 -48 -15 -8 -6 -14 -8 -14 -3 0 4 -5 3 -12 -4 -7 -7
-20 -12 -31 -12 -10 0 -34 -16 -53 -35 -29 -31 -40 -35 -82 -35 -27 0 -51 -3
-55 -6 -17 -17 -219 -75 -364 -104 -35 -7 -63 -17 -63 -21 0 -5 -5 -9 -12 -9
-6 0 -34 -11 -62 -24 -28 -13 -72 -32 -98 -41 -26 -9 -66 -29 -90 -45 -24 -16
-51 -30 -61 -30 -27 0 -57 -19 -57 -35 0 -7 -15 -23 -34 -34 -18 -12 -51 -41
-72 -66 -22 -25 -43 -45 -47 -45 -4 0 -36 -22 -71 -49 -53 -40 -71 -49 -108
-49 -47 -1 -63 -16 -83 -76 -8 -25 -24 -38 -79 -64 -65 -31 -73 -32 -115 -22
-25 6 -62 25 -81 42 -19 17 -58 48 -87 69 -28 21 -54 43 -58 49 -3 5 -15 10
-26 10 -11 0 -18 4 -15 8 5 9 -23 26 -61 37 -12 3 -30 24 -41 48 -11 23 -36
58 -56 78 -20 20 -60 67 -89 104 -28 37 -61 73 -72 79 -11 6 -22 14 -25 17 -3
4 -15 9 -27 13 -13 4 -41 25 -64 47 -53 50 -61 55 -150 75 -117 27 -379 7
-379 -28 0 -4 -7 -8 -15 -8 -8 0 -29 -9 -47 -20 -18 -11 -40 -20 -49 -20 -9 0
-24 -9 -34 -20 -10 -11 -24 -20 -30 -20 -7 0 -18 -7 -25 -15 -7 -8 -24 -21
-39 -28 -14 -7 -35 -18 -46 -25 -11 -6 -44 -22 -73 -36 -29 -14 -60 -33 -68
-41 -9 -8 -23 -15 -32 -16 -9 0 -30 -9 -47 -20 -16 -10 -37 -21 -45 -25 -8 -3
-24 -10 -35 -15 -40 -17 -198 -59 -226 -59 -15 0 -31 -4 -34 -10 -3 -5 -19
-10 -36 -10 -16 0 -29 -4 -29 -10 0 -5 -26 -17 -57 -25 -82 -23 -133 -45 -170
-75 -17 -14 -43 -33 -57 -43 -14 -10 -26 -24 -26 -32 0 -8 -4 -15 -10 -15 -5
0 -10 -5 -10 -11 0 -14 -36 -60 -42 -53 -7 6 -38 -59 -38 -80 0 -9 -12 -22
-27 -29 -31 -13 -54 -38 -47 -49 3 -4 -9 -14 -26 -23 -17 -9 -41 -32 -52 -51
-19 -33 -43 -44 -50 -24 -2 7 -15 7 -38 0 -29 -8 -39 -7 -61 9 -16 12 -35 17
-52 14 -33 -7 -99 5 -93 16 6 10 -66 19 -210 27 -91 5 -104 4 -104 -10 0 -11
-13 -18 -40 -22 -22 -4 -40 -10 -40 -14 0 -10 -75 -31 -78 -21 -4 10 -42 2
-42 -9 0 -4 -23 -7 -51 -7 -46 1 -54 4 -78 36 -14 19 -36 45 -48 57 -17 18
-20 31 -16 62 3 26 0 43 -9 53 -8 8 -18 26 -21 41 -4 15 -14 33 -22 42 -11 11
-15 33 -14 76 l2 60 -59 56 c-32 31 -77 68 -99 82 -22 14 -48 36 -58 49 -10
13 -34 30 -53 38 -38 15 -87 67 -91 96 -1 9 -14 38 -27 63 -18 35 -23 55 -19
86 4 26 2 40 -6 40 -6 0 -11 6 -11 14 0 8 -13 27 -28 43 -33 32 -69 143 -51
154 6 4 9 13 7 20 -3 8 -1 22 3 31 6 10 4 35 -3 63 -10 37 -10 50 0 66 15 24
14 146 -2 171 -7 12 -6 24 3 42 13 23 11 28 -13 60 -14 19 -26 37 -26 40 0 3
-10 16 -23 30 -21 23 -30 25 -83 21 -64 -4 -95 -12 -106 -29 -19 -29 -145 -1
-178 39 -7 8 -16 13 -20 10 -10 -6 -50 74 -50 98 0 9 -4 19 -10 22 -5 3 -10
17 -10 31 0 16 -4 23 -11 18 -7 -4 -10 -1 -7 7 3 8 -6 27 -21 42 -26 28 -26
30 -25 175 1 81 4 156 6 167 3 12 -2 25 -14 34 -12 8 -18 21 -15 32 3 11 0 19
-6 19 -6 0 -7 3 -3 8 4 4 13 7 19 7 10 0 11 9 8 109 -1 38 -4 47 -16 42 -8 -3
-15 -1 -15 4 0 6 6 10 13 10 7 0 19 9 27 20 16 22 24 23 55 10z m6965 -1000
c0 -5 9 -19 20 -30 17 -17 19 -28 14 -58 -4 -20 -15 -44 -24 -52 -10 -9 -24
-35 -32 -59 -14 -40 -16 -42 -31 -26 -20 20 -29 52 -30 108 -1 41 9 102 19
119 7 12 64 10 64 -2z m13954 -2880 c17 -5 43 -12 57 -15 25 -4 102 -56 159
-105 21 -19 25 -29 23 -73 -1 -29 -13 -85 -28 -124 -14 -40 -25 -83 -25 -96 0
-12 -9 -31 -21 -41 -12 -10 -19 -25 -16 -36 3 -11 -4 -27 -18 -40 -22 -21 -27
-22 -77 -10 -49 12 -70 20 -108 42 -8 4 -25 12 -37 18 -13 5 -23 13 -23 18 0
5 -34 37 -76 71 l-76 63 5 56 c6 62 22 107 50 134 9 10 17 26 17 36 1 21 55
95 78 104 25 10 82 9 116 -2z m4918 -31 c2 -2 13 -18 25 -35 28 -40 41 -91 48
-184 3 -41 7 -96 9 -121 4 -44 2 -48 -39 -83 -42 -35 -93 -53 -167 -58 -27 -1
-45 5 -74 28 -21 16 -48 31 -59 34 -12 4 -21 16 -24 30 -1 14 -7 28 -12 31 -5
3 -10 26 -11 51 -2 44 16 78 41 78 7 0 11 23 11 55 0 42 4 55 15 55 8 0 12 6
9 13 -7 20 18 45 51 50 43 7 65 17 65 31 0 23 21 33 66 31 24 -1 45 -3 46 -6z
m-523 -234 c18 -19 37 -35 42 -35 6 0 8 -3 5 -8 -2 -4 2 -16 10 -27 13 -17 16
-18 24 -5 8 12 11 11 16 -7 4 -13 14 -23 23 -23 16 0 32 -19 59 -73 12 -24 12
-35 -4 -85 -10 -31 -26 -66 -36 -76 -10 -11 -18 -25 -18 -31 0 -7 -9 -20 -21
-31 -25 -23 -52 -81 -68 -149 -6 -27 -21 -74 -32 -102 -23 -57 -39 -64 -93
-44 -28 11 -76 -6 -76 -26 0 -7 -4 -13 -9 -13 -5 0 -12 6 -15 13 -3 8 -8 7
-16 -6 -9 -14 -15 -16 -26 -6 -11 9 -17 9 -29 -1 -19 -16 -75 -3 -82 18 -2 10
-9 26 -13 37 -5 11 -12 40 -15 65 -3 25 -11 67 -17 93 -8 39 -7 60 7 108 10
36 14 72 10 91 -8 33 -6 38 50 151 41 82 55 100 99 132 16 11 37 28 47 39 14
14 26 17 54 12 27 -5 37 -3 41 9 10 26 48 17 83 -20z m-24680 -3477 c11 -7 21
-18 21 -24 0 -16 23 -24 49 -17 15 4 23 -1 32 -21 7 -14 16 -26 20 -26 11 0
-49 -61 -63 -64 -12 -3 -19 -5 -65 -23 -10 -3 -38 -7 -63 -8 -24 -2 -46 -8
-48 -14 -4 -13 -130 -15 -151 -2 -10 6 -12 19 -7 42 4 26 3 30 -5 19 -8 -11
-9 -8 -4 15 8 38 14 43 26 25 8 -12 9 -9 7 10 -2 18 2 25 17 28 11 2 32 15 46
29 23 21 41 29 72 32 5 1 5 6 2 11 -10 15 87 5 114 -12z m-10475 -3046 c27
-15 51 -32 53 -38 2 -6 -6 -23 -17 -37 -19 -24 -29 -27 -78 -27 -70 0 -92 11
-76 38 9 14 9 22 -1 36 -24 31 -2 52 55 54 8 0 37 -12 64 -26z"/>
<path d="M31640 29229 c-52 -17 -126 -39 -165 -49 -71 -20 -254 -82 -355 -120
-30 -12 -64 -24 -74 -27 -11 -4 -27 -13 -37 -22 -9 -9 -29 -24 -44 -34 -14
-11 -24 -21 -21 -24 3 -3 -6 -23 -19 -44 -68 -107 -56 -276 23 -318 59 -33
165 -51 177 -31 3 6 15 10 26 10 11 0 39 20 61 45 25 27 55 49 77 55 34 10
336 31 411 29 98 -3 162 10 233 46 71 36 166 118 167 143 0 7 8 15 18 19 9 3
25 13 35 21 11 10 17 11 17 3 0 -6 11 -16 25 -21 14 -6 32 -25 40 -42 8 -18
21 -41 28 -50 13 -16 17 -17 45 -3 28 14 31 21 37 80 8 69 0 135 -15 135 -6 0
-10 6 -10 13 0 6 -12 25 -26 41 -22 25 -29 28 -45 18 -11 -7 -39 -15 -62 -18
-41 -6 -44 -4 -79 38 -40 49 -135 125 -158 127 -169 13 -216 10 -310 -20z"/>
<path d="M32422 28910 c-7 -12 -17 -18 -22 -15 -15 9 -24 -17 -9 -26 12 -8 11
-11 -2 -19 -27 -16 -59 -119 -67 -220 -8 -85 -7 -98 10 -119 10 -13 18 -30 18
-37 0 -8 20 -24 44 -36 41 -20 50 -20 99 -9 38 8 63 21 85 44 29 31 30 36 31
123 1 107 -14 194 -37 212 -15 11 -15 14 -2 23 11 8 12 12 3 16 -7 2 -13 13
-13 23 0 13 -16 24 -55 39 -68 26 -67 26 -83 1z"/>
<path d="M38800 26340 c0 -3 -24 -5 -53 -6 -31 0 -69 -9 -94 -21 -23 -11 -45
-18 -48 -15 -3 3 7 11 22 18 27 12 27 12 -20 13 -45 1 -48 0 -42 -21 5 -17 4
-19 -3 -9 -7 9 -18 11 -33 7 -39 -12 -141 -17 -135 -8 7 11 -219 10 -230 0 -4
-5 3 -8 15 -8 12 0 19 -4 16 -10 -3 -5 -17 -10 -31 -10 -14 0 -22 4 -19 10 7
11 -14 13 -68 3 -24 -4 -34 -9 -26 -14 8 -5 -2 -10 -26 -15 -26 -5 -40 -3 -43
5 -5 15 -39 14 -46 -1 -4 -9 -8 -9 -11 -2 -3 6 -19 8 -36 6 -22 -3 -27 -7 -18
-13 11 -7 11 -9 -1 -10 -10 0 -8 -3 5 -8 17 -7 17 -8 -8 -13 -15 -3 -27 -1
-27 3 0 5 -54 9 -121 9 -66 0 -118 4 -115 9 3 5 -11 11 -32 15 -57 9 -132 7
-132 -4 0 -5 -19 -11 -42 -12 -40 -1 -41 -1 -9 -5 19 -3 46 1 59 9 20 10 26
10 29 1 3 -7 14 -14 26 -14 21 -2 -6 -6 -145 -24 -40 -5 -62 -4 -72 4 -11 9
-16 9 -22 -1 -5 -7 -9 -16 -9 -20 0 -3 -11 -21 -24 -38 -18 -25 -25 -29 -32
-19 -11 18 -72 -48 -77 -82 -5 -34 -10 -35 -21 -5 -13 32 -29 34 -40 4 -7 -19
-14 -22 -54 -19 -45 2 -47 1 -47 -23 0 -24 -4 -26 -42 -27 -81 -2 -83 -3 -83
-26 0 -13 -4 -23 -10 -23 -5 0 -10 9 -10 19 0 11 -3 23 -7 27 -5 4 -8 2 -8 -4
0 -7 -16 -12 -39 -12 -30 0 -44 -6 -56 -22 -14 -21 -14 -23 2 -30 11 -4 -1 -6
-27 -6 -25 0 -35 3 -22 5 17 3 22 9 16 21 -3 9 -9 27 -11 40 -3 12 -9 22 -14
22 -5 0 -9 7 -9 15 0 11 -11 15 -40 15 -33 0 -40 -3 -40 -20 0 -17 -7 -20 -40
-20 -38 0 -40 2 -40 30 0 28 -2 30 -40 30 -22 0 -40 -4 -40 -10 0 -5 -18 -10
-40 -10 -33 0 -40 3 -40 20 0 17 7 20 40 20 38 0 40 2 40 30 0 19 -5 30 -14
30 -24 0 -30 -22 -11 -37 17 -12 14 -13 -29 -13 -36 0 -52 -5 -65 -21 -14 -18
-30 -21 -106 -25 -62 -2 -92 0 -97 9 -5 9 -10 9 -20 -1 -9 -9 -8 -15 8 -27 18
-13 16 -14 -23 -15 -24 0 -43 5 -46 13 -4 10 -7 10 -18 0 -11 -11 -10 -13 4
-13 13 0 17 -9 17 -40 0 -36 -2 -40 -25 -40 -23 0 -25 -4 -25 -40 l0 -41 63 4
c34 3 45 2 25 0 -30 -3 -38 -9 -38 -24 0 -16 7 -19 40 -19 33 0 40 -3 40 -20
0 -17 -7 -20 -40 -20 -22 0 -40 -4 -40 -10 0 -5 18 -10 40 -10 33 0 40 -3 40
-20 0 -17 -7 -20 -40 -20 -22 0 -40 -4 -40 -9 0 -6 -19 -12 -42 -14 l-43 -4
49 -1 c43 -2 54 -7 82 -37 26 -29 39 -35 73 -35 22 0 41 -4 41 -10 0 -5 18
-10 40 -10 33 0 40 -3 40 -20 0 -17 -7 -20 -39 -20 -23 0 -41 -5 -44 -13 -13
-33 8 -38 166 -40 87 -1 157 -4 157 -7 0 -4 54 -7 120 -7 66 0 120 4 120 9 0
4 39 8 86 8 71 0 89 3 100 18 13 16 15 16 29 -3 13 -16 17 -17 24 -6 7 10 24
12 77 7 38 -4 78 -10 90 -12 13 -3 28 2 39 13 15 15 44 19 183 25 91 3 168 11
171 16 9 15 161 27 161 13 0 -6 10 -11 23 -11 18 0 19 2 7 10 -11 7 -6 8 17 4
31 -6 115 16 200 52 17 8 37 14 45 14 10 0 9 3 -2 10 -10 6 7 8 50 4 36 -3 76
-1 90 4 19 8 20 11 7 11 -28 1 -9 21 19 21 14 0 23 -4 20 -9 -3 -4 157 -8 355
-9 267 0 364 -4 375 -13 10 -8 21 -9 37 -2 13 6 44 7 77 3 30 -4 59 -4 65 1 5
6 4 9 -3 9 -7 0 -12 5 -12 10 0 6 14 10 30 10 17 0 30 -4 30 -10 0 -5 -5 -10
-12 -10 -7 0 -8 -3 -2 -8 5 -5 32 -6 59 -3 l50 5 -45 7 c-25 4 45 4 155 0 274
-8 434 -6 448 8 6 6 44 11 84 11 42 0 73 4 73 10 0 6 43 10 108 11 59 0 141 5
182 10 41 5 100 11 130 12 139 7 140 7 140 22 0 18 76 22 82 4 3 -9 25 -9 83
-2 l80 10 -67 2 c-38 0 -68 5 -68 10 0 5 11 18 25 29 14 11 25 25 25 31 0 6 9
11 20 11 11 0 20 4 20 10 0 5 11 17 25 26 24 16 27 16 45 -1 27 -24 25 -35 -5
-35 -18 0 -25 -5 -25 -20 0 -17 7 -20 40 -20 29 0 40 4 40 15 0 11 11 15 40
15 31 0 40 -4 40 -17 0 -15 2 -16 10 -3 16 24 12 30 -20 30 -28 0 -30 2 -30
40 0 39 1 40 38 41 20 1 29 3 20 6 -10 2 -18 9 -18 14 0 5 -18 9 -40 9 -33 0
-40 3 -40 20 0 23 -10 26 -28 8 -8 -8 -15 -9 -22 -2 -6 6 -32 9 -59 6 l-47 -4
1 58 c1 35 1 42 -2 17 -5 -51 -14 -54 -43 -13 -19 26 -27 30 -71 30 -42 0 -49
3 -49 20 0 18 -7 20 -80 20 -47 0 -80 4 -80 10 0 6 -18 10 -39 10 -40 0 -40 0
-43 43 -4 42 -4 42 -16 15 -14 -35 -30 -36 -42 -3 -11 29 -28 33 -37 8 -9 -26
-34 -53 -50 -53 -17 0 -17 18 1 22 10 2 11 9 5 26 -8 20 -14 22 -93 22 -65 0
-85 3 -90 15 -4 11 2 15 21 15 21 0 24 2 13 15 -8 10 -30 15 -61 15 -37 0 -49
-4 -49 -15 0 -23 -20 -18 -42 10 -24 30 -38 32 -38 5 0 -28 -11 -25 -40 10
-24 28 -28 29 -119 31 -70 1 -95 -2 -102 -12 -8 -12 -12 -11 -24 5 -8 11 -21
16 -30 12 -9 -3 -14 -2 -11 3 8 12 -198 31 -359 34 -128 2 -140 1 -137 -15 2
-13 -4 -18 -18 -18 -14 0 -20 5 -18 17 2 14 -6 17 -50 17 -28 1 -52 -1 -52 -4z"/>
<path d="M18392 26184 c-7 -8 -22 -14 -33 -14 -40 0 -134 -33 -162 -56 -20
-17 -41 -24 -70 -24 -40 -1 -43 -3 -66 -50 -13 -28 -28 -50 -33 -50 -4 0 -8
-18 -8 -40 0 -22 4 -40 10 -40 5 0 10 -26 12 -57 3 -50 6 -59 28 -70 17 -8 26
-9 31 -1 4 6 10 2 14 -11 3 -11 13 -21 21 -21 8 0 14 -8 15 -17 0 -11 3 -13 6
-5 8 21 39 13 51 -13 12 -25 28 -33 34 -16 2 6 26 2 55 -8 29 -10 50 -20 47
-23 -3 -3 11 -9 30 -12 33 -6 61 -26 37 -26 -6 0 -11 -4 -11 -10 0 -5 7 -10
15 -10 18 0 38 -37 31 -57 -4 -9 -2 -21 3 -27 5 -6 11 -24 14 -40 2 -16 11
-34 20 -41 9 -6 14 -15 10 -18 -3 -4 6 -7 20 -7 24 0 32 -9 28 -34 -4 -18 21
-36 38 -26 13 6 24 2 44 -16 26 -24 30 -24 119 -18 51 4 107 13 123 21 41 19
89 56 93 72 1 7 10 24 19 38 10 15 18 36 19 47 5 52 23 106 35 106 5 0 9 11 9
25 0 25 1 25 83 26 45 1 74 3 65 6 -13 3 -18 15 -18 44 l0 39 -60 0 c-69 0
-82 14 -88 90 -5 81 -7 86 -24 104 -10 10 -18 24 -18 32 0 8 -4 14 -10 14 -5
0 -10 6 -10 13 -1 27 -49 64 -125 96 -44 19 -84 38 -90 42 -12 8 -110 36 -150
43 -16 2 -30 5 -30 7 0 1 -36 3 -80 4 -57 2 -84 -2 -93 -11z"/>
</g>
</svg>
